<svg width="20" height="22" viewBox="0 0 20 22" fill="none" xmlns="http://www.w3.org/2000/svg">
<g clip-path="url(#clip0_241_10156)">
<path d="M13.9297 6.96084C13.9297 6.96084 15.394 6.49199 16.5725 5.33789V6.31166C15.9297 6.85264 15.1083 7.14117 15.1083 7.14117L13.9297 6.96084Z" fill="#0D0D0D"/>
<path d="M19.2857 0.649414V1.26253C19.3929 4.90515 19.3929 8.58384 19.25 12.2265C19.25 12.1904 19.25 12.1904 19.25 12.1543V13.8855L20 13.3445V1.40679L19.2857 0.649414Z" fill="#0D0D0D"/>
<path d="M19.2868 1.2626V0.685547L16.9654 1.01014C16.7511 1.62325 16.5011 2.99374 13.9297 4.2921V6.96096C13.9297 6.96096 15.394 6.4921 16.5725 5.33801V6.31178V13.7052L19.2868 13.9216V12.1905C19.144 8.51178 19.1797 4.86915 19.2868 1.2626Z" fill="#414141"/>
<path d="M19.2879 1.2627C19.395 4.90532 19.395 8.58401 19.2522 12.2266C19.145 8.58401 19.1808 4.90532 19.2879 1.2627Z" fill="#ACACAC"/>
<path d="M12.7132 20.1248L11.7846 16.8789L10.5703 16.915L11.356 19.6199L12.7132 20.1248Z" fill="#820000"/>
<path d="M9.82254 13.8851L8.67969 9.70153L9.35826 7.5376L11.144 13.8851H9.82254Z" fill="#820000"/>
<path d="M11.1434 3.67883L7.39342 2.95752L6.28627 6.13129C5.00056 10.1346 3.64342 14.1739 2.21484 18.1411C4.82199 17.3477 6.53627 15.7247 7.8577 13.8854H7.42913L9.32199 7.57391L9.92913 9.70178C11.1791 6.27555 11.1434 3.67883 11.1434 3.67883Z" fill="#FF3F36"/>
<path d="M11.1775 3.67871H11.106C11.106 3.67871 11.1417 6.27543 9.92745 9.70166L11.106 13.8853H7.85603C6.5346 15.7607 4.82031 17.3836 2.21317 18.141C1.82031 19.223 1.46317 20.2689 1.07031 21.3508L5.57031 20.882L6.64174 17.1312L11.7846 16.8787L12.7132 20.1246L15.9275 19.764L11.1775 3.67871Z" fill="#EB140A"/>
<path d="M6.39286 5.8067C6.35714 5.87883 6.35714 5.95096 6.32143 6.02309L7.35714 2.95752L5.75 3.78703L0 20.4493L1.07143 21.351C2.71429 16.1215 4.53571 10.928 6.39286 5.8067Z" fill="#B80000"/>
<path d="M6.39174 5.80664C4.71317 11.0001 2.92746 16.2296 1.07031 21.3509C2.71317 16.1214 4.5346 10.928 6.39174 5.80664Z" fill="#FDC9C4"/>
</g>
<defs>
<clipPath id="clip0_241_10156">
<rect width="20" height="22" fill="white"/>
</clipPath>
</defs>
</svg>
