<svg width="18" height="18" viewBox="0 0 18 18" fill="none" xmlns="http://www.w3.org/2000/svg">
<g id="&#208;&#152;&#208;&#186;&#208;&#190;&#208;&#189;&#208;&#186;&#208;&#176; close 1" clip-path="url(#clip0_361_2635)">
<g id="Group">
<path id="Vector" d="M0.566016 0.0597954C0.256641 0.168779 0 0.53792 0 0.878935C0 0.949247 0.0246094 1.08636 0.05625 1.18128C0.108984 1.33948 0.428906 1.66995 3.93398 5.17854L7.75195 9.00003L3.94805 12.8075C1.85977 14.8992 0.119531 16.6641 0.0878906 16.7309C-0.0703125 17.0473 0.00351563 17.4797 0.263672 17.7364C0.50625 17.9825 0.836719 18.0563 1.18125 17.9438C1.33945 17.891 1.66992 17.5711 5.175 14.066L9 10.2481L12.825 14.066C16.3301 17.5711 16.6605 17.891 16.8188 17.9438C17.1633 18.0563 17.4938 17.9825 17.7363 17.7364C17.9824 17.4938 18.0563 17.1633 17.9438 16.8188C17.891 16.6606 17.5711 16.3301 14.066 12.8215L10.248 9.00003L14.066 5.17503C17.5711 1.66995 17.891 1.33948 17.9438 1.18128C18.0563 0.836748 17.9824 0.506279 17.7363 0.2637C17.4938 0.0176067 17.1633 -0.056221 16.8188 0.0562801C16.6605 0.109015 16.3301 0.428936 12.8215 3.93401L9 7.75198L5.175 3.93401C1.66992 0.428936 1.33945 0.109015 1.18125 0.0562801C0.966797 -0.0140324 0.769922 -0.0105171 0.566016 0.0597954Z" fill="#CD4A4A"/>
</g>
</g>
<defs>
<clipPath id="clip0_361_2635">
<rect width="18" height="18" fill="white"/>
</clipPath>
</defs>
</svg>
