<svg width="36" height="36" viewBox="0 0 36 36" fill="none" xmlns="http://www.w3.org/2000/svg">
<path d="M12.42 3.75121C13.365 3.77995 14.28 3.94495 15.1665 4.24645H15.255C15.315 4.27495 15.36 4.30645 15.39 4.33495C15.7215 4.44145 16.035 4.56145 16.335 4.72645L16.905 4.98145C17.13 5.10145 17.4 5.32495 17.55 5.41645C17.7 5.50495 17.865 5.59645 18 5.69995C19.6665 4.42645 21.69 3.73645 23.775 3.75121C24.7215 3.75121 25.6665 3.88495 26.565 4.18645C32.1015 5.98645 34.0965 12.0614 32.43 17.3714C31.485 20.0849 29.94 22.5614 27.9165 24.5849C25.02 27.3899 21.8415 29.8799 18.42 32.0249L18.045 32.2514L17.655 32.0099C14.2215 29.8799 11.025 27.3899 8.10152 24.5699C6.09152 22.5464 4.54502 20.0849 3.58502 17.3714C1.89002 12.0614 3.88503 5.98645 9.48153 4.15495C9.91653 4.00495 10.365 3.89995 10.815 3.84145H10.995C11.4165 3.77995 11.835 3.75121 12.255 3.75121H12.42ZM25.785 8.49145C25.17 8.27995 24.495 8.61145 24.27 9.24145C24.06 9.87145 24.39 10.5614 25.02 10.7849C25.9815 11.1449 26.625 12.0914 26.625 13.1399V13.1864C26.5965 13.5299 26.7 13.8614 26.91 14.1164C27.12 14.3714 27.435 14.5199 27.765 14.5514C28.38 14.5349 28.905 14.0414 28.95 13.4099V13.2314C28.995 11.1299 27.7215 9.22645 25.785 8.49145Z" fill="white"/>
<circle cx="26.25" cy="12.75" r="4.5" fill="white"/>
</svg>
