<svg width="133" height="119" viewBox="0 0 133 119" fill="none" xmlns="http://www.w3.org/2000/svg">
<path d="M65.7292 23.664C66.0806 23.0076 66.4173 22.4804 66.6587 21.9151C68.2509 18.1653 70.3577 14.75 73.1674 11.7815C76.6059 8.15022 80.7263 5.55434 85.3696 3.75672C88.1688 2.67264 91.0463 1.85746 94.0169 1.41705C96.5175 1.04652 99.0329 0.991462 101.548 1.2286C109.448 1.97603 116.306 5.07371 122.08 10.4941C127.467 15.5525 130.721 21.769 131.852 29.0823C132.472 33.0947 132.51 37.1219 132.127 41.1554C131.39 48.9239 128.813 56.0996 125.093 62.9048C121.386 69.6845 116.78 75.8079 111.466 81.3956C109.272 83.7014 106.945 85.878 104.674 88.1076C104.441 88.3362 104.17 88.5289 103.841 88.7999C103.742 88.3892 103.75 88.0631 103.75 87.7434C103.748 84.8511 103.75 81.9567 103.752 79.0644C103.752 78.2322 103.761 77.4001 103.755 76.5659C103.748 75.7338 103.536 75.5136 102.73 75.5178C96.7144 75.558 90.7011 75.6025 84.6879 75.6512C84.4274 75.6533 84.1691 75.7147 83.8769 75.7528C83.8769 80.0235 83.8769 84.2222 83.8769 88.5098C82.9982 88.567 82.1534 88.531 81.3107 88.5374C80.4574 88.5437 79.6041 88.5395 78.7508 88.5395C77.8976 88.5395 77.0442 88.5395 76.191 88.5395C75.3377 88.5395 74.4844 88.5395 73.6311 88.5395C72.7799 88.5395 71.9266 88.5395 71.0903 88.5395C70.9251 89.018 70.8891 107.757 71.0521 108.495C74.0482 108.495 77.0591 108.495 80.053 108.495C80.1949 108.86 79.9408 108.951 79.7629 109.071C78.988 109.599 78.2109 110.117 77.4317 110.638C74.1985 112.802 70.94 114.928 67.7406 117.143C66.3453 118.108 65.0918 118.06 63.705 117.177C59.1738 114.293 54.7422 111.269 50.4334 108.061C42.1546 101.902 34.3713 95.1689 27.0304 87.917C23.3124 84.2434 19.6959 80.4788 16.4373 76.3817C11.2625 69.8751 7.02573 62.8243 4.03815 55.0452C2.59412 51.2869 1.48252 47.4376 0.889661 43.4506C-0.548017 33.7997 1.004 24.6676 5.82731 16.1644C9.89262 8.99714 15.9969 4.30087 23.7951 1.7537C27.5852 0.515055 31.4705 -0.154017 35.4575 0.0301925C43.2832 0.390141 50.2175 2.96272 55.8623 8.55251C58.7059 11.3665 61.0943 14.5298 62.8919 18.1187C63.7219 19.7744 64.554 21.426 65.3883 23.0775C65.4645 23.2257 65.5534 23.3633 65.7292 23.664Z" fill="#DF2E28"/>
<path d="M100.595 118.333C95.996 118.333 91.5094 118.333 86.9634 118.333C86.8851 116.9 86.938 115.492 86.9274 114.084C86.9168 112.669 86.9253 111.255 86.9253 109.838C86.9253 108.426 86.9253 107.014 86.9253 105.536C85.4665 105.443 84.0605 105.502 82.6567 105.491C81.2424 105.481 79.8258 105.489 78.4115 105.489C76.9992 105.489 75.5891 105.489 74.1937 105.489C74.0413 104.979 74.018 92.6667 74.1662 91.9913C75.5552 91.9171 76.9611 91.9701 78.367 91.9595C79.7814 91.9489 81.1979 91.9574 82.6123 91.9574C84.0224 91.9574 85.4305 91.9574 86.8978 91.9574C86.9126 91.6461 86.9338 91.4026 86.9338 91.1591C86.9359 87.4347 86.9359 83.7103 86.9359 79.9859C86.9359 79.8186 86.9444 79.6535 86.9359 79.4862C86.9211 79.1792 87.0502 79.014 87.37 79.0204C87.5372 79.0225 87.7024 79.0162 87.8697 79.0162C91.7613 79.0162 95.653 79.014 99.5426 79.0183C99.8263 79.0183 100.112 79.0479 100.474 79.0691C100.474 83.3567 100.474 87.5914 100.474 91.8706C101.245 92.0082 101.95 91.9256 102.647 91.9404C103.354 91.9553 104.061 91.9447 104.768 91.9447C105.475 91.9447 106.183 91.9447 106.89 91.9447C107.597 91.9447 108.304 91.9447 109.011 91.9447C109.719 91.9447 110.426 91.9447 111.133 91.9447C111.838 91.9447 112.541 91.9447 113.307 91.9447C113.333 92.2114 113.371 92.4317 113.373 92.6497C113.377 96.6854 113.377 100.723 113.375 104.759C113.375 104.962 113.352 105.167 113.337 105.453C112.598 105.46 111.897 105.468 111.199 105.472C110.491 105.475 109.784 105.472 109.077 105.472C108.37 105.472 107.663 105.472 106.955 105.472C106.269 105.472 105.581 105.472 104.895 105.472C104.188 105.472 103.481 105.472 102.774 105.472C102.073 105.472 101.37 105.472 100.597 105.472C100.595 109.785 100.595 114.018 100.595 118.333Z" fill="#1D8745"/>
</svg>
