<svg width="40" height="39" viewBox="0 0 40 39" fill="none" xmlns="http://www.w3.org/2000/svg">
<path d="M12.56 0.00128589C13.82 0.0396052 15.04 0.259605 16.222 0.661605H16.34C16.42 0.699605 16.48 0.741605 16.52 0.779605C16.962 0.921605 17.38 1.08161 17.78 1.30161L18.54 1.64161C18.84 1.80161 19.2 2.09961 19.4 2.22161C19.6 2.33961 19.82 2.46161 20 2.59961C22.222 0.901605 24.92 -0.0183948 27.7 0.00128589C28.962 0.00128589 30.222 0.179605 31.42 0.581605C38.802 2.98161 41.462 11.0816 39.24 18.1616C37.98 21.7796 35.92 25.0816 33.222 27.7796C29.36 31.5196 25.122 34.8396 20.56 37.6996L20.06 38.0016L19.54 37.6796C14.962 34.8396 10.7 31.5196 6.80203 27.7596C4.12203 25.0616 2.06003 21.7796 0.780033 18.1616C-1.47997 11.0816 1.18003 2.98161 8.64203 0.539605C9.22203 0.339605 9.82003 0.199605 10.42 0.121605H10.66C11.222 0.0396052 11.78 0.00128589 12.34 0.00128589H12.56ZM30.38 6.32161C29.56 6.03961 28.66 6.48161 28.36 7.32161C28.08 8.1616 28.52 9.0816 29.36 9.37961C30.642 9.8596 31.5 11.1216 31.5 12.5196V12.5816C31.462 13.0396 31.6 13.4816 31.88 13.8216C32.16 14.1616 32.58 14.3596 33.02 14.4016C33.84 14.3796 34.54 13.7216 34.6 12.8796V12.6416C34.66 9.8396 32.962 7.30161 30.38 6.32161Z" fill="#DF2E28"/>
</svg>
