<svg width="28" height="28" viewBox="0 0 28 28" fill="none" xmlns="http://www.w3.org/2000/svg">
<g id="XLg">
<path id="Vector" fill-rule="evenodd" clip-rule="evenodd" d="M24.2456 3.7556C24.3271 3.83688 24.3917 3.93344 24.4359 4.03974C24.48 4.14604 24.5027 4.26001 24.5027 4.3751C24.5027 4.49019 24.48 4.60415 24.4359 4.71046C24.3917 4.81676 24.3271 4.91332 24.2456 4.9946L4.99561 24.2446C4.8313 24.4089 4.60846 24.5012 4.37611 24.5012C4.14375 24.5012 3.92091 24.4089 3.75661 24.2446C3.5923 24.0803 3.5 23.8575 3.5 23.6251C3.5 23.3927 3.5923 23.1699 3.75661 23.0056L23.0066 3.7556C23.0879 3.67411 23.1844 3.60946 23.2907 3.56535C23.3971 3.52124 23.511 3.49854 23.6261 3.49854C23.7412 3.49854 23.8552 3.52124 23.9615 3.56535C24.0678 3.60946 24.1643 3.67411 24.2456 3.7556Z" fill="white"/>
<path id="Vector_2" fill-rule="evenodd" clip-rule="evenodd" d="M3.75706 3.7556C3.67558 3.83688 3.61093 3.93344 3.56682 4.03974C3.52271 4.14604 3.5 4.26001 3.5 4.3751C3.5 4.49019 3.52271 4.60415 3.56682 4.71046C3.61093 4.81676 3.67558 4.91332 3.75706 4.9946L23.0071 24.2446C23.1714 24.4089 23.3942 24.5012 23.6266 24.5012C23.8589 24.5012 24.0818 24.4089 24.2461 24.2446C24.4104 24.0803 24.5027 23.8575 24.5027 23.6251C24.5027 23.3927 24.4104 23.1699 24.2461 23.0056L4.99606 3.7556C4.91478 3.67411 4.81823 3.60946 4.71192 3.56535C4.60562 3.52124 4.49166 3.49854 4.37656 3.49854C4.26147 3.49854 4.14751 3.52124 4.04121 3.56535C3.9349 3.60946 3.83834 3.67411 3.75706 3.7556Z" fill="white"/>
</g>
</svg>
