<svg width="22" height="22" viewBox="0 0 22 22" fill="none" xmlns="http://www.w3.org/2000/svg">
<mask id="mask0_241_10141" style="mask-type:luminance" maskUnits="userSpaceOnUse" x="1" y="1" width="20" height="20">
<path d="M21 1H1V21H21V1Z" fill="white"/>
</mask>
<g mask="url(#mask0_241_10141)">
<path d="M21 1H1V21H21V1Z" fill="#FF0032"/>
<path d="M14.3242 2.53809V3.45852H16.3369V7.15254H17.4619V3.45852H19.4705V2.53809H14.3242Z" fill="white"/>
<path d="M7.08807 2.53809L5.61534 5.58986L4.14675 2.53809H2.53906V7.15254H3.66813V3.85124L5.104 6.64118H6.13079L7.56666 3.85124V7.15254H8.69166V2.53809H7.08807Z" fill="white"/>
<path d="M18.3453 17.9237C18.3167 18.1078 18.243 18.2591 18.1244 18.3737C18.0139 18.48 17.8626 18.5578 17.6744 18.6028C17.4903 18.6437 17.2163 18.6682 16.9299 18.6682C16.6313 18.6682 16.3694 18.6314 16.1444 18.5537C15.9276 18.48 15.7558 18.3491 15.6372 18.1691C15.5144 17.9891 15.4531 17.7273 15.4531 17.3878V16.9173C15.4531 16.5819 15.5144 16.3201 15.6372 16.136C15.7599 15.956 15.9276 15.8251 16.1444 15.7515C16.3654 15.6738 16.6313 15.6369 16.9299 15.6369C17.2163 15.6369 17.4903 15.6615 17.6744 15.7024C17.8626 15.7474 18.0139 15.821 18.1244 15.9314C18.243 16.046 18.3167 16.1973 18.3453 16.3814H19.4703C19.4375 16.001 19.3108 15.6778 19.0858 15.416C18.8812 15.1788 18.5949 15.0069 18.2389 14.9006C17.8953 14.7983 17.4412 14.7451 16.9299 14.7451C16.3899 14.7451 15.9235 14.8228 15.539 14.9742C15.1504 15.1297 14.8477 15.3874 14.639 15.7433C14.4386 16.0828 14.3363 16.541 14.3281 17.0973V17.1505L14.3895 17.1546L14.3281 17.1587V17.1628V17.2119C14.3363 17.7683 14.4386 18.2264 14.639 18.5659C14.8477 18.9218 15.1504 19.1796 15.539 19.335C15.9235 19.4864 16.3899 19.5641 16.9299 19.5641C17.4412 19.5641 17.8953 19.5109 18.2389 19.4087C18.5949 19.3023 18.8771 19.1305 19.0858 18.8932C19.3108 18.6355 19.4416 18.3082 19.4703 17.9278H18.3453V17.9237Z" fill="white"/>
</g>
</svg>
