<svg width="48" height="48" viewBox="0 0 48 48" fill="none" xmlns="http://www.w3.org/2000/svg">
<g id="Arrow - Right">
<g id="Iconly/Light-Outline/Arrow---Right">
<g id="Arrow---Right">
<path id="Combined-Shape" d="M8 23.4508C8 22.6914 8.56431 22.0638 9.29646 21.9645L9.5 21.9508L35.868 21.952L26.342 12.4649C25.755 11.8804 25.7529 10.9307 26.3375 10.3436C26.8688 9.80995 27.7021 9.75974 28.2902 10.1942L28.4588 10.3391L40.5588 22.3871C40.6362 22.4641 40.7034 22.5475 40.7604 22.6356C40.7765 22.6621 40.7929 22.6892 40.8085 22.7168C40.8228 22.7406 40.8357 22.7652 40.8479 22.7901C40.8648 22.8263 40.8814 22.8637 40.8964 22.9019C40.9086 22.9313 40.9188 22.96 40.9281 22.9888C40.9391 23.0246 40.9499 23.0627 40.9591 23.1015C40.966 23.1285 40.9714 23.1545 40.9762 23.1806C40.9828 23.2195 40.9885 23.2597 40.9926 23.3004C40.9961 23.3314 40.9982 23.3622 40.9993 23.393C40.9996 23.4116 41 23.4312 41 23.4508L40.9992 23.5089C40.9981 23.5383 40.9961 23.5678 40.9932 23.5971L41 23.4508C41 23.5455 40.9912 23.6381 40.9745 23.7279C40.9706 23.7493 40.9659 23.7713 40.9608 23.7932C40.9502 23.8384 40.9378 23.8819 40.9237 23.9245C40.9167 23.9457 40.9086 23.9683 40.8999 23.9908C40.8824 24.0359 40.8633 24.0789 40.8424 24.1209C40.8327 24.1406 40.8218 24.1612 40.8103 24.1816C40.7916 24.2149 40.7723 24.2466 40.7519 24.2775C40.7374 24.2993 40.7215 24.322 40.7048 24.3444L40.6919 24.3617C40.6514 24.4145 40.6076 24.4645 40.5607 24.5115L40.5589 24.5129L28.4589 36.5629C27.8719 37.1474 26.9221 37.1455 26.3375 36.5585C25.8061 36.0248 25.7594 35.1914 26.1964 34.6051L26.3419 34.4371L35.864 24.952L9.5 24.9508C8.67157 24.9508 8 24.2792 8 23.4508Z" fill="#1D1D1D"/>
</g>
</g>
</g>
</svg>
