<svg width="18" height="18" viewBox="0 0 18 18" fill="none" xmlns="http://www.w3.org/2000/svg">
<path d="M11.0178 3.57512C10.6211 3.50184 10.2568 3.755 10.1813 4.14224C10.1057 4.52947 10.3597 4.90754 10.7456 4.98332C11.9075 5.20984 12.8046 6.10922 13.032 7.27508C13.0968 7.61069 13.3922 7.85552 13.7325 7.85552C13.7781 7.85552 13.8238 7.85135 13.8703 7.84303C14.2562 7.76558 14.5101 7.38834 14.4346 7.00027C14.0952 5.25897 12.7548 3.91406 11.0178 3.57512Z" fill="#1D8745"/>
<path d="M10.9665 0.6736C10.7806 0.646952 10.5938 0.701914 10.4453 0.820166C10.2926 0.940084 10.1971 1.1133 10.1764 1.30733C10.1324 1.69956 10.4154 2.05432 10.8071 2.09846C13.5085 2.39991 15.6082 4.5043 15.9119 7.21411C15.9526 7.57719 16.2572 7.85117 16.6207 7.85117C16.6481 7.85117 16.6746 7.8495 16.702 7.84617C16.8921 7.82536 17.0614 7.73125 17.1809 7.58136C17.2996 7.43146 17.3535 7.24492 17.3319 7.05422C16.9535 3.67321 14.3368 1.04918 10.9665 0.6736Z" fill="#1D8745"/>
<path fill-rule="evenodd" clip-rule="evenodd" d="M8.19442 9.81032C11.5187 13.1336 12.2728 9.28893 14.3893 11.404C16.4299 13.444 17.6027 13.8527 15.0173 16.4373C14.6935 16.6975 12.636 19.8285 5.40514 12.5997C-1.8266 5.37 1.30262 3.31037 1.56294 2.98662C4.15452 0.394871 4.55619 1.57449 6.59671 3.61444C8.71327 5.73041 4.87018 6.48701 8.19442 9.81032Z" fill="#1D8745"/>
</svg>
