<?xml version="1.0" encoding="utf-8"?>
<svg width="20.002565px" height="19.001282px" viewBox="0 0 20.002565 19.001282" version="1.1" xmlns:xlink="http://www.w3.org/1999/xlink" xmlns="http://www.w3.org/2000/svg">
  <path d="M15.0752 10.9569L15.0751 10.9568L15.0709 10.9609C14.6936 11.3266 14.5209 11.8546 14.6066 12.3717L14.6066 12.3718L14.6078 12.3789L15.4968 17.2985C15.4968 17.2986 15.4968 17.2986 15.4968 17.2987C15.5369 17.5221 15.4428 17.7487 15.2548 17.8786L15.2547 17.8784L15.2438 17.8863C15.0583 18.022 14.81 18.0392 14.6051 17.9293L14.6052 17.9293L14.6001 17.9267L10.1749 15.6187C10.1741 15.6183 10.1734 15.6179 10.1727 15.6175C9.94888 15.4988 9.70277 15.4363 9.45417 15.4292L9.44697 15.429L9.43987 15.429L9.16887 15.429L9.13177 15.429L9.09517 15.4345C8.94737 15.4565 8.80027 15.5037 8.66317 15.578L4.24111 17.8948C4.11812 17.9558 3.98018 17.9776 3.845 17.9574C3.52463 17.8931 3.31092 17.587 3.36174 17.2631L4.25086 12.348L4.25092 12.348L4.25223 12.3401C4.33756 11.8209 4.16545 11.2927 3.79064 10.9237L3.78784 10.921L0.177013 7.4211C0.0140631 7.263 -0.0418069 7.0269 0.0321331 6.81417L0.033463 6.81027C0.107753 6.59075 0.296493 6.43109 0.524063 6.39432L5.48136 5.67516C6.0252 5.61522 6.50144 5.28284 6.74606 4.79361L6.74608 4.79362L6.74824 4.78919L8.93497 0.30581C8.95967 0.25945 8.98867 0.21909 9.02047 0.18553L9.08577 0.13467L9.12037 0.10777L9.14977 0.0752697C9.15467 0.06989 9.16007 0.06464 9.16627 0.0595102L9.22107 0.0393901L9.23027 0.0360401L9.23917 0.03234L9.31777 0L9.61017 0C9.80907 0.02773 9.98157 0.14907 10.0739 0.3261L12.2898 4.78975C12.29 4.79025 12.2902 4.79074 12.2905 4.79124C12.5232 5.26562 12.9739 5.59369 13.4932 5.67323L13.4932 5.67325L13.4971 5.67382L18.4671 6.39482L18.4682 6.39497C18.701 6.42823 18.8962 6.58831 18.975 6.80964C19.0434 7.0246 18.9824 7.2599 18.8167 7.4154L18.8152 7.4169L15.0752 10.9569L15.0752 10.9569Z" id="Star" fill="#FFFFFF" stroke="#EE8F00" stroke-width="1" />
</svg>