<svg width="110" height="22" viewBox="0 0 110 22" fill="none" xmlns="http://www.w3.org/2000/svg">
<path d="M104.424 13.127C104.187 13.3571 104.078 13.6898 104.132 14.0162L104.947 18.5262C105.016 18.9084 104.854 19.2952 104.534 19.5162C104.221 19.7453 103.804 19.7728 103.462 19.5895L99.4019 17.472C99.2607 17.3968 99.104 17.3565 98.9436 17.3519H98.6952C98.609 17.3647 98.5247 17.3922 98.4477 17.4344L94.3868 19.562C94.1861 19.6628 93.9588 19.6986 93.736 19.6628C93.1933 19.5602 92.8313 19.0432 92.9202 18.4977L93.736 13.9877C93.7901 13.6587 93.681 13.3241 93.4436 13.0903L90.1335 9.88199C89.8567 9.61341 89.7604 9.21008 89.8869 8.84616C90.0098 8.48316 90.3233 8.21824 90.7018 8.15866L95.2577 7.49774C95.6042 7.46199 95.9085 7.25116 96.0643 6.93949L98.0718 2.82366C98.1195 2.73199 98.1809 2.64766 98.2552 2.57616L98.3377 2.51199C98.3807 2.46433 98.4303 2.42491 98.4853 2.39283L98.5852 2.35616L98.741 2.29199H99.1269C99.4716 2.32774 99.775 2.53399 99.9336 2.84199L101.968 6.93949C102.114 7.23924 102.399 7.44733 102.729 7.49774L107.284 8.15866C107.669 8.21366 107.991 8.47949 108.118 8.84616C108.239 9.21374 108.135 9.61708 107.853 9.88199L104.424 13.127Z" fill="#FF9900"/>
<path d="M82.4243 13.127C82.1869 13.3571 82.0778 13.6898 82.1319 14.0162L82.9468 18.5262C83.0156 18.9084 82.8542 19.2952 82.5343 19.5162C82.2208 19.7453 81.8038 19.7728 81.4618 19.5895L77.4019 17.472C77.2607 17.3968 77.104 17.3565 76.9436 17.3519H76.6952C76.609 17.3647 76.5247 17.3922 76.4477 17.4344L72.3868 19.562C72.1861 19.6628 71.9588 19.6986 71.736 19.6628C71.1933 19.5602 70.8313 19.0432 70.9202 18.4977L71.736 13.9877C71.7901 13.6587 71.681 13.3241 71.4436 13.0903L68.1335 9.88199C67.8567 9.61341 67.7604 9.21008 67.8869 8.84616C68.0098 8.48316 68.3233 8.21824 68.7018 8.15866L73.2577 7.49774C73.6042 7.46199 73.9085 7.25116 74.0643 6.93949L76.0718 2.82366C76.1195 2.73199 76.1809 2.64766 76.2552 2.57616L76.3377 2.51199C76.3807 2.46433 76.4303 2.42491 76.4853 2.39283L76.5852 2.35616L76.741 2.29199H77.1269C77.4716 2.32774 77.775 2.53399 77.9336 2.84199L79.9677 6.93949C80.1143 7.23924 80.3994 7.44733 80.7285 7.49774L85.2843 8.15866C85.6693 8.21366 85.9911 8.47949 86.1185 8.84616C86.2386 9.21374 86.135 9.61708 85.8527 9.88199L82.4243 13.127Z" fill="#FF9900"/>
<path d="M60.4243 13.127C60.1869 13.3571 60.0778 13.6898 60.1319 14.0162L60.9468 18.5262C61.0156 18.9084 60.8542 19.2952 60.5343 19.5162C60.2208 19.7453 59.8038 19.7728 59.4618 19.5895L55.4019 17.472C55.2607 17.3968 55.104 17.3565 54.9436 17.3519H54.6952C54.609 17.3647 54.5247 17.3922 54.4477 17.4344L50.3868 19.562C50.1861 19.6628 49.9588 19.6986 49.736 19.6628C49.1933 19.5602 48.8313 19.0432 48.9202 18.4977L49.736 13.9877C49.7901 13.6587 49.681 13.3241 49.4436 13.0903L46.1335 9.88199C45.8567 9.61341 45.7604 9.21008 45.8869 8.84616C46.0098 8.48316 46.3233 8.21824 46.7018 8.15866L51.2577 7.49774C51.6042 7.46199 51.9085 7.25116 52.0643 6.93949L54.0718 2.82366C54.1195 2.73199 54.1809 2.64766 54.2552 2.57616L54.3377 2.51199C54.3807 2.46433 54.4303 2.42491 54.4853 2.39283L54.5852 2.35616L54.741 2.29199H55.1269C55.4716 2.32774 55.775 2.53399 55.9336 2.84199L57.9677 6.93949C58.1143 7.23924 58.3994 7.44733 58.7285 7.49774L63.2843 8.15866C63.6693 8.21366 63.9911 8.47949 64.1185 8.84616C64.2386 9.21374 64.135 9.61708 63.8527 9.88199L60.4243 13.127Z" fill="#FF9900"/>
<path d="M38.4243 13.127C38.1869 13.3571 38.0778 13.6898 38.1319 14.0162L38.9468 18.5262C39.0156 18.9084 38.8542 19.2952 38.5343 19.5162C38.2208 19.7453 37.8038 19.7728 37.4618 19.5895L33.4019 17.472C33.2607 17.3968 33.104 17.3565 32.9436 17.3519H32.6952C32.609 17.3647 32.5247 17.3922 32.4477 17.4344L28.3868 19.562C28.1861 19.6628 27.9588 19.6986 27.736 19.6628C27.1933 19.5602 26.8313 19.0432 26.9202 18.4977L27.736 13.9877C27.7901 13.6587 27.681 13.3241 27.4436 13.0903L24.1335 9.88199C23.8567 9.61341 23.7604 9.21008 23.8869 8.84616C24.0098 8.48316 24.3233 8.21824 24.7018 8.15866L29.2577 7.49774C29.6042 7.46199 29.9085 7.25116 30.0643 6.93949L32.0718 2.82366C32.1195 2.73199 32.1809 2.64766 32.2552 2.57616L32.3377 2.51199C32.3807 2.46433 32.4303 2.42491 32.4853 2.39283L32.5852 2.35616L32.741 2.29199H33.1269C33.4716 2.32774 33.775 2.53399 33.9336 2.84199L35.9677 6.93949C36.1143 7.23924 36.3994 7.44733 36.7285 7.49774L41.2843 8.15866C41.6693 8.21366 41.9911 8.47949 42.1185 8.84616C42.2386 9.21374 42.135 9.61708 41.8527 9.88199L38.4243 13.127Z" fill="#FF9900"/>
<path d="M16.4243 13.127C16.1869 13.3571 16.0778 13.6898 16.1319 14.0162L16.9468 18.5262C17.0156 18.9084 16.8542 19.2952 16.5343 19.5162C16.2208 19.7453 15.8038 19.7728 15.4618 19.5895L11.4019 17.472C11.2607 17.3968 11.104 17.3565 10.9436 17.3519H10.6952C10.609 17.3647 10.5247 17.3922 10.4477 17.4344L6.38683 19.562C6.18608 19.6628 5.95875 19.6986 5.736 19.6628C5.19333 19.5602 4.83125 19.0432 4.92017 18.4977L5.736 13.9877C5.79008 13.6587 5.681 13.3241 5.44358 13.0903L2.1335 9.88199C1.85667 9.61341 1.76042 9.21008 1.88692 8.84616C2.00975 8.48316 2.32325 8.21824 2.70183 8.15866L7.25767 7.49774C7.60417 7.46199 7.9085 7.25116 8.06433 6.93949L10.0718 2.82366C10.1195 2.73199 10.1809 2.64766 10.2552 2.57616L10.3377 2.51199C10.3807 2.46433 10.4303 2.42491 10.4853 2.39283L10.5852 2.35616L10.741 2.29199H11.1269C11.4716 2.32774 11.775 2.53399 11.9336 2.84199L13.9677 6.93949C14.1143 7.23924 14.3994 7.44733 14.7285 7.49774L19.2843 8.15866C19.6693 8.21366 19.9911 8.47949 20.1185 8.84616C20.2386 9.21374 20.135 9.61708 19.8527 9.88199L16.4243 13.127Z" fill="#FF9900"/>
</svg>
