<svg width="20" height="18" viewBox="0 0 20 18" fill="none" xmlns="http://www.w3.org/2000/svg">
<path d="M15.4243 11.127C15.1869 11.3571 15.0778 11.6898 15.1319 12.0162L15.9468 16.5262C16.0156 16.9084 15.8542 17.2952 15.5343 17.5162C15.2208 17.7453 14.8038 17.7728 14.4618 17.5895L10.4019 15.472C10.2607 15.3968 10.104 15.3565 9.94358 15.3519H9.69517C9.609 15.3647 9.52467 15.3922 9.44767 15.4344L5.38683 17.562C5.18608 17.6628 4.95875 17.6986 4.736 17.6628C4.19333 17.5602 3.83125 17.0432 3.92017 16.4977L4.736 11.9877C4.79008 11.6587 4.681 11.3241 4.44358 11.0903L1.1335 7.88199C0.856667 7.61341 0.760417 7.21008 0.886917 6.84616C1.00975 6.48316 1.32325 6.21824 1.70183 6.15866L6.25767 5.49774C6.60417 5.46199 6.9085 5.25116 7.06433 4.93949L9.07183 0.823659C9.1195 0.731992 9.18092 0.647659 9.25517 0.576159L9.33767 0.511992C9.38075 0.464326 9.43025 0.424909 9.48525 0.392826L9.58517 0.356159L9.741 0.291992H10.1269C10.4716 0.327742 10.775 0.533992 10.9336 0.841992L12.9677 4.93949C13.1143 5.23924 13.3994 5.44733 13.7285 5.49774L18.2843 6.15866C18.6693 6.21366 18.9911 6.47949 19.1185 6.84616C19.2386 7.21374 19.135 7.61708 18.8527 7.88199L15.4243 11.127Z" fill="#FF9900"/>
</svg>
