<svg width="60" height="52" viewBox="0 0 60 52" fill="none" xmlns="http://www.w3.org/2000/svg">
<g id="Frame" clip-path="url(#clip0_306_1997)">
<path id="Vector" d="M50.38 46.463C48.7985 46.0399 47.4007 45.1071 46.4031 43.809C45.4055 42.5109 44.8638 40.9201 44.862 39.283V22.4C50.349 17.117 53.9901 10.2085 55.247 2.696L55.464 1.396L53.369 1.046L53.153 2.346C51.9321 9.66138 48.3099 16.3619 42.858 21.39H42.738V21.497C40.2679 23.7554 37.4719 25.629 34.444 27.055L32.946 27.759H27.026C23.4228 26.2402 20.1166 24.0962 17.26 21.426V21.391H17.22C11.776 16.308 8.053 9.469 6.923 1.93L6.632 0L4.532 0.314L4.822 2.244C5.98 9.97 9.688 17.011 15.136 22.35V39.283C15.134 40.9199 14.5926 42.5105 13.5954 43.8086C12.5983 45.1068 11.201 46.04 9.62 46.464L0 49.028L0.548 51.079L10.168 48.514C12.2009 47.9694 13.9975 46.7697 15.2796 45.1007C16.5617 43.4317 17.2578 41.3866 17.26 39.282V24.256C20.0095 26.5605 23.0951 28.4311 26.41 29.803C26.539 29.857 26.677 29.883 26.815 29.883H33.185C33.34 29.883 33.495 29.85 33.637 29.783L35.348 28.977C37.9949 27.7303 40.4774 26.1611 42.739 24.305V39.282C42.7413 41.3867 43.4375 43.432 44.7198 45.101C46.0021 46.7699 47.7989 47.9696 49.832 48.514L59.452 51.079L60 49.029L50.38 46.463Z" fill="#DF2E28"/>
<path id="Vector_2" d="M36.6794 11.0855C36.4702 11.2937 36.2144 11.4493 35.9333 11.5393C35.6522 11.6294 35.3537 11.6514 35.0624 11.6035L30.6524 10.8685C30.2197 10.7964 29.7781 10.7964 29.3454 10.8685L24.9354 11.6035C24.6443 11.6511 24.346 11.6289 24.0651 11.5389C23.7842 11.4488 23.5286 11.2935 23.3194 11.0855L21.8164 12.5855C22.2648 13.0329 22.8134 13.3672 23.4166 13.5605C24.0198 13.7539 24.6604 13.8009 25.2854 13.6975L29.6954 12.9635C29.8964 12.9305 30.1024 12.9305 30.3054 12.9635L34.7154 13.6975C35.3399 13.8004 35.9799 13.7532 36.5826 13.5598C37.1853 13.3664 37.7333 13.0325 38.1814 12.5855L36.6794 11.0855Z" fill="#DF2E28"/>
<path id="Vector_3" d="M27.4019 14.572L28.3509 16.472C28.8632 16.2176 29.4275 16.0852 29.9994 16.0852C30.5714 16.0852 31.1357 16.2176 31.6479 16.472L32.5979 14.572C31.7905 14.1714 30.9013 13.9629 29.9999 13.9629C29.0986 13.9629 28.2094 14.1714 27.4019 14.572ZM37.2399 33.5C36.742 33.0016 36.1087 32.6604 35.4186 32.5187C34.7285 32.377 34.012 32.4411 33.3579 32.703L29.9999 34.048L26.6399 32.703C26.0429 32.4634 25.3925 32.3883 24.7565 32.4855C24.1205 32.5827 23.5223 32.8487 23.0241 33.2558C22.5259 33.6629 22.146 34.1962 21.924 34.8C21.7021 35.4038 21.6461 36.0562 21.7619 36.689L23.2689 44.975C23.4192 45.8046 23.8561 46.555 24.5033 47.0953C25.1505 47.6356 25.9669 47.9314 26.8099 47.931H27.8879C28.6579 47.931 29.3899 47.691 30.0009 47.246C30.6142 47.693 31.354 47.933 32.1129 47.931H33.1909C34.0339 47.9313 34.8502 47.6355 35.4972 47.0952C36.1443 46.5549 36.5809 45.8045 36.7309 44.975L38.2379 36.69C38.3422 36.1174 38.306 35.528 38.1325 34.9724C37.9591 34.4168 37.6535 33.9116 37.2419 33.5H37.2399ZM36.1489 36.309L34.6419 44.595C34.5799 44.9352 34.4005 45.2428 34.135 45.4642C33.8695 45.6857 33.5347 45.807 33.1889 45.807H32.1109C31.7159 45.807 31.3459 45.653 31.0679 45.375L30.7489 45.057C30.6506 44.9581 30.5337 44.8795 30.4049 44.8259C30.2761 44.7723 30.138 44.7447 29.9984 44.7447C29.8589 44.7447 29.7208 44.7723 29.592 44.8259C29.4632 44.8795 29.3463 44.9581 29.2479 45.057L28.9289 45.375C28.7921 45.5122 28.6296 45.621 28.4506 45.6951C28.2716 45.7693 28.0797 45.8073 27.8859 45.807H26.8079C26.0949 45.807 25.4829 45.297 25.3559 44.595L23.8499 36.308C23.8022 36.0485 23.825 35.781 23.916 35.5333C24.007 35.2856 24.1627 35.0669 24.3671 34.9C24.5714 34.733 24.8168 34.624 25.0776 34.5843C25.3385 34.5445 25.6052 34.5755 25.8499 34.674L29.6049 36.176C29.8569 36.278 30.1409 36.278 30.3929 36.176L34.1469 34.674C34.4153 34.5663 34.7094 34.5398 34.9926 34.5979C35.2759 34.6561 35.5358 34.7963 35.7399 35.001C36.0829 35.344 36.2349 35.832 36.1489 36.309Z" fill="#DF2E28"/>
<path id="Vector_4" d="M33.1854 37.3154H31.0624V39.4394H33.1854V37.3154ZM28.9394 37.3154H26.8164V39.4394H28.9394V37.3154ZM33.1854 41.5624H31.0624V43.6854H33.1854V41.5624ZM28.9394 41.5624H26.8164V43.6854H28.9394V41.5624Z" fill="#DF2E28"/>
</g>
<defs>
<clipPath id="clip0_306_1997">
<rect width="60" height="52" fill="white"/>
</clipPath>
</defs>
</svg>
