<svg width="60" height="60" viewBox="0 0 60 60" fill="none" xmlns="http://www.w3.org/2000/svg">
<g id="Frame">
<g id="Group">
<path id="Vector" d="M27.5608 8.64288L26.4182 4.55999C26.3918 4.46577 26.3843 4.36728 26.396 4.27015C26.4077 4.17301 26.4384 4.07914 26.4864 3.99388C26.5344 3.90863 26.5988 3.83366 26.6757 3.77327C26.7527 3.71288 26.8408 3.66823 26.935 3.6419L29.1346 3.02746C29.3248 2.97434 29.5283 2.99891 29.7004 3.09577C29.8725 3.19264 29.9991 3.35387 30.0523 3.54402L31.1345 7.41095M35.6489 7.86995L37.2007 4.4501C37.2823 4.2703 37.4319 4.13024 37.6167 4.06072C37.8015 3.9912 38.0063 3.99791 38.1862 4.07937L40.2663 5.0215C40.3554 5.06188 40.4357 5.11942 40.5026 5.19085C40.5695 5.26227 40.6217 5.34618 40.6561 5.43777C40.6906 5.52936 40.7066 5.62684 40.7034 5.72464C40.7001 5.82244 40.6777 5.91865 40.6372 6.00776L38.8471 9.95279" stroke="#DF2E28" stroke-width="2" stroke-miterlimit="10" stroke-linecap="round" stroke-linejoin="round"/>
<path id="Vector_2" d="M23.9766 12.9297C25.4335 9.99663 28.0653 7.27511 32.809 7.4785C36.9457 7.65589 39.2546 10.106 40.5393 12.9298M42.8985 20.9262C43.7371 18.9185 44.9593 17.0702 46.4923 15.5247C46.9632 13.4484 43.5819 10.8137 42.3812 11.7318C40.376 13.2651 38.4744 14.8834 36.3935 17.49" stroke="#DF2E28" stroke-width="2" stroke-miterlimit="10" stroke-linecap="round" stroke-linejoin="round"/>
<path id="Vector_3" d="M47.2583 38.7227C47.1333 36.7294 47.0124 34.996 47.039 33.8265C47.274 23.5266 42.5494 16.8815 29.9964 16.8815C29.9349 16.8815 29.8736 16.8818 29.8126 16.8824M15.1787 40.9781C16.4365 43.5867 18.5781 46.3962 22.1259 49.1102C34.069 58.2472 41.0974 58.9118 45.066 55.0908C47.3951 52.8483 47.6344 47.469 47.4555 42.4945M16.4412 15.3484C16.3402 12.8894 15.705 10.4513 14.5742 8.26416C14.7471 6.14232 18.7628 4.63972 19.6334 5.87481C21.0236 7.84733 22.3002 9.86583 23.4623 12.7578" stroke="#DF2E28" stroke-width="2" stroke-miterlimit="10" stroke-linecap="round" stroke-linejoin="round"/>
<path id="Vector_4" d="M13.4558 20.4805C11.4669 27.7677 11.0611 34.3531 15.1767 40.9779C16.9467 43.8269 26.6096 32.0543 29.0678 26.4922C31.8077 20.2925 30.6383 13.8616 23.3932 12.9927C19.3462 12.5074 16.5366 14.909 14.9478 17.2695M26.6404 31.4973C27.1158 33.1187 28.4289 34.3504 29.7925 35.3479C31.1562 36.3454 32.6459 37.2135 33.7528 38.4901C36.5203 41.6818 36.282 46.6429 38.8643 49.9863" stroke="#DF2E28" stroke-width="2" stroke-miterlimit="10" stroke-linecap="round" stroke-linejoin="round"/>
<path id="Vector_5" d="M28.6055 33.8858C30.1433 31.9536 32.6211 31.0815 34.964 30.3008L37.7151 29.3841M33.3574 30.4486C33.1669 29.0251 33.6279 27.5273 34.5856 26.457" stroke="#DF2E28" stroke-width="2" stroke-miterlimit="10" stroke-linecap="round" stroke-linejoin="round"/>
<path id="Vector_6" d="M31.4821 32.1289C32.7888 33.0268 34.3446 33.5581 35.9275 33.647M30.0013 35.8372C29.1582 38.9614 26.7584 41.6236 23.7383 42.7854M27.777 40.4629C28.4981 41.7004 28.9136 43.0921 28.989 44.5224" stroke="#DF2E28" stroke-width="2" stroke-miterlimit="10" stroke-linecap="round" stroke-linejoin="round"/>
<path id="Vector_7" d="M28.6387 38.7202C27.8255 38.2647 26.9247 37.9872 25.9961 37.9062M35.838 41.749C37.583 41.4323 39.376 41.5 41.0921 41.9473M35.8001 43.2451C34.3197 44.3865 33.2834 46.0894 32.95 47.9287M38.8887 41.1854C39.0163 40.2533 39.4597 39.3675 40.1294 38.7067M37.669 47.1833C38.8559 47.0438 40.0589 47.1916 41.1768 47.6142" stroke="#DF2E28" stroke-width="2" stroke-miterlimit="10" stroke-linecap="round" stroke-linejoin="round"/>
</g>
</g>
</svg>
