<svg width="36" height="60" viewBox="0 0 36 60" fill="none" xmlns="http://www.w3.org/2000/svg">
<g id="Frame" clip-path="url(#clip0_306_2973)">
<path id="Vector" d="M19.9241 40.6064C19.1541 40.6064 18.4001 40.8264 17.7511 41.2304C17.099 40.824 16.3464 40.6079 15.5781 40.6064C13.2821 40.6064 11.4141 42.5084 11.4141 44.8464C11.4141 46.1734 12.3721 47.7704 14.3421 49.7304C15.1943 50.5721 16.0948 51.3635 17.0391 52.1004C17.2436 52.257 17.494 52.3419 17.7516 52.3419C18.0091 52.3419 18.2595 52.257 18.4641 52.1004C19.408 51.3635 20.3082 50.5722 21.1601 49.7304C23.1301 47.7704 24.0881 46.1734 24.0881 44.8474C24.0881 42.5084 22.2201 40.6064 19.9241 40.6064ZM17.7511 49.6694C15.7111 47.9794 13.7601 45.8084 13.7601 44.8474C13.7601 43.8024 14.5761 42.9524 15.5781 42.9524C16.0781 42.9524 16.5431 43.1594 16.8881 43.5344C16.9979 43.6536 17.1313 43.7487 17.2797 43.8138C17.4282 43.8789 17.5885 43.9124 17.7506 43.9124C17.9126 43.9124 18.073 43.8789 18.2214 43.8138C18.3699 43.7487 18.5032 43.6536 18.6131 43.5344C18.7788 43.3513 18.9811 43.2049 19.2069 43.1046C19.4327 43.0044 19.677 42.9525 19.9241 42.9524C20.9271 42.9524 21.7421 43.8024 21.7421 44.8474C21.7421 45.8064 19.7901 47.9774 17.7511 49.6694Z" fill="#DF2E28"/>
<path id="Vector_2" d="M16.1997 31.603C15.4387 30.946 14.5317 30.66 13.6437 30.798C8.13071 31.65 5.50271 35.958 5.39371 36.142C5.24247 36.4087 5.20166 36.724 5.28001 37.0204C5.35837 37.3168 5.54965 37.5708 5.81291 37.7279C6.07618 37.885 6.39049 37.9328 6.68857 37.8611C6.98664 37.7893 7.24478 37.6037 7.40771 37.344C7.42871 37.308 9.56771 33.801 14.0017 33.116C14.2677 33.076 14.5317 33.264 14.6667 33.379C15.0817 33.737 15.3697 34.332 15.3667 34.825C15.3666 35.0547 15.2945 35.2786 15.1605 35.4652C15.0265 35.6517 14.8374 35.7916 14.6197 35.865C12.4327 36.591 10.9267 37.455 10.1437 38.43L5.65171 44.02C5.18871 44.597 4.54971 44.916 3.90171 44.894C3.77611 44.895 3.6518 44.8686 3.53746 44.8166C3.42311 44.7646 3.3215 44.6883 3.23971 44.593C2.11071 43.36 2.33471 39.342 2.42971 37.626C2.44471 37.361 2.45771 37.121 2.46671 36.914C2.92671 26.315 7.05971 23.296 13.5787 21.861L13.9827 21.772C14.1368 21.7427 14.2835 21.6827 14.414 21.5956C14.5446 21.5086 14.6563 21.3963 14.7427 21.2653C14.829 21.1343 14.8882 20.9873 14.9167 20.833C14.9453 20.6787 14.9426 20.5203 14.9088 20.3671C14.875 20.2139 14.8108 20.069 14.72 19.941C14.6293 19.8131 14.5137 19.7046 14.3803 19.6221C14.2469 19.5396 14.0982 19.4846 13.9432 19.4606C13.7882 19.4365 13.6299 19.4438 13.4777 19.482L13.0747 19.57C8.74071 20.524 5.76871 22.162 3.72271 24.724C1.50371 27.503 0.359708 31.344 0.122708 36.812C0.114708 37.012 0.101708 37.242 0.0877081 37.496C-0.0932919 40.746 -0.147292 44.366 1.50771 46.176C1.81669 46.5196 2.1961 46.7926 2.62009 46.9764C3.04408 47.1602 3.5027 47.2504 3.96471 47.241C4.04671 47.241 4.12871 47.239 4.21071 47.234C4.23971 49.144 4.67371 50.978 5.50471 52.689C5.57071 52.8296 5.664 52.9558 5.77916 53.0601C5.89431 53.1644 6.02904 53.2448 6.17552 53.2965C6.32199 53.3483 6.4773 53.3705 6.63242 53.3618C6.78754 53.3531 6.93938 53.3136 7.07913 53.2458C7.21888 53.1779 7.34375 53.0829 7.44649 52.9663C7.54923 52.8498 7.6278 52.714 7.67762 52.5669C7.72745 52.4197 7.74755 52.2641 7.73675 52.1091C7.72595 51.9541 7.68446 51.8028 7.61471 51.664C6.91201 50.2202 6.54908 48.6347 6.55371 47.029V46.379C6.89171 46.131 7.20371 45.833 7.48071 45.489L11.9707 39.899C12.4477 39.308 13.6817 38.649 15.3597 38.09C16.0424 37.8619 16.6364 37.4257 17.0583 36.8425C17.4801 36.2594 17.7087 35.5587 17.7117 34.839C17.7197 33.653 17.1397 32.414 16.1987 31.603H16.1997ZM9.46971 54.342L9.43971 54.31C9.33557 54.1933 9.20915 54.0986 9.06788 54.0315C8.92661 53.9644 8.77334 53.9262 8.61709 53.9192C8.46084 53.9121 8.30476 53.9364 8.15804 53.9906C8.01133 54.0448 7.87693 54.1278 7.76276 54.2347C7.64859 54.3416 7.55695 54.4703 7.49323 54.6131C7.42952 54.756 7.39501 54.9101 7.39174 55.0665C7.38848 55.2229 7.41652 55.3783 7.47422 55.5237C7.53191 55.6691 7.6181 55.8014 7.72771 55.913L7.77771 55.966C7.88416 56.0774 8.01157 56.1667 8.15262 56.2287C8.29367 56.2908 8.44559 56.3243 8.59964 56.3275C8.7537 56.3306 8.90687 56.3033 9.05034 56.2471C9.19382 56.1909 9.32478 56.107 9.43571 56C9.90371 55.552 9.91771 54.81 9.46971 54.342ZM28.1697 21.794C26.4671 20.71 24.5913 19.926 22.6237 19.476C22.3232 19.4134 22.0101 19.4711 21.7517 19.6367C21.4933 19.8023 21.31 20.0626 21.2413 20.3618C21.1726 20.661 21.2239 20.9751 21.3842 21.2369C21.5445 21.4987 21.801 21.6872 22.0987 21.762C23.8055 22.1524 25.4328 22.8326 26.9097 23.773C27.1721 23.9401 27.4902 23.9961 27.7939 23.9287C28.0976 23.8612 28.3621 23.6759 28.5292 23.4135C28.6963 23.1511 28.7523 22.833 28.6849 22.5293C28.6174 22.2256 28.4321 21.9611 28.1697 21.794ZM31.4557 24.501L31.3937 24.437C31.1776 24.2132 30.8813 24.0843 30.5702 24.0789C30.2591 24.0735 29.9586 24.1918 29.7347 24.408C29.5109 24.6242 29.3821 24.9204 29.3766 25.2315C29.3712 25.5426 29.4896 25.8432 29.7057 26.067L29.7587 26.121C29.8648 26.2327 29.992 26.3224 30.1328 26.3849C30.2737 26.4474 30.4255 26.4814 30.5796 26.485C30.7337 26.4886 30.8869 26.4618 31.0306 26.406C31.1742 26.3502 31.3055 26.2666 31.4167 26.16C31.8847 25.713 31.9027 24.97 31.4557 24.501ZM34.0817 28.041C34.0085 27.9022 33.9083 27.7796 33.7868 27.6802C33.6654 27.5809 33.5253 27.5069 33.3748 27.4627C33.2243 27.4185 33.0664 27.4049 32.9105 27.4228C32.7547 27.4407 32.604 27.4896 32.4674 27.5667C32.3308 27.6439 32.211 27.7476 32.1152 27.8718C32.0195 27.9961 31.9495 28.1383 31.9097 28.29C31.8698 28.4417 31.8608 28.5999 31.8831 28.7552C31.9054 28.9104 31.9587 29.0597 32.0397 29.194C33.2227 31.29 33.3167 33.747 33.3167 36.742V40.316C33.3167 44.443 32.3717 50.24 27.8687 54.42C27.0437 55.185 25.4587 55.96 23.2847 56.662L23.0547 56.723C22.7997 56.7756 22.5365 56.7739 22.2822 56.7181C22.0279 56.6623 21.7882 56.5536 21.5787 56.399C21.3392 56.226 21.1447 55.9982 21.0112 55.7346C20.8778 55.4711 20.8094 55.1794 20.8117 54.884C20.8112 54.4804 20.9419 54.0875 21.1841 53.7646C21.4264 53.4417 21.767 53.2064 22.1547 53.094C24.2367 52.477 25.7327 51.755 26.6007 50.949C29.6977 48.075 29.5377 43.627 29.3957 39.702C29.3657 38.856 29.3367 38.057 29.3367 37.273C29.3367 37.19 29.3277 37.108 29.3107 37.029C29.5527 36.58 29.7147 36.115 29.7937 35.629C30.1477 33.441 28.7277 31.592 27.5867 30.106C27.1347 29.518 26.4537 28.63 26.4467 28.316C26.4467 28.0049 26.3231 27.7065 26.1031 27.4866C25.8832 27.2666 25.5848 27.143 25.2737 27.143C24.9626 27.143 24.6643 27.2666 24.4443 27.4866C24.2243 27.7065 24.1007 28.0049 24.1007 28.316C24.1007 29.419 24.8537 30.399 25.7257 31.535C26.6377 32.721 27.6707 34.066 27.4777 35.255C27.3527 36.026 26.6987 36.817 25.5347 37.604C25.2833 37.7808 25.1114 38.0493 25.0559 38.3516C25.0004 38.6539 25.0658 38.9659 25.238 39.2205C25.4101 39.4751 25.6754 39.6519 25.9766 39.713C26.2778 39.7741 26.591 39.7145 26.8487 39.547C26.9137 39.503 26.9757 39.459 27.0387 39.414L27.0517 39.786C27.1817 43.376 27.3147 47.086 25.0057 49.23C24.4217 49.772 23.1727 50.345 21.4887 50.844C20.6154 51.0978 19.8483 51.6286 19.303 52.3564C18.7577 53.0842 18.4639 53.9696 18.4657 54.879C18.4637 55.839 18.7757 56.738 19.3437 57.467C17.9997 57.648 17.1917 57.654 17.1787 57.654C15.4537 57.654 13.7407 57.231 12.2267 56.432C11.9515 56.2868 11.63 56.2568 11.3327 56.3487C11.0355 56.4406 10.7869 56.6468 10.6417 56.922C10.4965 57.1972 10.4666 57.5187 10.5584 57.816C10.6503 58.1132 10.8565 58.3618 11.1317 58.507C12.9966 59.4873 15.0718 59.9997 17.1787 60C17.2897 60 19.8757 59.988 23.6207 59C23.7007 58.983 23.7787 58.96 23.8577 58.937C23.8827 58.931 23.9067 58.925 23.9307 58.917C23.9367 58.917 23.9427 58.914 23.9487 58.912L23.9807 58.903C26.5267 58.083 28.3717 57.154 29.4647 56.14C33.5197 52.376 35.6637 46.904 35.6637 40.316V36.742C35.6637 33.512 35.5437 30.629 34.0817 28.041ZM17.7647 0C16.4147 0 15.1347 0.298 13.9807 0.827C12.9514 0.133995 11.6948 -0.136265 10.4716 0.0722612C9.24835 0.280788 8.1523 0.952103 7.41071 1.947C6.64907 2.97424 6.3259 4.2616 6.51204 5.52677C6.69819 6.79195 7.37847 7.93167 8.40371 8.696C8.48671 8.758 8.57571 8.806 8.66771 8.843C8.66571 8.93 8.66171 9.016 8.66171 9.103V10.544C8.66171 15.564 12.7447 19.647 17.7647 19.647C22.7837 19.647 26.8667 15.564 26.8667 10.544V9.103C26.8667 4.083 22.7837 0 17.7647 0ZM9.29271 3.346C9.5599 2.98708 9.91922 2.70714 10.3326 2.53585C10.746 2.36455 11.198 2.30828 11.6407 2.373C10.518 3.39524 9.66798 4.6814 9.16771 6.115C8.91028 5.69335 8.78464 5.20442 8.80691 4.7109C8.82919 4.21738 8.99835 3.74275 9.29271 3.346ZM17.7647 17.3C14.2947 17.3 11.4287 14.67 11.0507 11.3C12.8157 11.167 16.6357 10.62 19.1707 8.366C20.9227 10.332 23.3197 11.012 24.4857 11.236C24.1377 14.637 21.2557 17.3 17.7647 17.3ZM20.2897 5.936C20.1919 5.76807 20.054 5.62706 19.8882 5.52564C19.7224 5.42422 19.5341 5.36557 19.3401 5.35496C19.146 5.34435 18.9524 5.38212 18.7766 5.46486C18.6007 5.5476 18.4482 5.67273 18.3327 5.829C16.5757 8.205 12.7597 8.799 11.0117 8.948C11.0937 5.294 14.0907 2.346 17.7637 2.346C21.4037 2.346 24.3777 5.238 24.5137 8.844C23.3777 8.566 21.3917 7.827 20.2897 5.936Z" fill="#DF2E28"/>
</g>
<defs>
<clipPath id="clip0_306_2973">
<rect width="36" height="60" fill="white"/>
</clipPath>
</defs>
</svg>
