<svg width="50" height="60" viewBox="0 0 50 60" fill="none" xmlns="http://www.w3.org/2000/svg">
<g id="Frame" clip-path="url(#clip0_306_2967)">
<path id="Vector" d="M14.5731 46.931H9.78913C9.15583 46.9327 8.52849 46.8087 7.94347 46.5662C7.35846 46.3236 6.82742 45.9673 6.38113 45.518C5.93228 45.0711 5.57661 44.5396 5.33474 43.9543C5.09287 43.3689 4.96962 42.7414 4.97213 42.108L4.98513 32.433C4.98557 32.2727 4.9422 32.1153 4.85973 31.9778C4.77725 31.8404 4.65878 31.7281 4.51713 31.653L1.76113 30.2L5.14013 24.31C5.38013 23.89 5.50713 23.413 5.50713 22.93V16.33C5.50713 14.7 6.18013 13.115 7.35313 11.982L8.01613 11.342H11.4241C15.7411 11.342 19.2541 14.853 19.2541 19.17V19.189C19.2541 19.4224 19.3468 19.6462 19.5119 19.8113C19.6769 19.9763 19.9007 20.069 20.1341 20.069C20.3675 20.069 20.5914 19.9763 20.7564 19.8113C20.9214 19.6462 21.0141 19.4224 21.0141 19.189V19.17C21.0141 13.882 16.7121 9.58 11.4241 9.58H7.82113C6.97064 9.57894 6.15529 9.24062 5.5539 8.63923C4.95251 8.03784 4.61419 7.22249 4.61313 6.372V2.18C4.61313 1.95 4.80013 1.762 5.03113 1.762H24.4531C29.9091 1.762 35.2121 3.692 39.3861 7.195C39.565 7.34511 39.7962 7.41801 40.0289 7.39767C40.2615 7.37732 40.4765 7.26539 40.6266 7.0865C40.7767 6.90761 40.8496 6.67642 40.8293 6.44378C40.8089 6.21114 40.697 5.99611 40.5181 5.846C36.0154 2.07193 30.3283 0.00242836 24.4531 0L5.03113 0C4.45321 0.000264735 3.89902 0.22989 3.49028 0.638446C3.08154 1.047 2.85166 1.60108 2.85113 2.179V6.372C2.85225 7.35033 3.14168 8.30663 3.68326 9.12139C4.22483 9.93615 4.99452 10.5732 5.89613 10.953C4.52013 12.4057 3.75104 14.3291 3.74613 16.33V22.93C3.74613 23.107 3.70013 23.28 3.61213 23.433L0.234128 29.323C-0.00587194 29.741 -0.0628719 30.225 0.0701281 30.686C0.204128 31.148 0.511128 31.526 0.936128 31.751L3.22213 32.961L3.21013 42.105C3.20662 42.97 3.37488 43.827 3.70516 44.6264C4.03543 45.4258 4.52115 46.1517 5.13413 46.762C5.74354 47.3757 6.46872 47.8623 7.26762 48.1936C8.06653 48.5249 8.92325 48.6943 9.78813 48.692H13.6911V59.12C13.6911 59.2356 13.7139 59.3501 13.7582 59.457C13.8024 59.5638 13.8673 59.6608 13.949 59.7426C14.0308 59.8244 14.1278 59.8892 14.2347 59.9335C14.3415 59.9777 14.456 60.0005 14.5716 60.0005C14.6873 60.0005 14.8018 59.9777 14.9086 59.9335C15.0154 59.8892 15.1125 59.8244 15.1942 59.7426C15.276 59.6608 15.3409 59.5638 15.3851 59.457C15.4294 59.3501 15.4521 59.2356 15.4521 59.12V47.81C15.4521 47.5766 15.3594 47.3528 15.1944 47.1877C15.0293 47.0227 14.8055 46.93 14.5721 46.93L14.5731 46.931Z" fill="#DF2E28"/>
<path id="Vector_2" d="M43.2932 8.56686C43.1397 8.39102 42.9225 8.28339 42.6896 8.26763C42.4567 8.25188 42.2271 8.3293 42.0512 8.48286C41.8754 8.63642 41.7677 8.85354 41.752 9.08646C41.7362 9.31938 41.8137 9.54902 41.9672 9.72486C44.3444 12.4479 46.0533 15.6881 46.9577 19.1878C47.8622 22.6875 47.9374 26.35 47.1772 29.8839L43.3742 29.4709C43.1422 29.4457 42.9096 29.5137 42.7277 29.66C42.5458 29.8062 42.4294 30.0188 42.4042 30.2509C42.379 30.4829 42.447 30.7155 42.5933 30.8974C42.7396 31.0793 42.9522 31.1957 43.1842 31.2209L46.7362 31.6069C45.4862 35.8268 43.0636 39.605 39.7502 42.5019L35.4092 46.2979C35.284 46.4079 35.1383 46.492 34.9803 46.5452C34.8224 46.5984 34.6555 46.6197 34.4892 46.6079C34.3232 46.5969 34.1609 46.553 34.0119 46.4788C33.8629 46.4047 33.7301 46.3017 33.6212 46.1759L28.1802 39.9279C27.9621 39.6758 27.8518 39.3481 27.8731 39.0155C27.8945 38.6829 28.0457 38.372 28.2942 38.1499L31.5002 35.3019C31.9878 34.8686 32.3781 34.3369 32.6454 33.742C32.9127 33.147 33.051 32.5021 33.0512 31.8499V30.1229L39.3472 30.8059C39.4621 30.8183 39.5784 30.8081 39.6893 30.7756C39.8002 30.7432 39.9037 30.6892 39.9938 30.6168C40.0838 30.5443 40.1588 30.4549 40.2143 30.3535C40.2698 30.2521 40.3047 30.1408 40.3172 30.0259C40.3297 29.911 40.3194 29.7947 40.287 29.6838C40.2545 29.5728 40.2005 29.4694 40.1281 29.3793C40.0557 29.2892 39.9662 29.2143 39.8648 29.1588C39.7634 29.1033 39.6521 29.0683 39.5372 29.0559L32.8122 28.3259C32.504 27.4087 31.9159 26.6114 31.1307 26.0461C30.3455 25.4809 29.4027 25.1761 28.4352 25.1749C27.2111 25.1762 26.0375 25.663 25.172 26.5286C24.3064 27.3942 23.8195 28.5678 23.8182 29.7919V31.4819L21.1662 33.3749C21.1512 33.3859 21.1192 33.4099 21.0662 33.3829C21.0142 33.3559 21.0142 33.3159 21.0142 33.2969V22.9399C21.0142 22.7065 20.9215 22.4826 20.7565 22.3176C20.5914 22.1526 20.3676 22.0599 20.1342 22.0599C19.9008 22.0599 19.677 22.1526 19.512 22.3176C19.3469 22.4826 19.2542 22.7065 19.2542 22.9399V33.2959C19.2533 33.6371 19.3468 33.9719 19.5244 34.2632C19.7019 34.5546 19.9566 34.7912 20.2602 34.9469C20.5635 35.104 20.9043 35.174 21.245 35.1493C21.5856 35.1246 21.9128 35.0061 22.1902 34.8069L25.2102 32.6499C25.3242 32.5683 25.4171 32.4607 25.4811 32.336C25.5451 32.2112 25.5784 32.073 25.5782 31.9329V29.7909C25.5793 29.0336 25.8807 28.3076 26.4162 27.7722C26.9518 27.2368 27.6779 26.9357 28.4352 26.9349C29.1922 26.9359 29.9178 27.237 30.4532 27.7722C30.9885 28.3073 31.2899 29.0329 31.2912 29.7899V31.8499C31.2912 32.6649 30.9412 33.4429 30.3312 33.9849L27.1252 36.8319C26.5312 37.3628 26.1696 38.1059 26.1185 38.901C26.0675 39.696 26.331 40.4793 26.8522 41.0819L32.2932 47.3319C32.5402 47.6139 32.8312 47.8439 33.1522 48.0149V59.1199C33.1522 59.2354 33.175 59.3499 33.2192 59.4566C33.2634 59.5634 33.3282 59.6604 33.41 59.7421C33.4917 59.8238 33.5887 59.8886 33.6955 59.9329C33.8022 59.9771 33.9167 59.9999 34.0322 59.9999C34.1478 59.9999 34.2622 59.9771 34.369 59.9329C34.4757 59.8886 34.5728 59.8238 34.6545 59.7421C34.7362 59.6604 34.801 59.5634 34.8452 59.4566C34.8895 59.3499 34.9122 59.2354 34.9122 59.1199V48.3499C35.5259 48.2831 36.1041 48.0289 36.5682 47.6219L40.9102 43.8259C45.899 39.4643 48.9523 33.3006 49.3991 26.689C49.846 20.0775 47.6498 13.559 43.2932 8.56586V8.56686ZM11.8052 40.1939H8.07922C7.84583 40.1939 7.622 40.2866 7.45696 40.4516C7.29193 40.6166 7.19922 40.8405 7.19922 41.0739C7.19922 41.3073 7.29193 41.5311 7.45696 41.6961C7.622 41.8611 7.84583 41.9539 8.07922 41.9539H11.8052C13.3382 41.9557 14.8079 42.5657 15.8917 43.6498C16.9755 44.734 17.5849 46.2039 17.5862 47.7369V56.7049C17.5862 56.9384 17.679 57.1623 17.8441 57.3275C18.0092 57.4926 18.2332 57.5854 18.4667 57.5854C18.7002 57.5854 18.9242 57.4926 19.0893 57.3275C19.2545 57.1623 19.3472 56.9384 19.3472 56.7049V47.7369C19.3472 43.5769 15.9632 40.1939 11.8042 40.1939H11.8052Z" fill="#DF2E28"/>
<path id="Vector_3" d="M12.9541 36.2461H7.95813C7.72473 36.2461 7.5009 36.3388 7.33587 36.5038C7.17084 36.6689 7.07812 36.8927 7.07812 37.1261C7.07812 37.3595 7.17084 37.5833 7.33587 37.7483C7.5009 37.9134 7.72473 38.0061 7.95813 38.0061H12.9531C19.8631 38.0061 25.4831 43.6281 25.4831 50.5371V56.7051C25.4831 56.9386 25.5759 57.1626 25.741 57.3277C25.9061 57.4928 26.1301 57.5856 26.3636 57.5856C26.5971 57.5856 26.8211 57.4928 26.9862 57.3277C27.1514 57.1626 27.2441 56.9386 27.2441 56.7051V50.5371C27.2441 42.6571 20.8341 36.2461 12.9531 36.2461H12.9541Z" fill="#DF2E28"/>
</g>
<defs>
<clipPath id="clip0_306_2967">
<rect width="50" height="60" fill="white"/>
</clipPath>
</defs>
</svg>
