<svg width="60" height="60" viewBox="0 0 60 60" fill="none" xmlns="http://www.w3.org/2000/svg">
<g id="Frame" clip-path="url(#clip0_306_1806)">
<path id="Vector" d="M57.6301 24.6475C57.5638 25.8448 55.7365 25.7865 55.7647 24.5871C55.7667 24.4865 55.7778 24.3818 55.7989 24.2721C55.8995 23.7358 55.6711 23.2821 55.18 22.943C54.9426 22.779 54.7485 22.464 54.6659 22.1793C54.3178 20.9809 54.3208 19.7583 54.6519 18.561C54.7414 18.238 55.0654 17.9844 55.2576 17.6836C55.4558 17.3727 55.7597 17.0517 55.7817 16.7196C55.8372 15.8885 55.811 15.0433 55.7255 14.2132C55.5242 12.2662 53.9314 10.7237 51.8315 10.4983C50.0606 10.3081 48.2453 11.2399 47.5208 13.046C47.2472 13.7272 47.0843 14.503 47.0822 15.2365C47.0531 23.1331 47.0771 31.0298 47.0499 38.9264C47.0469 39.7988 46.9172 40.7023 46.6616 41.5355C46.0709 43.4643 44.622 44.4977 42.6891 44.7513C41.385 44.9223 40.0499 44.8801 38.7278 44.8931C37.0384 44.9092 35.3469 44.9173 33.6575 44.871C31.2859 44.8066 29.2162 43.1806 28.6758 40.8704C28.5622 40.3824 28.4021 39.996 27.9473 39.7223C27.3808 39.3802 27.1293 38.7976 27.071 38.1607C27.0417 37.8467 26.907 37.7753 26.6393 37.7381C25.5939 37.5932 25.3303 37.3074 25.2377 36.262C25.2055 35.8977 25.1601 35.5345 25.137 35.1693C25.0998 34.5786 25.3434 34.0091 25.772 33.6006C26.3163 33.0824 26.2348 32.7715 25.5164 32.5793C23.4145 32.0148 21.6203 30.9885 20.3767 29.1431C19.5305 27.8884 19.0897 26.4979 19.0877 24.9855C19.0827 19.3357 19.0727 13.687 19.1029 8.03716C19.123 4.18947 21.875 0.955549 25.6633 0.348813C28.5964 -0.121081 31.5706 -0.207614 34.4252 0.667777C37.4086 1.58342 39.1886 3.74473 39.6686 6.85589C39.8336 7.92346 39.8286 9.02424 39.8336 10.1099C39.8507 14.2001 39.8415 18.2913 39.8365 22.3825C39.8365 22.631 39.8185 22.8896 39.7521 23.1271C39.6354 23.5427 39.3235 23.6845 38.9009 23.6624C38.4883 23.6403 38.2377 23.442 38.1562 23.0516C38.1119 22.8413 38.114 22.619 38.114 22.4016C38.111 17.7922 38.1411 13.1829 38.0978 8.57347C38.0777 6.37895 37.3181 4.47623 35.4667 3.14C34.4503 2.40649 33.2933 1.97181 32.0557 1.94363C30.1318 1.89936 28.1908 1.83798 26.2841 2.04124C23.188 2.36926 20.9572 4.81733 20.8757 7.92547C20.7731 11.8456 20.7953 15.7698 20.7883 19.6919C20.7843 21.5182 20.7983 23.3464 20.8737 25.1717C20.9743 27.5996 22.5621 29.7137 24.8643 30.4904C27.9896 31.5449 31.135 31.5349 34.2432 30.4069C36.173 29.7066 37.3582 28.2909 37.9187 26.3177C38.0264 25.9404 38.2518 25.553 38.5325 25.2834C38.6955 25.1274 39.1383 25.0872 39.3416 25.1989C39.5408 25.3095 39.7439 25.715 39.6916 25.9283C39.4652 26.845 39.2581 27.7969 38.8365 28.63C37.8242 30.6293 36.0392 31.716 33.9694 32.3911C33.7158 32.4737 33.4542 32.532 33.1996 32.6155C32.7458 32.7644 32.6221 33.0643 32.941 33.3994C33.7027 34.2003 33.8196 35.1683 33.7521 36.1946C33.7069 36.8728 33.3949 37.3839 32.7208 37.5882C32.1925 37.7481 31.8243 37.9423 31.7659 38.6074C31.7115 39.2383 31.2003 39.6358 30.661 39.9588C30.5352 40.0342 30.4136 40.2606 30.4277 40.4035C30.5675 41.8102 31.7568 42.9884 33.1574 43.0065C36.1901 43.0468 39.2237 42.9995 42.2564 43.0427C43.8432 43.0649 45.2369 41.5405 45.259 39.9286C45.3013 36.7943 45.3174 33.66 45.3244 30.5247C45.3344 26.1487 45.3083 21.7728 45.3365 17.3978C45.3455 16.0143 45.3365 14.6046 45.587 13.2543C46.0277 10.8847 48.3177 9.05241 50.7185 8.74955C53.7281 8.36921 57.0134 10.4671 57.443 13.8852C57.5638 14.8431 57.4994 15.8251 57.4974 16.7961C57.4974 17.0597 57.5417 17.2268 57.8113 17.3354C58.6555 17.6775 59.0188 18.3567 59.0449 19.2311C59.064 19.867 59.0691 20.5049 59.0459 21.1409C59.0157 21.9639 58.7219 22.6693 58.0317 23.1724C57.7136 23.4038 57.5376 23.6916 57.602 24.1162C57.6301 24.3003 57.6393 24.4784 57.6301 24.6475ZM31.8634 35.1441H27.0558V35.8786H31.8634V35.1441ZM56.2688 20.3258H56.2668C56.2668 20.6096 56.2939 20.8964 56.2607 21.1761C56.2094 21.6037 56.4207 21.6842 56.785 21.6812C57.1744 21.6782 57.3485 21.5474 57.3122 21.1056C57.276 20.6639 57.2629 20.2202 57.3052 19.7785C57.3525 19.2854 57.2901 19.0077 56.788 19.0007C56.3553 18.9946 56.2255 19.1737 56.2648 19.5742C56.2879 19.8227 56.2688 20.0753 56.2688 20.3258ZM28.1385 32.9747C28.0469 32.9747 27.9694 33.0492 27.9735 33.1408C27.9755 33.2021 27.9946 33.2605 28.0539 33.2716C28.1596 33.2927 28.2552 33.3078 28.3035 33.3088C29.1185 33.3299 29.9346 33.3299 30.7507 33.3209C30.7788 33.3209 30.806 33.3048 30.8342 33.2816C30.9257 33.2052 30.9246 33.0552 30.821 32.9959C30.8059 32.9878 30.7908 32.9818 30.7757 32.9818C29.8973 32.9717 29.018 32.9737 28.1385 32.9747ZM30.0765 37.8548H28.8599C28.8559 38.2563 29.0601 38.381 29.3942 38.377C29.7152 38.372 30.0463 38.3891 30.0765 37.8548Z" fill="#DF2E28"/>
<path id="Vector_2" d="M26.6023 49.9353C27.3871 51.0723 28.1558 52.2053 26.6345 53.3775C27.2321 54.2187 27.8067 55.0337 28.3883 55.8447C29.0222 56.7282 29.6661 57.6046 30.297 58.489C30.6723 59.0153 30.6099 59.455 30.131 59.794C29.638 60.1432 29.1972 60.0496 28.8099 59.5063C27.6819 57.9265 26.5499 56.3508 25.4361 54.7621C25.265 54.5175 25.098 54.4572 24.8565 54.59C23.9721 55.076 23.3009 54.7299 22.6771 54.0768C21.9194 53.2819 21.9084 53.293 21.0189 53.9058C19.9966 54.6111 19.2439 54.5115 18.5205 53.5114C16.5292 50.7594 14.5541 47.9954 12.5779 45.2334C10.4256 42.2269 8.2764 39.2173 6.13119 36.2048C5.90882 35.8928 5.6955 35.5689 5.52244 35.2278C5.15518 34.5013 5.25378 33.9931 5.89272 33.4518C6.38877 33.0322 6.92608 32.6609 7.50766 32.2212C6.6846 31.0661 5.87461 29.9301 5.02336 28.7358C4.58064 29.0417 4.13992 29.3043 3.74751 29.6263C2.9345 30.2944 1.77436 30.3115 1.12636 29.2167C0.931162 28.8867 0.667539 28.5989 0.4502 28.281C-0.228983 27.2838 -0.158549 26.6046 0.790295 25.847C1.56004 25.2322 2.39015 24.6919 3.19209 24.1173C4.56655 23.1333 5.94102 22.1492 7.31347 21.1631C8.33275 20.4306 9.10953 20.5292 9.86015 21.5264C10.1972 21.9741 10.5222 22.438 10.7909 22.928C11.1199 23.5267 10.9891 24.2783 10.4739 24.7271C9.97285 25.1638 9.43353 25.5562 8.87307 25.9989C9.70218 27.156 10.5162 28.292 11.3624 29.4743C11.777 29.1805 12.1523 28.9108 12.5306 28.6442C13.7048 27.8191 14.375 27.9147 15.2574 29.0537C15.4808 29.3425 15.681 29.6544 15.8531 29.9774C16.0885 30.4161 15.9265 30.8397 15.5804 31.0973C15.2524 31.3408 14.8358 31.2563 14.5269 30.9595C14.2985 30.7401 14.1214 30.4674 13.8859 30.2571C13.7813 30.1636 13.5287 30.078 13.4472 30.1354C11.3725 31.6014 9.31077 33.0876 7.19574 34.6069C7.78135 35.427 8.34683 36.2279 8.93043 37.0148C8.96766 37.0641 9.17795 37.0429 9.26448 36.9876C9.62873 36.7531 9.97687 36.4915 10.3311 36.242C10.9157 35.8305 11.3624 35.91 11.7196 36.4895C12.0094 36.9584 11.9259 37.3438 11.4489 37.6939C11.0726 37.9706 10.6812 38.2282 10.316 38.518C10.2254 38.5905 10.2093 38.7555 10.159 38.8782C10.2083 38.9064 10.2586 38.9346 10.3079 38.9628C12.4541 37.4283 14.6014 35.8939 16.7959 34.3252C16.6158 34.1179 16.4809 33.9066 16.3934 33.6893C16.0402 32.8149 17.1118 32.0401 17.8172 32.666C17.9208 32.7585 18.0204 32.8692 18.114 33.0051C20.0912 35.8466 22.1277 38.6488 24.1411 41.4652C25.3677 43.1807 26.6013 44.8903 27.8127 46.6149C28.6458 47.8002 28.5221 48.4814 27.374 49.3387C27.1245 49.5248 26.879 49.721 26.6023 49.9353ZM11.7136 40.949C12.0154 40.7669 12.2569 40.5807 12.5286 40.466C12.9381 40.2929 13.3889 40.2799 13.6706 40.6642C13.9342 41.0234 13.8095 41.439 13.5579 41.7821C13.3728 42.0347 13.1484 42.258 12.9019 42.5388C13.3879 43.218 13.9192 43.9605 14.4766 44.7383C14.9575 44.3318 15.4385 43.9686 15.9728 43.8166C16.6922 43.6134 17.2658 44.4274 16.8371 45.0402C16.5131 45.503 16.005 45.8391 15.4747 46.1681C16.0583 46.9842 16.5966 47.7378 17.1873 48.5629C17.3795 48.3345 17.5817 48.1765 17.791 48.0779C18.597 47.6986 19.3848 48.6715 18.8646 49.394C18.7086 49.6103 18.4812 49.7914 18.1663 49.9303C18.7952 50.8047 19.3838 51.6217 19.9875 52.4609C22.183 50.8852 24.3091 49.3598 26.4584 47.8173C23.5847 43.8026 20.7583 39.8532 17.9188 35.8858C15.7082 37.4696 13.566 39.004 11.4077 40.5505C11.5325 40.7145 11.6129 40.8182 11.7136 40.949ZM2.63264 28.2276C4.82011 26.663 6.95929 25.1326 9.11859 23.5881C8.85194 23.2349 8.63561 22.9471 8.4062 22.6432C6.22979 24.2018 4.10068 25.7262 1.94641 27.2687C2.18991 27.6078 2.39216 27.8906 2.63264 28.2276ZM7.32454 27.1108C7.03676 27.3291 6.80735 27.5042 6.56586 27.6873C7.25008 28.6462 7.90008 29.5548 8.54707 30.4634C9.02602 31.1366 9.02501 31.1386 9.68206 30.5982C9.70319 30.5801 9.70721 30.5409 9.73337 30.4765C8.95156 29.3848 8.15867 28.2769 7.32454 27.1108ZM25.0467 51.0965C24.5285 51.4708 24.0073 51.8461 23.4659 52.2365C23.6662 52.5132 23.8272 52.7366 24.0063 52.9861C24.3655 52.7305 24.6774 52.5112 24.9863 52.2868C25.6826 51.7807 25.6816 51.7797 25.0467 51.0965Z" fill="#DF2E28"/>
<path id="Vector_3" d="M29.4938 8.81266C31.471 8.81266 33.4472 8.8197 35.4244 8.81064C37.0001 8.8036 37.4197 9.20306 37.4227 10.7958C37.4287 14.0147 37.4257 17.2335 37.4227 20.4523C37.4217 21.0721 37.4207 21.6929 37.3885 22.3118C37.3502 23.0352 36.9639 23.5031 36.2434 23.5383C34.8237 23.6067 33.3989 23.6067 31.9761 23.6118C29.196 23.6208 26.4159 23.6148 23.6358 23.6148C23.5352 23.6148 23.4345 23.6168 23.3339 23.6148C21.9363 23.5796 21.5127 23.157 21.5107 21.7573C21.5067 18.0193 21.5067 14.2813 21.5117 10.5443C21.5127 9.3067 22.0007 8.82171 23.2605 8.81668C25.3372 8.80662 27.415 8.81266 29.4938 8.81266ZM23.3228 19.43H35.5733V12.9189C35.4032 12.9048 35.2724 12.8857 35.1416 12.8857C33.3325 12.8847 31.5233 12.8877 29.7132 12.8867C28.8921 12.8867 28.0711 12.8978 27.251 12.8696C26.7328 12.8515 26.4682 12.5365 26.4652 12.0274C26.4612 11.481 26.6745 11.2426 27.237 11.1862C27.4694 11.1631 27.7058 11.1611 27.9393 11.1611C30.3018 11.1601 32.6644 11.1611 35.0279 11.1611C35.1789 11.1611 35.3338 11.1721 35.4777 11.1379C35.5512 11.1208 35.6618 11.0101 35.6558 10.9528C35.6457 10.8572 35.5753 10.7324 35.4938 10.6902C35.3992 10.6419 35.2654 10.664 35.1487 10.664C31.9822 10.662 28.8157 10.662 25.6482 10.661C24.8674 10.661 24.0865 10.661 23.2665 10.661C23.2937 10.8673 23.3108 10.991 23.3339 11.1701C23.4768 11.1349 23.6106 11.1188 23.7364 11.1178C24.8915 11.1138 24.9167 12.8605 23.7636 12.927C23.6257 12.935 23.4788 12.927 23.3238 12.9028L23.3228 19.43ZM29.4556 21.7583C29.4556 21.7573 29.4556 21.7563 29.4556 21.7543C30.2093 21.7543 30.9629 21.7543 31.7175 21.7543C32.9069 21.7543 34.0962 21.7604 35.2855 21.7483C35.2865 21.7483 35.2875 21.7483 35.2895 21.7483C35.4807 21.7433 35.5381 21.4776 35.3741 21.379C35.3499 21.3639 35.3248 21.3508 35.2986 21.3388C35.2141 21.3005 35.1004 21.3267 34.9998 21.3267C31.2798 21.3267 27.5609 21.3267 23.841 21.3277C23.7575 21.3277 23.6619 21.3045 23.5925 21.3367C23.5814 21.3418 23.5704 21.3468 23.5593 21.3528C23.3983 21.4404 23.4084 21.6738 23.5784 21.7422L23.5794 21.7433C23.667 21.7785 23.7776 21.7573 23.8783 21.7573C25.7367 21.7583 27.5962 21.7583 29.4556 21.7583Z" fill="#DF2E28"/>
</g>
<defs>
<clipPath id="clip0_306_1806">
<rect width="60" height="60" fill="white"/>
</clipPath>
</defs>
</svg>
