<svg width="60" height="57" viewBox="0 0 60 57" fill="none" xmlns="http://www.w3.org/2000/svg">
<g id="Frame" clip-path="url(#clip0_306_2976)">
<path id="Vector" d="M5.57868 46.2541C8.15968 48.3591 11.2147 49.0511 13.0467 49.0041C15.3963 48.9431 17.6255 47.9512 19.2439 46.2468C20.8623 44.5423 21.7374 42.2647 21.6767 39.9151C21.6007 36.9451 19.6527 34.9621 18.1887 33.9251C18.5587 33.6101 18.8817 33.2421 19.1447 32.8331C19.3787 32.4691 19.5387 32.0611 19.6147 31.6351C21.8617 31.3251 23.4887 30.4151 25.1777 29.1471C25.5447 35.1421 26.4747 50.8841 25.6607 55.9221C25.6397 56.0493 25.6466 56.1795 25.6808 56.3037C25.715 56.428 25.7757 56.5434 25.8587 56.642C25.9418 56.7405 26.0452 56.8199 26.1619 56.8746C26.2786 56.9294 26.4058 56.9582 26.5347 56.9591H32.5447C32.6683 56.9578 32.7903 56.9309 32.903 56.8802C33.0158 56.8294 33.1168 56.7559 33.1997 56.6642C33.2826 56.5726 33.3457 56.4647 33.3849 56.3475C33.4242 56.2303 33.4387 56.1062 33.4277 55.9831C33.359 55.1522 33.3073 54.32 33.2727 53.4871C35.9311 55.6801 39.2568 56.9029 42.7026 56.9543C46.1484 57.0056 49.5091 55.8825 52.2317 53.7697C54.9542 51.6569 56.8765 48.6802 57.6822 45.3295C58.4879 41.9788 58.1291 38.4537 56.6647 35.3341C58.8077 32.4471 59.9307 28.5261 59.9957 23.6641C60.0917 16.6961 58.2717 11.5871 54.5857 8.48208C52.6376 6.84281 50.1834 5.92619 47.6377 5.88708C46.7581 5.87491 45.8847 6.03614 45.0674 6.36156C44.2501 6.68697 43.5049 7.1702 42.8743 7.78364C42.2438 8.39708 41.7403 9.12872 41.3926 9.93677C41.0448 10.7448 40.8597 11.6135 40.8477 12.4931C40.8237 14.1821 42.1787 15.6001 43.4147 16.7061C42.7616 17.0935 42.1968 17.6133 41.7567 18.2321C39.6537 18.0561 34.4397 16.8231 33.2897 14.3351C32.0197 11.5851 32.1927 5.54208 32.5617 0.957079C32.5716 0.834137 32.5557 0.710483 32.515 0.594032C32.4744 0.477581 32.4099 0.3709 32.3256 0.280816C32.2414 0.190732 32.1393 0.119231 32.0258 0.0708886C31.9123 0.0225466 31.79 -0.00157111 31.6667 7.93335e-05L26.4397 0.0650793C26.3197 0.0664886 26.2013 0.0922353 26.0917 0.140759C25.982 0.189283 25.8833 0.259573 25.8015 0.347371C25.7198 0.435168 25.6568 0.538644 25.6162 0.651527C25.5757 0.764411 25.5585 0.884351 25.5657 1.00408C26.1057 10.0081 26.0947 15.9201 25.5287 18.5781C24.9497 21.3051 20.7227 25.7851 18.4617 26.2021C17.921 25.7447 17.2944 25.4 16.6187 25.1881C17.8087 24.0821 19.0667 22.6831 19.0247 21.0451C18.9762 19.27 18.2258 17.5865 16.9379 16.3639C15.6501 15.1413 13.9299 14.4793 12.1547 14.5231C9.60942 14.5929 7.16639 15.5396 5.23868 17.2031C1.58968 20.3501 -0.168323 25.4801 0.0126768 32.4481C0.174677 38.7281 2.04768 43.3731 5.57868 46.2531V46.2541ZM42.9217 55.1841C40.2695 55.1845 37.6767 54.3983 35.4713 52.9251C33.2659 51.4518 31.5469 49.3577 30.5318 46.9074C29.5166 44.4571 29.2509 41.7609 29.7682 39.1596C30.2856 36.5583 31.5627 34.1689 33.4381 32.2935C35.3135 30.4181 37.7029 29.141 40.3042 28.6236C42.9055 28.1063 45.6017 28.372 48.052 29.3872C50.5023 30.4023 52.5964 32.1213 54.0697 34.3267C55.5429 36.5321 56.3291 39.1249 56.3287 41.7771C56.3244 45.3315 54.9106 48.7392 52.3972 51.2526C49.8838 53.766 46.4761 55.1798 42.9217 55.1841ZM40.2417 26.8341C37.6275 27.3034 35.1829 28.4525 33.1537 30.1661C33.3117 26.6431 33.5697 23.9341 33.9147 22.1861C36.5417 23.3091 38.4097 23.5261 40.8117 23.4101C40.9797 23.9151 41.2297 24.3891 41.5517 24.8121C41.6787 24.9801 41.8137 25.1401 41.9587 25.2921C41.3274 25.7368 40.7518 26.2544 40.2417 26.8341ZM6.39668 18.5441C8.01452 17.1482 10.0647 16.3538 12.2007 16.2951C13.5064 16.2628 14.7716 16.7497 15.7189 17.649C16.6661 18.5482 17.2181 19.7864 17.2537 21.0921C17.2837 22.2361 15.7547 23.5951 14.7437 24.4941C14.5867 24.6341 14.4367 24.7671 14.2987 24.8941C14.1648 25.0168 14.0719 25.1776 14.0324 25.3548C13.9928 25.5321 14.0087 25.7171 14.0777 25.8851C14.2947 26.4131 14.8057 26.5391 15.3457 26.6721C15.9787 26.8281 16.8437 27.0421 17.5007 27.7321C17.5834 27.8188 17.6829 27.8878 17.7931 27.9349C17.9032 27.982 18.0218 28.0062 18.1417 28.0061C20.2727 28.0061 22.7117 25.7301 23.6617 24.7521C25.1277 23.2421 26.8427 20.9251 27.2627 18.9471C27.8407 16.2291 27.8827 10.4721 27.3897 1.82608L30.7207 1.78508C30.2537 8.31908 30.5697 12.6731 31.6807 15.0791C33.5407 19.1051 41.1357 20.0271 42.2177 20.0271C42.3701 20.027 42.5199 19.9877 42.6526 19.9129C42.7854 19.8381 42.8967 19.7304 42.9757 19.6001C43.6107 18.5501 44.3737 18.1131 45.3227 17.7811C45.4681 17.7301 45.5977 17.6421 45.6987 17.5257C45.7997 17.4093 45.8686 17.2685 45.8986 17.1174C45.9286 16.9662 45.9187 16.8099 45.8697 16.6637C45.8208 16.5176 45.7346 16.3867 45.6197 16.2841C45.4797 16.1591 45.3287 16.0281 45.1697 15.8901C44.1477 15.0031 42.6027 13.6621 42.6187 12.5181C42.6368 11.2117 43.1732 9.96597 44.1097 9.05494C45.0462 8.14392 46.3063 7.64219 47.6127 7.66008C49.749 7.6927 51.8087 8.46166 53.4437 9.83708C56.7037 12.5841 58.3117 17.2271 58.2237 23.6401C58.1677 27.7421 57.3217 31.0861 55.7077 33.6041C54.3597 31.4949 52.5112 29.7518 50.3267 28.5298C48.1422 27.3078 45.6894 26.6449 43.1867 26.6001C43.4207 26.4421 43.6637 26.3001 43.9167 26.1741C44.0947 26.1057 44.246 25.9817 44.3479 25.8204C44.4499 25.6592 44.497 25.4693 44.4824 25.2791C44.4678 25.0889 44.3922 24.9085 44.2669 24.7648C44.1415 24.621 43.9731 24.5215 43.7867 24.4811C43.3937 24.3861 42.4197 23.2491 42.4407 22.5011C42.4442 22.3772 42.4217 22.254 42.3747 22.1394C42.3277 22.0247 42.2571 21.9212 42.1676 21.8356C42.078 21.7499 41.9715 21.684 41.8549 21.642C41.7384 21.6001 41.6143 21.5831 41.4907 21.5921C38.6327 21.7981 36.8267 21.6371 33.6827 20.1351C33.5666 20.0798 33.44 20.0504 33.3115 20.049C33.1829 20.0475 33.0556 20.074 32.9384 20.1266C32.8211 20.1792 32.7167 20.2566 32.6323 20.3536C32.5479 20.4505 32.4856 20.5647 32.4497 20.6881C31.8697 22.6941 31.4877 26.5031 31.3097 32.0101C28.9859 34.7665 27.721 38.261 27.7419 41.8661C27.7627 45.4712 29.0682 48.9508 31.4237 51.6801C31.4757 53.0841 31.5337 54.3001 31.5907 55.1871H27.5417C28.1727 48.9841 27.2657 34.2181 26.9117 28.4551L26.8447 27.3531C26.8349 27.1903 26.7805 27.0334 26.6874 26.8995C26.5942 26.7657 26.466 26.6601 26.3168 26.5943C26.1676 26.5286 26.0031 26.5053 25.8415 26.527C25.6799 26.5486 25.5273 26.6144 25.4007 26.7171C23.0827 28.6031 21.4717 29.7621 18.6627 29.9521C18.5347 29.9608 18.4101 29.9972 18.2976 30.0587C18.185 30.1203 18.0872 30.2056 18.0109 30.3087C17.9345 30.4117 17.8814 30.5302 17.8553 30.6558C17.8292 30.7813 17.8307 30.9111 17.8597 31.0361C17.9167 31.2831 17.8447 31.5721 17.6437 31.8931C17.2347 32.5461 16.5077 33.0051 16.2317 33.0681C16.0447 33.1098 15.8764 33.2111 15.7519 33.3567C15.6274 33.5023 15.5535 33.6844 15.5414 33.8756C15.5292 34.0667 15.5794 34.2567 15.6844 34.4169C15.7894 34.5771 15.9435 34.699 16.1237 34.7641C16.3107 34.8501 19.8187 36.5341 19.9067 39.9611C19.9308 40.8918 19.7712 41.8182 19.4372 42.6874C19.1032 43.5565 18.6013 44.3513 17.9601 45.0264C17.3189 45.7015 16.551 46.2437 15.7002 46.622C14.8494 47.0002 13.9325 47.2072 13.0017 47.2311C12.6637 47.2421 9.60368 47.2491 6.69868 44.8811C3.58668 42.3411 1.93268 38.1441 1.78368 32.4031C1.61768 25.9911 3.16968 21.3271 6.39668 18.5441Z" fill="#DF2E28"/>
<path id="Vector_2" d="M49.8726 39.1109H45.6956V34.9338C45.6956 34.6989 45.6023 34.4735 45.4361 34.3074C45.2699 34.1412 45.0446 34.0479 44.8096 34.0479H40.7596C40.6432 34.0477 40.5278 34.0705 40.4202 34.115C40.3126 34.1595 40.2148 34.2247 40.1325 34.307C40.0501 34.3893 39.9847 34.487 39.9401 34.5946C39.8955 34.7021 39.8726 34.8174 39.8726 34.9338V39.1109H35.5696C35.4532 39.1109 35.3379 39.1338 35.2303 39.1784C35.1227 39.223 35.025 39.2883 34.9427 39.3707C34.8605 39.4531 34.7952 39.5509 34.7508 39.6585C34.7063 39.7661 34.6835 39.8814 34.6836 39.9979V44.0479C34.6836 44.2828 34.7769 44.5082 34.9431 44.6743C35.1093 44.8405 35.3346 44.9339 35.5696 44.9339H39.8726V49.2379C39.8726 49.3542 39.8955 49.4694 39.94 49.5769C39.9846 49.6844 40.0498 49.7821 40.1321 49.8644C40.2144 49.9466 40.312 50.0119 40.4195 50.0564C40.527 50.1009 40.6422 50.1239 40.7586 50.1239H44.8096C44.9259 50.1239 45.0412 50.1009 45.1487 50.0564C45.2562 50.0119 45.3538 49.9466 45.4361 49.8644C45.5184 49.7821 45.5836 49.6844 45.6282 49.5769C45.6727 49.4694 45.6956 49.3542 45.6956 49.2379V44.9339H49.8726C50.1076 44.9339 50.3329 44.8405 50.4991 44.6743C50.6652 44.5082 50.7586 44.2828 50.7586 44.0479V39.9979C50.7587 39.8814 50.7359 39.7661 50.6914 39.6585C50.647 39.5509 50.5817 39.4531 50.4994 39.3707C50.4172 39.2883 50.3194 39.223 50.2119 39.1784C50.1043 39.1338 49.989 39.1109 49.8726 39.1109ZM48.9866 43.1619H44.8096C44.6932 43.1619 44.578 43.1848 44.4705 43.2293C44.363 43.2738 44.2654 43.3391 44.1831 43.4214C44.1008 43.5036 44.0356 43.6013 43.991 43.7088C43.9465 43.8163 43.9236 43.9315 43.9236 44.0479V48.3519H41.6446V44.0479C41.6446 43.9315 41.6217 43.8163 41.5772 43.7088C41.5326 43.6013 41.4674 43.5036 41.3851 43.4214C41.3028 43.3391 41.2051 43.2738 41.0977 43.2293C40.9902 43.1848 40.8749 43.1619 40.7586 43.1619H36.4556V40.8829H40.7586C40.9936 40.8829 41.2189 40.7895 41.3851 40.6233C41.5513 40.4572 41.6446 40.2318 41.6446 39.9969V35.8199H43.9236V39.9979C43.9236 40.2328 44.0169 40.4582 44.1831 40.6243C44.3493 40.7905 44.5746 40.8839 44.8096 40.8839H48.9866V43.1619Z" fill="#DF2E28"/>
</g>
<defs>
<clipPath id="clip0_306_2976">
<rect width="60" height="57" fill="white"/>
</clipPath>
</defs>
</svg>
