<svg width="19" height="11" viewBox="0 0 19 11" fill="none" xmlns="http://www.w3.org/2000/svg">
<path d="M18.899 9.93417C18.8759 9.884 18.8545 9.84204 18.8346 9.80859C18.5047 9.20626 17.875 8.46661 16.9453 7.58996L16.9253 7.57L16.9155 7.55974L16.9056 7.55005H16.8958C16.4737 7.14165 16.2066 6.86733 16.0947 6.7265C15.8903 6.45922 15.844 6.18812 15.9562 5.9138C16.0357 5.70637 16.3323 5.26804 16.8467 4.59852C17.117 4.2441 17.3312 3.9598 17.4896 3.74504C18.6305 2.2059 19.1248 1.22244 18.9734 0.793795L18.9138 0.693454C18.8742 0.633015 18.7718 0.577857 18.607 0.527687C18.4423 0.477517 18.2312 0.469595 17.9742 0.502749L15.1253 0.523286C15.0594 0.516538 14.9935 0.518299 14.9273 0.527981C14.8614 0.538249 14.8186 0.548225 14.7986 0.5582C14.7787 0.568469 14.7625 0.576684 14.7492 0.583138L14.7096 0.613358C14.6766 0.633309 14.6405 0.668516 14.6009 0.718979C14.5613 0.76915 14.528 0.827535 14.502 0.894722C14.1921 1.70449 13.8394 2.45733 13.4436 3.15356C13.1996 3.56841 12.9752 3.92841 12.7711 4.23266C12.5667 4.53749 12.3953 4.76164 12.2568 4.90511C12.1183 5.04888 11.9928 5.16477 11.8809 5.25132C11.7688 5.33875 11.6829 5.37513 11.6239 5.36193C11.5644 5.34872 11.5083 5.33523 11.4557 5.32144C11.3634 5.26129 11.2888 5.17944 11.233 5.07557C11.177 4.97201 11.1391 4.84145 11.1191 4.68419C11.0995 4.52693 11.0876 4.39138 11.0847 4.27755C11.0813 4.16371 11.083 4.00322 11.0896 3.79579C11.0963 3.58837 11.0995 3.44812 11.0995 3.37419C11.0995 3.12011 11.1044 2.84403 11.1145 2.54594C11.1243 2.24815 11.1327 2.01226 11.1391 1.83827C11.1457 1.66459 11.1489 1.48033 11.1489 1.28611C11.1489 1.09247 11.1373 0.939905 11.1142 0.829295C11.0911 0.718979 11.0564 0.612184 11.0104 0.50803C10.9642 0.404462 10.8965 0.324072 10.8075 0.267447C10.7184 0.210529 10.608 0.165346 10.4762 0.1319C10.1263 0.0515099 9.68139 0.00838108 9.14076 0.00133964C7.91407 -0.0115697 7.12596 0.0688201 6.77642 0.242509C6.63794 0.316444 6.51247 0.416491 6.40058 0.543824C6.28176 0.691107 6.26528 0.77179 6.35114 0.784406C6.74693 0.844845 7.02708 0.988901 7.19187 1.21628L7.25143 1.33657C7.2974 1.424 7.34366 1.57774 7.38991 1.79837C7.43617 2.0193 7.46566 2.2634 7.47896 2.53127C7.51192 3.01977 7.51192 3.43785 7.47896 3.78611C7.446 4.13437 7.41478 4.40517 7.385 4.59881C7.35522 4.79304 7.3107 4.95 7.25143 5.07059C7.19187 5.19147 7.15255 5.26511 7.13261 5.29181C7.11266 5.3185 7.09647 5.33523 7.08317 5.34198C6.9973 5.37513 6.90855 5.39215 6.81603 5.39215C6.72352 5.39215 6.61163 5.3452 6.47951 5.25132C6.34768 5.15802 6.21064 5.02893 6.06897 4.86492C5.92702 4.70121 5.76743 4.47177 5.58905 4.17721C5.41096 3.88293 5.22622 3.53497 5.03512 3.13331L4.87698 2.84197C4.7781 2.65479 4.6428 2.38193 4.47136 2.02399C4.29992 1.66605 4.14813 1.31985 4.0163 0.984794C3.96339 0.844552 3.88447 0.737463 3.77894 0.663528L3.7295 0.633309C3.69655 0.60661 3.64364 0.578151 3.57107 0.548225C3.49822 0.518005 3.42276 0.496294 3.34354 0.482798L0.633148 0.502749C0.356182 0.502749 0.168261 0.566708 0.0693861 0.693748L0.0297782 0.753893C0.0098297 0.787633 0 0.841324 0 0.914673C0 0.988608 0.0199485 1.07868 0.0595564 1.18547C0.455346 2.12932 0.885541 3.03943 1.35043 3.91579C1.8156 4.79274 2.2192 5.49894 2.56237 6.03409C2.90526 6.56983 3.25479 7.07476 3.61097 7.55005C3.96715 8.02535 4.20278 8.3296 4.31813 8.46339C4.43349 8.59747 4.52398 8.69781 4.59018 8.7647L4.83737 9.00587C4.99551 9.16636 5.22825 9.35882 5.5347 9.58297C5.84144 9.80742 6.18086 10.0281 6.55352 10.2452C6.92589 10.4629 7.35985 10.6398 7.85422 10.7774C8.34889 10.9147 8.83025 10.9698 9.29832 10.9429H10.436C10.667 10.9229 10.8416 10.8496 10.9601 10.7219L10.9997 10.6718C11.026 10.6319 11.0509 10.5697 11.074 10.4863C11.0969 10.4027 11.1087 10.3106 11.1087 10.2102C11.1018 9.92243 11.1235 9.66278 11.1729 9.43217C11.2223 9.20127 11.2784 9.02729 11.3412 8.90993C11.4039 8.79316 11.4744 8.69429 11.5539 8.6139C11.6332 8.53351 11.689 8.48539 11.7222 8.46837C11.7552 8.45194 11.7818 8.44021 11.8014 8.43317C11.9596 8.37977 12.1458 8.4317 12.3603 8.58867C12.5745 8.74622 12.7757 8.93986 12.9636 9.17105C13.1516 9.40195 13.3774 9.66102 13.6413 9.94913C13.905 10.2369 14.1357 10.4508 14.3337 10.5914L14.5318 10.7122C14.6636 10.7923 14.835 10.866 15.0461 10.9332C15.2571 10.9998 15.4419 11.0168 15.6 10.9833L18.1323 10.9429C18.383 10.9429 18.5776 10.9012 18.716 10.8173C18.8545 10.7343 18.9369 10.6415 18.9632 10.5412C18.9895 10.4409 18.9913 10.3276 18.9681 10.2C18.945 10.0729 18.9219 9.98434 18.899 9.93417Z" fill="#1D8745"/>
</svg>
