<svg width="405" height="358" viewBox="0 0 405 358" fill="none" xmlns="http://www.w3.org/2000/svg">
<path fill-rule="evenodd" clip-rule="evenodd" d="M96.0075 48.3252C100.273 39.5659 105.892 31.2758 113.761 25.4227C130.524 12.9439 156.288 15.8728 173.712 28.8577C142.592 33.4248 119 37.704 117.369 39.1447C115.611 40.6967 104.862 51.0799 92.6011 64.8586C92.7669 58.2896 93.9982 52.4097 96.0075 48.3252ZM262.54 193.01C215.03 197.719 162.038 200.455 140.692 201.435C123.204 202.238 71.1479 164.582 54.7397 139.789C44.4644 124.262 70.9016 89.2431 92.6011 64.8586C92.1839 81.3754 98.5022 102.248 116.125 109.887C135.358 118.225 158.598 115.43 174.294 103.339C189.991 91.2478 196.968 69.0248 189.827 49.7576C186.702 41.3225 180.92 34.2296 173.712 28.8577C235.443 19.7986 326.796 9.60704 335.127 18.192C345.244 28.6173 363.262 167.466 348.381 177.031C345.576 178.834 340.988 180.53 335.021 182.124C344.864 169.597 348.327 152.076 342.55 136.49C331.868 107.665 290.181 94.5135 266.484 112.155C258.615 118.008 252.996 126.298 248.731 135.057C242.325 148.077 243.826 179.342 262.54 193.01ZM262.54 193.01C291.569 190.133 318.552 186.521 335.021 182.124C332.695 185.081 330.015 187.762 327.017 190.071C311.32 202.162 288.08 204.957 268.848 196.62C266.559 195.626 264.459 194.411 262.54 193.01ZM119.919 57.3834C121.997 53.1506 124.733 49.144 128.563 46.3139C140.099 37.7846 160.377 44.1259 165.566 58.0482C169.034 67.3541 165.633 78.0921 157.993 83.9379C150.352 89.7836 139.044 91.1404 129.689 87.1183C117.708 81.9672 116.479 64.32 119.919 57.3834ZM281.286 133.045C277.456 135.875 274.72 139.882 272.641 144.115C269.202 151.052 270.431 168.699 282.412 173.85C291.768 177.872 303.075 176.515 310.716 170.669C318.356 164.824 321.757 154.086 318.289 144.78C313.1 130.857 292.822 124.516 281.286 133.045ZM237.81 30.9395C217.198 65.6652 174.353 139.287 167.886 155.971C159.798 176.825 163.821 200.835 181.61 196.254C199.4 191.671 274.159 69.7336 272.599 44.575C271.037 19.4165 248.848 19.6584 237.81 30.9395Z" fill="#318230"/>
<path d="M140.699 201.52C123.21 202.324 71.1541 164.667 54.7461 139.873C38.6646 115.573 109.082 46.5523 117.375 39.2288C142.091 31.2279 322.603 5.36323 335.134 18.2762C345.251 28.7014 363.269 167.552 348.387 177.116C325.183 192.029 179.815 199.724 140.699 201.52Z" fill="#79CE4B"/>
<path fill-rule="evenodd" clip-rule="evenodd" d="M248.71 134.824C252.977 126.065 258.595 117.775 266.464 111.922C290.163 94.2804 331.849 107.432 342.531 136.257C349.671 155.524 342.694 177.747 326.997 189.839C311.3 201.93 288.062 204.724 268.829 196.385C244.197 185.709 241.65 149.179 248.71 134.824ZM272.623 143.882C274.7 139.649 277.437 135.642 281.267 132.812C292.802 124.283 313.08 130.624 318.269 144.546C321.739 153.853 318.337 164.59 310.696 170.437C303.055 176.282 291.748 177.638 282.392 173.616C270.411 168.466 269.182 150.818 272.623 143.882Z" fill="#318230"/>
<path fill-rule="evenodd" clip-rule="evenodd" d="M116.404 35.0565C119.093 33.4726 121.78 31.8905 124.19 30.0973C126.227 30.0971 129.456 29.764 133.501 29.3464C143.599 28.3044 158.786 26.737 173.233 28.5131C180.441 33.885 186.682 41.0893 189.808 49.5243C196.948 68.7917 189.971 91.0146 174.274 103.106C158.577 115.197 135.339 117.991 116.105 109.654C98.4915 102.019 92.1708 81.1625 92.5811 64.6495C92.6924 60.1753 95.7319 56.1226 98.2981 52.7012C99.5052 51.0918 100.607 49.6221 101.251 48.3139C104.21 42.2382 110.315 38.6427 116.404 35.0565ZM119.899 57.1499C121.977 52.9171 124.714 48.9105 128.544 46.0806C140.079 37.5511 160.357 43.8926 165.546 57.8147C169.016 67.1207 165.614 77.8586 157.973 83.7045C150.333 89.5503 139.025 90.9071 129.669 86.8848C117.688 81.7337 116.46 64.0867 119.899 57.1499Z" fill="#318230"/>
<path d="M167.865 155.737C174.334 139.054 217.177 65.4319 237.791 30.7062C248.828 19.4251 271.018 19.1831 272.578 44.3416C274.139 69.5001 199.379 191.438 181.591 196.021C163.802 200.602 159.779 176.59 167.865 155.737Z" fill="#318230"/>
<path fill-rule="evenodd" clip-rule="evenodd" d="M95.8742 48.2389C100.14 39.4707 105.758 31.1723 113.627 25.3136C130.391 12.8231 156.158 15.7571 173.584 28.7572C142.462 33.3264 138.388 31.7015 121.833 38.0482C116.233 40.195 104.73 50.9971 92.4688 64.7892C92.6342 58.2135 93.8651 52.3275 95.8742 48.2389ZM262.434 193.089C291.464 190.212 318.449 186.599 334.919 182.198C332.594 185.159 329.914 187.84 326.916 190.152C311.219 202.254 287.977 205.05 268.741 196.703C266.452 195.709 264.353 194.492 262.434 193.089Z" fill="#9ED0FF"/>
<path fill-rule="evenodd" clip-rule="evenodd" d="M72.0644 228.356C75.2323 225.267 78.9067 222.588 83.1689 221.297C92.2504 218.543 102.814 223.761 108.269 231.991C94.2654 229.156 83.5237 227.353 82.605 227.719C81.6156 228.112 75.4269 230.897 68.0703 234.9C69.1496 232.117 70.5784 229.793 72.0644 228.356ZM121.044 315.833C100.012 310.534 76.9398 303.549 67.6643 300.683C60.0654 298.336 43.5928 274.228 40.3844 261.104C38.3753 252.885 55.0514 241.984 68.0703 234.9C65.3568 241.895 64.8539 251.791 71.2144 257.767C78.1565 264.292 88.5195 266.673 97.0854 263.92C105.651 261.167 112.045 252.741 111.95 243.406C111.909 239.319 110.526 235.397 108.269 231.991C136.048 237.62 176.664 247.322 178.907 252.274C181.632 258.287 168.021 320.414 160.192 322.212C158.716 322.551 156.494 322.57 153.698 322.333C159.828 318.493 163.998 311.537 163.922 303.984C163.78 290.019 147.979 277.982 135.141 281.875C130.878 283.166 127.204 285.847 124.036 288.934C119.299 293.514 115.142 307.11 121.044 315.833ZM121.044 315.833C133.894 319.071 145.982 321.678 153.698 322.333C152.25 323.24 150.693 323.972 149.057 324.498C140.491 327.251 130.128 324.87 123.186 318.346C122.36 317.569 121.649 316.727 121.044 315.833ZM80.895 235.907C82.4331 234.418 84.2176 233.126 86.2894 232.506C92.5296 230.636 100.225 236.466 100.306 243.216C100.36 247.728 97.2581 251.796 93.0945 253.118C88.9311 254.441 83.8892 253.281 80.5073 250.121C76.1763 246.075 78.3598 238.344 80.895 235.907ZM138.261 293.084C136.189 293.704 134.405 294.996 132.867 296.485C130.331 298.922 128.148 306.653 132.479 310.699C135.861 313.859 140.903 315.019 145.066 313.696C149.23 312.374 152.332 308.306 152.278 303.794C152.196 297.045 144.501 291.214 138.261 293.084ZM135.349 242.746C121.208 254.419 91.5927 279.297 86.2667 285.432C79.6092 293.102 77.643 303.986 85.9506 304.764C94.2581 305.543 144.933 264.923 148.127 253.928C151.322 242.934 141.8 239.622 135.349 242.746Z" fill="#318230"/>
<path d="M67.6522 300.72C60.053 298.372 43.5806 274.264 40.3722 261.14C37.2278 248.277 77.9237 229.611 82.5929 227.756C94.3864 228.139 175.521 244.862 178.896 252.311C181.62 258.324 168.008 320.451 160.179 322.25C147.971 325.054 84.6487 305.973 67.6522 300.72Z" fill="#FFA742"/>
<path fill-rule="evenodd" clip-rule="evenodd" d="M124.063 288.831C127.231 285.744 130.905 283.065 135.167 281.774C148.006 277.879 163.806 289.916 163.949 303.882C164.044 313.218 157.65 321.644 149.084 324.397C140.518 327.15 130.155 324.768 123.213 318.244C114.323 309.888 118.841 293.881 124.063 288.831ZM132.894 296.384C134.432 294.894 136.217 293.603 138.288 292.982C144.529 291.111 152.224 296.942 152.305 303.693C152.359 308.205 149.257 312.271 145.094 313.594C140.93 314.918 135.888 313.757 132.506 310.598C128.175 306.552 130.359 298.819 132.894 296.384Z" fill="#318230"/>
<path fill-rule="evenodd" clip-rule="evenodd" d="M72.0902 228.253C75.2582 225.166 78.9325 222.487 83.1948 221.195C89.6314 219.243 97.9948 225.115 103.426 228.928C105.661 230.498 107.4 231.719 108.303 231.901C110.555 235.306 111.934 239.221 111.976 243.303C112.071 252.638 105.677 261.066 97.1111 263.819C88.5452 266.572 78.1823 264.189 71.2402 257.666C64.8747 251.683 65.3833 241.778 68.1025 234.781C69.181 232.006 70.6072 229.687 72.0902 228.253ZM80.9208 235.804C82.4588 234.315 84.2435 233.024 86.3152 232.403C92.5555 230.533 100.251 236.364 100.332 243.113C100.386 247.626 97.2839 251.693 93.1205 253.015C88.9569 254.34 83.9149 253.179 80.533 250.02C76.2022 245.974 78.3857 238.241 80.9208 235.804Z" fill="#318230"/>
<path d="M86.2945 285.33C91.6205 279.194 121.236 254.316 135.377 242.645C141.827 239.521 151.35 242.831 148.155 253.826C144.961 264.822 94.2859 305.442 85.9784 304.662C77.6708 303.883 79.637 293.001 86.2945 285.33Z" fill="#318230"/>
<path fill-rule="evenodd" clip-rule="evenodd" d="M72.0195 228.299C75.1888 225.207 78.7947 222.272 83.0578 220.978C93.2714 217.879 103.624 223.354 108.229 231.93C94.2235 229.093 92.7313 227.772 84.6803 227.937C81.9569 227.994 75.3819 230.84 68.0234 234.85C69.1035 232.065 70.5332 229.738 72.0195 228.299ZM120.985 315.851C133.837 319.089 145.926 321.696 153.642 322.349C152.194 323.258 150.637 323.992 149 324.519C140.432 327.277 130.068 324.894 123.127 318.367C122.301 317.589 121.59 316.746 120.985 315.851Z" fill="#79CE4B"/>
<path d="M338.996 230.346C349.623 235.706 358.525 243.874 364.704 253.929L364.684 253.825C376.943 274.188 375.574 303.94 358.729 320.493C351.605 327.505 342.556 331.736 333.234 334.977C331.638 335.48 330.024 336.086 328.417 336.588C322.223 338.576 315.922 340.229 309.543 341.539C290.673 345.294 275.857 343.629 270.807 342.328C256.73 339.407 243.271 332.346 234.109 320.75C231.793 326.206 228.638 331.278 224.754 335.788C224.754 335.788 198.83 284.69 241.053 243.405C257.506 227.32 283.068 221.617 306.038 222.02C317.523 222.261 328.803 225.11 338.996 230.346Z" fill="#79CE4B"/>
<path fill-rule="evenodd" clip-rule="evenodd" d="M289.213 352.231C280.455 354.58 278.085 347.295 275.475 339.275C275.182 338.374 274.886 337.464 274.578 336.557C274.418 336.088 274.169 335.296 273.845 334.227C264.536 336.337 261.548 334.973 259.282 326.504C257.765 320.84 262.738 318.665 268.809 316.686C262.211 293.015 252.687 256.769 254.136 253.631C256.201 249.157 303.687 236.416 313.189 237.788C319.702 238.728 338.813 243.326 338.849 272.717C338.874 293.415 313.837 299.513 298.018 303.366C296.049 303.846 294.222 304.291 292.605 304.725C292.883 305.769 293.396 307.622 294.035 309.921C299.115 308.807 303.709 307.958 306.074 307.866C312.752 307.608 313.516 319.336 311.371 323.083C310.287 324.976 304.375 326.487 298.968 327.746C299.169 328.486 299.36 329.194 299.539 329.861C303.454 344.49 302.605 348.638 289.213 352.231ZM314.239 271.301C314.378 279.643 304.87 281.944 298.863 283.397C298.115 283.579 297.42 283.747 296.807 283.912L288.025 286.267C287.125 285.345 283.513 270.422 281.818 263.075C282.578 261.285 300.604 256.447 304.236 257.06C306.726 257.48 314.041 259.454 314.239 271.301Z" fill="#318230"/>
<path fill-rule="evenodd" clip-rule="evenodd" d="M276.848 343.34C279.1 349.535 281.977 354.173 289.213 352.231C297.335 350.052 300.844 347.669 301.474 342.866C291.208 344.202 282.619 343.973 276.848 343.34Z" fill="#9ED0FF"/>
</svg>
