<svg width="60" height="60" viewBox="0 0 60 60" fill="none" xmlns="http://www.w3.org/2000/svg">
<circle cx="30" cy="30" r="29.5" stroke="#CCD5E7"/>
<path d="M30.8434 22.7367C30.9286 22.5776 31.0103 22.4498 31.0688 22.3127C31.4548 21.4037 31.9655 20.5758 32.6466 19.8561C33.4802 18.9758 34.4791 18.3465 35.6048 17.9107C36.2833 17.6479 36.9809 17.4503 37.7011 17.3435C38.3073 17.2537 38.9171 17.2404 39.5269 17.2978C41.442 17.479 43.1045 18.23 44.5043 19.544C45.8101 20.7703 46.5991 22.2773 46.8732 24.0503C47.0235 25.0229 47.0328 25.9992 46.9399 26.9771C46.7613 28.8603 46.1366 30.5999 45.2347 32.2496C44.3359 33.8932 43.2195 35.3777 41.9311 36.7323C41.3994 37.2912 40.8353 37.8189 40.2845 38.3594C40.228 38.4148 40.1623 38.4616 40.0828 38.5273C40.0586 38.4277 40.0607 38.3486 40.0607 38.2711C40.0602 37.57 40.0607 36.8683 40.0612 36.1671C40.0612 35.9654 40.0633 35.7637 40.0617 35.5614C40.0602 35.3597 40.0089 35.3063 39.8133 35.3073C38.355 35.3171 36.8972 35.3279 35.4395 35.3397C35.3763 35.3402 35.3137 35.3551 35.2429 35.3643C35.2429 36.3996 35.2429 37.4175 35.2429 38.4569C35.0299 38.4708 34.8251 38.4621 34.6208 38.4636C34.4139 38.4651 34.2071 38.4641 34.0002 38.4641C33.7933 38.4641 33.5865 38.4641 33.3796 38.4641C33.1728 38.4641 32.9659 38.4641 32.7591 38.4641C32.5527 38.4641 32.3458 38.4641 32.1431 38.4641C32.1031 38.5801 32.0943 43.1228 32.1339 43.3019C32.8602 43.3019 33.5901 43.3019 34.3159 43.3019C34.3503 43.3902 34.2887 43.4123 34.2456 43.4415C34.0577 43.5694 33.8693 43.6951 33.6804 43.8214C32.8966 44.346 32.1067 44.8613 31.3311 45.3982C30.9928 45.6323 30.6889 45.6205 30.3527 45.4064C29.2543 44.7073 28.1799 43.9744 27.1354 43.1967C25.1284 41.7035 23.2415 40.0712 21.4619 38.3132C20.5606 37.4226 19.6839 36.51 18.8939 35.5168C17.6394 33.9394 16.6123 32.2301 15.888 30.3443C15.538 29.4332 15.2685 28.5 15.1248 27.5335C14.7762 25.1939 15.1525 22.98 16.3218 20.9186C17.3073 19.1811 18.7871 18.0426 20.6776 17.4251C21.5964 17.1249 22.5383 16.9627 23.5048 17.0073C25.402 17.0946 27.083 17.7182 28.4515 19.0733C29.1408 19.7555 29.7198 20.5224 30.1556 21.3924C30.3568 21.7938 30.5585 22.1942 30.7608 22.5945C30.7793 22.6305 30.8008 22.6638 30.8434 22.7367Z" fill="#DF2E28"/>
<path d="M39.2983 45.6868C38.1835 45.6868 37.0958 45.6868 35.9937 45.6868C35.9747 45.3393 35.9876 44.998 35.985 44.6566C35.9824 44.3137 35.9845 43.9708 35.9845 43.6274C35.9845 43.2851 35.9845 42.9427 35.9845 42.5844C35.6308 42.5618 35.29 42.5762 34.9497 42.5737C34.6068 42.5711 34.2634 42.5731 33.9205 42.5731C33.5782 42.5731 33.2363 42.5731 32.8981 42.5731C32.8611 42.4494 32.8554 39.4646 32.8914 39.3009C33.2281 39.2829 33.5689 39.2957 33.9098 39.2932C34.2526 39.2906 34.596 39.2927 34.9389 39.2927C35.2808 39.2927 35.6221 39.2927 35.9778 39.2927C35.9814 39.2172 35.9865 39.1582 35.9865 39.0992C35.9871 38.1963 35.9871 37.2934 35.9871 36.3905C35.9871 36.3499 35.9891 36.3099 35.9871 36.2694C35.9835 36.1949 36.0148 36.1549 36.0923 36.1564C36.1328 36.1569 36.1729 36.1554 36.2134 36.1554C37.1569 36.1554 38.1003 36.1549 39.0432 36.1559C39.112 36.1559 39.1813 36.1631 39.2691 36.1682C39.2691 37.2077 39.2691 38.2342 39.2691 39.2716C39.4559 39.305 39.6268 39.285 39.7957 39.2886C39.9672 39.2922 40.1386 39.2896 40.31 39.2896C40.4815 39.2896 40.6529 39.2896 40.8244 39.2896C40.9958 39.2896 41.1672 39.2896 41.3387 39.2896C41.5101 39.2896 41.6816 39.2896 41.853 39.2896C42.0239 39.2896 42.1944 39.2896 42.3802 39.2896C42.3863 39.3543 42.3956 39.4076 42.3961 39.4605C42.3971 40.4389 42.3971 41.4177 42.3966 42.3961C42.3966 42.4453 42.3909 42.4951 42.3874 42.5644C42.2082 42.566 42.0383 42.568 41.8689 42.569C41.6975 42.5695 41.526 42.569 41.3546 42.569C41.1832 42.569 41.0117 42.569 40.8403 42.569C40.674 42.569 40.5072 42.569 40.3408 42.569C40.1694 42.569 39.998 42.569 39.8265 42.569C39.6566 42.569 39.4862 42.569 39.2989 42.569C39.2983 43.6146 39.2983 44.6407 39.2983 45.6868Z" fill="#1D8745"/>
</svg>
