<svg width="7" height="14" viewBox="0 0 7 14" fill="none" xmlns="http://www.w3.org/2000/svg">
<path d="M2.30708 0.721085C2.89299 0.201367 3.72242 0.024718 4.50849 0.00426173C5.33816 -0.00255704 6.16782 0.000852347 6.99726 0.000852347C7.00091 0.819531 7.00091 1.6348 6.99726 2.45348C6.46249 2.45348 5.92383 2.45348 5.38906 2.45348C5.05057 2.43302 4.70136 2.67424 4.6395 2.99024C4.6322 3.53724 4.63585 4.08402 4.63585 4.63101C5.4217 4.63442 6.20777 4.63101 6.99361 4.63442C6.93541 5.42582 6.82996 6.21403 6.70625 6.99542C6.01125 7.00224 5.31625 6.99542 4.62125 6.99883C4.61394 9.33255 4.6249 11.6629 4.61759 13.9968C3.58411 14.0002 2.5545 13.9934 1.52101 14.0002C1.50275 11.6665 1.52101 9.33277 1.51006 6.99883C1.00792 6.99542 0.502136 7.00224 0 6.99542C0.0036519 6.21062 0 5.42604 0 4.64465C0.502136 4.63783 1.00792 4.64465 1.51006 4.64124C1.52467 3.88031 1.49545 3.11597 1.52467 2.35503C1.57944 1.7471 1.82321 1.13895 2.30708 0.721085Z" fill="#1D8745"/>
</svg>
