<svg width="17" height="14" viewBox="0 0 17 14" fill="none" xmlns="http://www.w3.org/2000/svg">
<g clip-path="url(#clip0_348_372)">
<path d="M17.0003 1.66112C16.382 1.97743 15.6867 2.13572 14.9912 2.21473C15.6867 1.74012 16.2276 1.1075 16.5366 0.237302C15.8411 0.632898 15.1456 0.949209 14.2957 1.10723C13.6774 0.395319 12.7503 0 11.7458 0C9.81395 0 8.26857 1.58183 8.26857 3.55926C8.26857 3.87557 8.26857 4.11287 8.34576 4.35017C5.48656 4.19188 2.93666 2.76834 1.15944 0.632621C0.85042 1.18623 0.695773 1.73985 0.695773 2.45175C0.695773 3.71727 1.31409 4.74549 2.24115 5.37839C1.7003 5.37839 1.15944 5.22009 0.695773 4.90378V4.98279C0.695773 6.72292 1.85494 8.14673 3.47751 8.46304C3.16849 8.54205 2.8592 8.62134 2.55018 8.62134C2.31834 8.62134 2.08651 8.62133 1.93186 8.54233C2.39553 9.96614 3.63189 10.9944 5.17727 10.9944C4.0181 11.9436 2.47272 12.4972 0.849878 12.4972C0.540856 12.4972 0.309022 12.4972 0 12.4182C1.54538 13.4464 3.32287 14 5.33191 14C11.7455 14 15.2228 8.62161 15.2228 3.87584V3.40124C15.9957 3.00564 16.5366 2.37302 17.0003 1.66112Z" fill="#1D8745"/>
</g>
<defs>
<clipPath id="clip0_348_372">
<rect width="17" height="14" fill="white"/>
</clipPath>
</defs>
</svg>
