<svg width="20" height="14" viewBox="0 0 20 14" fill="none" xmlns="http://www.w3.org/2000/svg">
<g clip-path="url(#clip0_348_287)">
<path d="M19.7498 2.7884C19.5601 1.31071 18.6951 0.383838 17.1597 0.24693C15.4017 0.0902108 11.596 0 9.83079 0C6.22011 0 4.60656 0.0870268 2.89909 0.261434C1.27191 0.427351 0.559599 1.1409 0.27962 2.61399C0.0835275 3.64628 0 4.61313 0 6.89811C0 8.95067 0.0982255 10.2416 0.250224 11.3276C0.459222 12.8191 1.49668 13.6572 3.01703 13.7821C4.7858 13.9275 8.32909 14 10.081 14C11.7738 14 15.5834 13.913 17.2773 13.7241C18.7933 13.555 19.5142 12.7558 19.7498 11.2841C19.7498 11.2841 20 9.67201 20 6.88361C20 5.2959 19.8824 3.81928 19.7498 2.7884ZM7.87345 9.77389V4.10017L13.3479 6.90802L7.87345 9.77389Z" fill="#1D8745"/>
</g>
<defs>
<clipPath id="clip0_348_287">
<rect width="20" height="14" fill="white"/>
</clipPath>
</defs>
</svg>
