<svg width="135" height="135" viewBox="0 0 135 135" fill="none" xmlns="http://www.w3.org/2000/svg">
<path d="M67.0703 134.043C58.0256 134.043 49.2514 132.272 40.9914 128.778C33.013 125.403 25.8481 120.573 19.6946 114.419C13.5412 108.266 8.71061 101.101 5.33593 93.122C1.84225 84.8617 0.0703125 76.087 0.0703125 67.0425C0.0703125 57.998 1.84225 49.2233 5.33593 40.963C8.71061 32.9846 13.5412 25.8192 19.6946 19.6667C25.8471 13.5134 33.013 8.68279 40.9914 5.30798C49.2514 1.8141 58.0256 0.0429688 67.0703 0.0429688C76.115 0.0429688 84.8892 1.8141 93.1493 5.30798C101.128 8.68279 108.293 13.5134 114.446 19.6667C120.599 25.8201 125.43 32.9855 128.805 40.963C132.298 49.2233 134.07 57.998 134.07 67.0425C134.07 76.087 132.298 84.8617 128.805 93.122C125.43 101.1 120.599 108.266 114.446 114.419C108.293 120.573 101.128 125.403 93.1493 128.778C84.8892 132.271 76.115 134.043 67.0703 134.043ZM67.0703 0.889463C58.1399 0.889463 49.4764 2.63826 41.3214 6.08749C33.4443 9.41952 26.3696 14.1897 20.2942 20.2649C14.2189 26.3401 9.44877 33.4153 6.11685 41.2923C2.6678 49.4475 0.918166 58.1106 0.918166 67.0416C0.918166 75.9725 2.66687 84.6356 6.11685 92.7908C9.44877 100.668 14.2189 107.743 20.2942 113.818C26.3696 119.893 33.4443 124.664 41.3214 127.996C49.4764 131.445 58.1399 133.194 67.0703 133.194C76.0007 133.194 84.6642 131.445 92.8192 127.996C100.696 124.664 107.771 119.893 113.846 113.818C119.922 107.743 124.692 100.668 128.024 92.7908C131.473 84.6356 133.222 75.9725 133.222 67.0416C133.222 58.1106 131.474 49.4475 128.024 41.2923C124.692 33.4153 119.922 26.3401 113.846 20.2649C107.771 14.1897 100.696 9.41952 92.8192 6.08749C84.6642 2.63826 76.0007 0.889463 67.0703 0.889463Z" fill="#DF2E28"/>
<path d="M70.9359 39.6312C71.0903 39.3429 71.2382 39.1114 71.3442 38.863C72.0435 37.216 72.9689 35.7159 74.203 34.4121C75.7133 32.8171 77.5231 31.6769 79.5626 30.8874C80.792 30.4112 82.0559 30.0532 83.3607 29.8597C84.459 29.697 85.5639 29.6728 86.6687 29.7769C90.1385 30.1052 93.1508 31.4658 95.6869 33.8466C98.0528 36.0684 99.4823 38.7989 99.9789 42.0111C100.251 43.7734 100.268 45.5423 100.1 47.314C99.7761 50.7261 98.6443 53.8779 97.0103 56.8669C95.3819 59.8448 93.3591 62.5343 91.0248 64.9886C90.0614 66.0014 89.0393 66.9574 88.0414 67.9367C87.9391 68.0371 87.8201 68.1218 87.6759 68.2408C87.6322 68.0604 87.6359 67.9172 87.6359 67.7767C87.635 66.5064 87.6359 65.2351 87.6369 63.9647C87.6369 63.5992 87.6406 63.2337 87.6378 62.8673C87.635 62.5018 87.542 62.4051 87.1877 62.4069C84.5455 62.4246 81.9043 62.4441 79.2631 62.4655C79.1487 62.4664 79.0353 62.4934 78.9069 62.5102C78.9069 64.386 78.9069 66.2301 78.9069 68.1134C78.521 68.1385 78.1499 68.1227 77.7798 68.1255C77.405 68.1283 77.0302 68.1264 76.6554 68.1264C76.2806 68.1264 75.9058 68.1264 75.531 68.1264C75.1562 68.1264 74.7815 68.1264 74.4067 68.1264C74.0328 68.1264 73.658 68.1264 73.2907 68.1264C73.2181 68.3366 73.2023 76.5671 73.2739 76.8917C74.5899 76.8917 75.9123 76.8917 77.2274 76.8917C77.2897 77.0516 77.1781 77.0916 77.0999 77.1446C76.7596 77.3762 76.4183 77.604 76.076 77.8328C74.6559 78.7833 73.2246 79.717 71.8194 80.6898C71.2065 81.1139 70.656 81.0925 70.0468 80.7047C68.0566 79.438 66.1101 78.11 64.2176 76.701C60.5813 73.9957 57.1626 71.0382 53.9383 67.853C52.3052 66.2395 50.7168 64.5859 49.2855 62.7864C47.0126 59.9285 45.1517 56.8316 43.8394 53.4148C43.2052 51.764 42.7169 50.0733 42.4565 48.3221C41.8251 44.0831 42.5067 40.072 44.6253 36.3372C46.4109 33.1891 49.0921 31.1264 52.5173 30.0076C54.182 29.4635 55.8885 29.1697 57.6397 29.2506C61.077 29.4087 64.1227 30.5386 66.6021 32.9938C67.8511 34.2298 68.9001 35.6192 69.6897 37.1956C70.0543 37.9228 70.4198 38.6482 70.7862 39.3736C70.8197 39.4387 70.8587 39.4992 70.9359 39.6312Z" fill="#DF2E28"/>
<path d="M86.2497 81.2123C84.2298 81.2123 82.2591 81.2123 80.2624 81.2123C80.228 80.5827 80.2512 79.9642 80.2466 79.3458C80.2419 78.7245 80.2457 78.1033 80.2457 77.4811C80.2457 76.8608 80.2457 76.2405 80.2457 75.5914C79.6049 75.5504 78.9874 75.5765 78.3708 75.5718C77.7495 75.5672 77.1274 75.5709 76.5061 75.5709C75.8858 75.5709 75.2664 75.5709 74.6536 75.5709C74.5866 75.3468 74.5764 69.9388 74.6415 69.6421C75.2516 69.6096 75.8691 69.6328 76.4866 69.6282C77.1078 69.6235 77.73 69.6273 78.3513 69.6273C78.9706 69.6273 79.5891 69.6273 80.2336 69.6273C80.2401 69.4906 80.2494 69.3836 80.2494 69.2767C80.2503 67.6408 80.2503 66.0049 80.2503 64.369C80.2503 64.2956 80.254 64.223 80.2503 64.1496C80.2438 64.0147 80.3005 63.9422 80.441 63.945C80.5144 63.9459 80.587 63.9431 80.6604 63.9431C82.3698 63.9431 84.0791 63.9422 85.7875 63.944C85.9122 63.944 86.0377 63.9571 86.1967 63.9664C86.1967 65.8496 86.1967 67.7096 86.1967 69.5891C86.5353 69.6496 86.8449 69.6133 87.1509 69.6198C87.4615 69.6263 87.7721 69.6217 88.0828 69.6217C88.3934 69.6217 88.704 69.6217 89.0146 69.6217C89.3252 69.6217 89.6359 69.6217 89.9465 69.6217C90.2571 69.6217 90.5677 69.6217 90.8784 69.6217C91.188 69.6217 91.4968 69.6217 91.8335 69.6217C91.8446 69.7389 91.8614 69.8356 91.8623 69.9314C91.8641 71.704 91.8641 73.4775 91.8632 75.25C91.8632 75.3393 91.853 75.4295 91.8465 75.5551C91.5219 75.5579 91.2141 75.5616 90.9072 75.5634C90.5966 75.5644 90.2859 75.5634 89.9753 75.5634C89.6647 75.5634 89.3541 75.5634 89.0435 75.5634C88.7421 75.5634 88.4399 75.5634 88.1386 75.5634C87.828 75.5634 87.5173 75.5634 87.2067 75.5634C86.8989 75.5634 86.5901 75.5634 86.2507 75.5634C86.2497 77.4579 86.2497 79.3169 86.2497 81.2123Z" fill="#1D8745"/>
<path d="M65.8047 27.6025C65.84 27.5616 65.8744 27.4928 65.9302 27.4639C66.0084 27.423 66.1014 27.4016 66.1897 27.3914C66.3069 27.3775 66.3673 27.4481 66.3255 27.5551C66.2762 27.6816 66.2176 27.8071 66.1432 27.9196C66.0697 28.0312 65.92 27.9996 65.8735 27.8704C65.8456 27.7932 65.8317 27.7123 65.8047 27.6025Z" fill="black"/>
<path d="M39.7734 64.5125C40.8141 63.7908 41.8334 63.084 42.8694 62.366C42.8285 62.234 42.7885 62.1066 42.7401 61.9522C43.1772 61.6611 43.6143 61.37 44.057 61.0752C44.1788 61.1942 44.1333 61.2937 44.0617 61.3774C43.9129 61.5504 43.7585 61.7197 43.5985 61.8824C43.5027 61.9801 43.3921 62.0629 43.2721 62.167C43.8636 63.0254 44.4318 63.8494 45.0112 64.691C45.3748 64.4576 45.718 64.2372 46.0602 64.0177C46.2583 64.2177 46.2732 64.3479 46.064 64.4836C45.7431 64.692 45.4037 64.8715 45.0642 65.0482C44.9917 65.0863 44.8847 65.0733 44.7964 65.0621C44.4318 65.0147 44.0942 65.0779 43.7641 65.2472C43.0982 65.5885 42.4212 65.9084 41.7534 66.246C41.5749 66.3362 41.413 66.4571 41.2094 66.5845C40.7388 65.9065 40.2682 65.2267 39.7734 64.5125ZM41.2168 65.9298C42.2779 65.4146 43.3186 64.9245 44.3621 64.4037C43.9622 63.8252 43.5864 63.2802 43.1996 62.7194C42.2379 63.3862 41.3042 64.0335 40.3593 64.6892C40.6504 65.1114 40.9248 65.5076 41.2168 65.9298Z" fill="black"/>
<path d="M39.6351 56.1607C40.0787 56.0556 40.4767 55.9617 40.8738 55.8687C40.9985 55.8389 41.1231 55.8138 41.2468 55.7803C41.3733 55.7459 41.4356 55.8148 41.4774 55.9161C41.5239 56.0287 41.5221 56.1403 41.4039 56.2016C41.2998 56.2556 41.1845 56.2928 41.071 56.3216C39.7541 56.6564 38.4354 56.9884 37.1176 57.3204C36.8004 57.4004 36.4824 57.4804 36.1746 57.5585C35.956 57.2776 35.983 57.1726 36.2787 57.0665C36.3699 57.034 36.4601 56.9968 36.5968 56.9438C36.4815 56.8685 36.4126 56.8173 36.3382 56.7755C35.2585 56.1598 35.0939 54.5221 36.2508 53.752C36.8879 53.3279 37.5863 53.1587 38.3368 53.3019C39.4203 53.5093 39.9792 54.3565 39.7774 55.439C39.7355 55.6613 39.689 55.8845 39.6351 56.1607ZM39.4658 55.1275C39.463 54.4774 39.0994 53.9799 38.4744 53.8106C37.6495 53.5883 36.9158 53.7995 36.2862 54.3537C35.9514 54.6476 35.8044 55.041 35.8742 55.4902C35.9951 56.2695 36.7512 56.8247 37.5361 56.6955C37.8765 56.6387 38.215 56.5504 38.5433 56.4416C39.1375 56.2453 39.4686 55.7562 39.4658 55.1275Z" fill="black"/>
<path d="M55.7357 25.7666C55.5729 25.7666 55.438 25.7666 55.2734 25.7666C55.4371 24.3967 55.598 23.0417 55.7589 21.6951C56.1542 21.5258 56.3708 21.6337 56.5113 22.0587C56.8098 22.9599 57.1065 23.862 57.405 24.7632C57.4478 24.8915 57.4952 25.018 57.5557 25.1872C57.6087 25.0961 57.6487 25.0403 57.6756 24.9798C58.0699 24.0759 58.4624 23.171 58.8549 22.267C58.8735 22.2252 58.8893 22.1824 58.9079 22.1406C59.0818 21.7565 59.2464 21.6858 59.6928 21.816C59.6928 23.184 59.6928 24.5586 59.6928 25.9312C59.4352 25.9545 59.3627 25.908 59.3413 25.6746C59.3245 25.4839 59.331 25.2914 59.3292 25.0989C59.3236 24.3772 59.3217 23.6555 59.3134 22.9329C59.3115 22.7609 59.2938 22.5888 59.2306 22.3991C59.1906 22.4819 59.1478 22.5628 59.1106 22.6465C58.7061 23.5458 58.3015 24.4451 57.8998 25.3453C57.8133 25.5397 57.6942 25.7062 57.5194 25.8485C57.3241 25.6913 57.2041 25.4988 57.126 25.2672C56.8275 24.3856 56.5196 23.5067 56.2146 22.6269C56.1914 22.5591 56.1607 22.4939 56.1077 22.427C56.0063 22.9757 55.9654 23.53 55.9105 24.0824C55.8556 24.6357 55.7961 25.1882 55.7357 25.7666Z" fill="black"/>
<path d="M33.9876 47.0525C33.9876 46.8823 33.9792 46.7288 33.9895 46.5763C34.0202 46.0927 34.0555 45.61 34.0927 45.1274C34.1011 45.0185 34.1187 44.9088 34.1429 44.8028C34.2285 44.4299 34.4507 44.1806 34.833 44.1099C35.2338 44.0365 35.5779 44.1397 35.8095 44.5005C35.8774 44.6066 35.9387 44.7172 36.0327 44.8753C36.0959 44.7349 36.1406 44.6326 36.188 44.5322C36.4382 43.9909 36.8687 43.83 37.4332 43.9602C37.7764 44.0393 37.9922 44.2643 38.0331 44.6252C38.0917 45.1422 38.1438 45.6602 38.194 46.1783C38.2107 46.3512 38.2117 46.5251 38.2182 46.6991C38.2265 46.9353 38.1242 47.0515 37.8824 47.0608C37.6453 47.0692 37.4072 47.0645 37.1691 47.0655C36.1731 47.0664 35.1761 47.0673 34.1801 47.0664C34.1178 47.0655 34.0564 47.0571 33.9876 47.0525ZM36.1592 46.5921C36.7655 46.5921 37.3365 46.5921 37.942 46.5921C37.9159 46.0592 37.901 45.5431 37.7746 45.0371C37.6983 44.7349 37.3672 44.4643 37.0854 44.4596C36.8074 44.455 36.4661 44.7182 36.3796 45.0185C36.2336 45.5207 36.2131 46.0406 36.1592 46.5921ZM34.3122 46.5475C34.3689 46.5726 34.3856 46.5865 34.4014 46.5865C34.7753 46.5856 35.1492 46.593 35.523 46.5772C35.7546 46.5679 35.8616 46.4712 35.8448 46.2936C35.8058 45.8862 35.7751 45.4742 35.6886 45.0753C35.5844 44.5917 35.0524 44.4522 34.686 44.7833C34.5558 44.9014 34.4963 45.0502 34.4749 45.2157C34.4182 45.6584 34.3661 46.102 34.3122 46.5475Z" fill="black"/>
<path d="M62.3257 22.1899C62.4884 22.3508 62.4838 22.522 62.4308 22.7098C62.1713 23.6221 61.9165 24.5363 61.6607 25.4505C61.6468 25.5017 61.6366 25.5538 61.6133 25.6561C61.7082 25.5863 61.7649 25.55 61.8151 25.5054C62.7256 24.7 63.6342 23.8946 64.5437 23.0893C64.8125 22.8512 65.006 22.8456 65.3147 23.0809C65.2775 23.2195 65.2394 23.3673 65.1975 23.5152C64.8897 24.6135 64.5791 25.7109 64.275 26.8102C64.2331 26.9599 64.1857 27.0706 63.9913 27.0269C63.8779 26.8344 63.8462 26.6326 63.9113 26.4066C64.1671 25.5212 64.4145 24.6331 64.6656 23.7468C64.6898 23.6612 64.7139 23.5766 64.7037 23.4678C64.6377 23.5236 64.5698 23.5775 64.5056 23.6352C63.7142 24.3401 62.92 25.0413 62.1341 25.7518C61.8412 26.016 61.5185 26.2048 61.1111 26.254C60.9605 26.1666 61.0163 26.0318 61.0525 25.9006C61.2739 25.1101 61.4952 24.3187 61.7175 23.5282C61.8114 23.1943 61.9184 22.8642 62.0002 22.5275C62.043 22.3443 62.1397 22.2383 62.3257 22.1899Z" fill="black"/>
<path d="M47.4045 68.3329C47.2548 68.2687 47.1478 68.1608 47.0632 68.0316C46.9376 67.8409 46.827 67.64 46.6949 67.454C46.5628 67.269 46.4298 67.0783 46.268 66.9212C45.8681 66.5352 45.3417 66.4961 44.8572 66.7919C44.3541 67.0988 44.1318 67.5926 44.2788 68.1181C44.3299 68.3003 44.4145 68.4761 44.5038 68.6444C44.6024 68.8295 44.7289 68.9997 44.834 69.1811C44.8749 69.2508 44.8898 69.3354 44.926 69.4405C44.6898 69.4461 44.5271 69.3689 44.368 69.2815C44.1439 69.1578 43.9281 69.0183 43.6975 68.9095C43.0577 68.6072 42.4662 68.8565 42.2142 69.5214C42.0849 69.8637 42.1556 70.1771 42.3918 70.4403C42.5555 70.6225 42.7508 70.7769 42.9414 70.9332C43.1311 71.0885 43.3311 71.2317 43.5394 71.3889C43.3441 71.5144 43.173 71.5228 42.9795 71.4335C42.4308 71.1824 42.0375 70.789 41.8031 70.2292C41.3874 69.2396 42.2076 68.3729 43.0205 68.3468C43.3571 68.3357 43.6724 68.4119 44.0091 68.5552C43.9942 68.4752 43.9867 68.4184 43.9719 68.3636C43.9551 68.3022 43.9309 68.2427 43.9114 68.1813C43.7124 67.5815 43.7961 67.0439 44.275 66.6012C44.7791 66.1362 45.3603 65.9958 45.9955 66.2711C46.8381 66.6366 47.2873 67.3117 47.4203 68.2083C47.4231 68.2259 47.4231 68.2445 47.4212 68.2631C47.4203 68.2836 47.4138 68.3003 47.4045 68.3329Z" fill="black"/>
<path d="M37.5843 37.6417C38.346 38.1643 39.1663 37.9765 39.6024 37.399C39.8228 37.1079 39.94 36.7768 40.0284 36.428C40.0739 36.2476 40.0907 36.0393 40.3111 35.9547C40.4385 36.0198 40.4757 36.1342 40.4785 36.2699C40.4952 37.0688 39.7363 38.1132 38.9737 38.3438C38.5562 38.4703 38.1442 38.4526 37.7359 38.3085C37.2988 38.1541 36.911 37.9151 36.5762 37.597C36.0089 37.0558 35.8341 36.2885 36.1066 35.5882C36.4097 34.8108 37.1379 34.4183 37.9573 34.5894C38.2642 34.6536 38.5487 34.7652 38.8268 34.9679C38.4111 35.8626 37.9972 36.7535 37.5843 37.6417ZM37.2226 37.5217C37.5908 36.7359 37.9424 35.9872 38.3116 35.1995C38.1107 35.1372 37.9349 35.0665 37.7527 35.0275C36.9184 34.8498 36.2033 35.5715 36.3744 36.4131C36.473 36.9051 36.7957 37.225 37.2226 37.5217Z" fill="black"/>
<path d="M34.293 50.4524C34.2995 49.6684 34.6175 49.1094 35.2527 48.7579C35.9512 48.371 36.6952 48.2957 37.4429 48.5961C38.1952 48.8983 38.6231 49.4786 38.6891 50.2859C38.756 51.1061 38.3831 51.7199 37.681 52.1198C36.9202 52.5523 36.1251 52.5607 35.3448 52.1812C34.6129 51.8241 34.3023 51.1936 34.293 50.4524ZM36.618 48.9104C36.1716 48.9178 35.7493 49.0192 35.3671 49.2564C35.0379 49.46 34.7924 49.7353 34.6929 50.1194C34.5078 50.8364 34.9058 51.5656 35.6322 51.8213C36.2171 52.0268 36.7993 51.9943 37.3675 51.746C37.7526 51.5776 38.0278 51.2921 38.199 50.9108C38.4073 50.4449 38.3617 50.0004 38.0437 49.5977C37.6819 49.1401 37.2076 48.902 36.618 48.9104Z" fill="black"/>
<path d="M40.2601 58.3472C40.8851 58.3732 41.4775 58.7313 41.8402 59.4288C42.1955 60.1133 42.1471 60.7968 41.6933 61.418C41.1316 62.1881 40.3671 62.5889 39.4008 62.4764C38.1174 62.3267 37.1707 60.7977 37.9891 59.532C38.4494 58.8187 39.2846 58.3435 40.2601 58.3472ZM39.6026 62.043C40.4629 62.0086 41.1232 61.5771 41.5231 60.7773C41.8988 60.0249 41.4738 59.1321 40.6628 58.9033C39.7617 58.6494 38.8252 59.0484 38.3267 59.9012C38.0523 60.3709 38.0151 60.8545 38.2858 61.3334C38.562 61.8217 39.0028 62.0393 39.6026 62.043Z" fill="black"/>
<path d="M52.9106 23.6816C52.906 23.4184 52.8325 23.1962 52.6939 22.9981C52.4428 22.641 52.0736 22.5898 51.6895 22.6735C51.4161 22.733 51.1566 22.8567 50.8925 22.9562C50.8004 22.9906 50.7149 23.0409 50.6135 23.0901C50.5875 22.946 50.6256 22.8325 50.7149 22.7516C51.1473 22.3601 51.6384 22.1313 52.2391 22.2485C52.6167 22.322 52.9171 22.5247 53.1282 22.84C53.2482 23.0204 53.3626 23.2176 53.4193 23.424C53.6583 24.2852 53.8741 25.1529 54.0964 26.0085C53.8425 26.2587 53.7988 26.241 53.5811 25.8067C53.4649 25.8997 53.3551 25.9927 53.2398 26.0782C53.0352 26.2317 52.8399 26.4019 52.6204 26.5293C52.0327 26.8706 51.3975 26.7348 51.0478 26.2131C50.6628 25.6393 50.7549 24.9306 51.2933 24.5233C51.7388 24.1866 52.228 23.9188 52.7609 23.7411C52.8046 23.7281 52.8464 23.7077 52.9106 23.6816ZM53.0417 24.0034C52.6372 24.1885 52.2457 24.3605 51.8597 24.5456C51.5565 24.6916 51.4003 24.9604 51.3287 25.2738C51.2087 25.7983 51.5928 26.2866 52.1173 26.2949C52.7618 26.3042 53.3356 25.7276 53.3124 25.0859C53.3003 24.7167 53.1822 24.3726 53.0417 24.0034Z" fill="black"/>
<path d="M45.3734 24.9295C45.4459 25.0123 45.5184 25.0737 45.5649 25.1509C45.7798 25.5117 45.9872 25.8762 46.1973 26.2399C46.2429 26.318 46.2903 26.3952 46.3545 26.5021C47.0306 26.1199 47.6993 25.7414 48.3884 25.3527C48.1038 24.8374 47.8313 24.3445 47.5579 23.8489C47.6137 23.7884 47.6509 23.7363 47.6993 23.6982C47.8295 23.5987 47.9271 23.6089 48.0304 23.7326C48.0713 23.781 48.102 23.8377 48.1336 23.8935C48.7121 24.9183 49.2905 25.9441 49.869 26.9699C49.9043 27.0322 49.9322 27.0992 49.9703 27.1764C49.9108 27.2285 49.8606 27.2805 49.803 27.3215C49.6979 27.3959 49.5918 27.3838 49.51 27.2861C49.4468 27.2099 49.3965 27.1215 49.3472 27.0341C49.1008 26.5979 48.8553 26.1608 48.5921 25.6912C47.9048 26.0799 47.2343 26.4584 46.5461 26.8472C46.8707 27.434 47.1869 28.006 47.5096 28.5909C47.3719 28.6783 47.2575 28.7509 47.1273 28.8336C47.0818 28.7695 47.0362 28.7165 47.0027 28.657C46.4391 27.6544 45.8839 26.6472 45.3101 25.6512C45.1669 25.4057 45.1483 25.1983 45.3734 24.9295Z" fill="black"/>
<path d="M38.5043 42.7783C37.6506 42.5653 36.8275 42.3598 36.0045 42.1552C35.6055 42.0566 35.2065 41.9599 34.8076 41.8632C34.7722 41.8548 34.735 41.852 34.6997 41.8427C34.4123 41.7618 34.364 41.6465 34.509 41.3257C34.9499 41.4196 35.399 41.5163 35.8668 41.6167C35.9375 41.3889 35.9952 41.1787 36.0668 40.9732C36.1691 40.6802 36.2658 40.3845 36.3942 40.1027C36.5392 39.7856 36.7717 39.5456 37.1168 39.434C38.044 39.1336 38.9042 39.78 38.8233 40.7528C38.775 41.3424 38.6503 41.9255 38.5583 42.5123C38.5471 42.5905 38.5266 42.6695 38.5043 42.7783ZM38.3118 42.2482C38.3844 41.6577 38.4643 41.0894 38.4215 40.5138C38.4076 40.3324 38.3072 40.1892 38.1658 40.0757C37.6682 39.6758 36.9875 39.8218 36.7252 40.4012C36.556 40.7742 36.423 41.1648 36.276 41.5479C36.2546 41.6028 36.2463 41.6623 36.2277 41.7339C36.927 41.906 37.6069 42.0743 38.3118 42.2482Z" fill="black"/>
<path d="M44.1727 30.4388C44.2769 30.5941 44.3131 30.728 44.2666 30.8926C44.0295 31.725 43.2018 32.4058 42.3397 32.4457C42.1341 32.455 41.9174 32.4197 41.7203 32.3593C41.0005 32.1407 40.4769 31.6804 40.156 31.0015C39.7106 30.0566 40.1653 28.8736 40.9307 28.35C41.0935 28.2384 41.2497 28.2338 41.4404 28.3231C41.392 28.3789 41.3474 28.43 41.3036 28.4802C41.0953 28.7211 40.86 28.9452 40.6833 29.2075C40.2974 29.7785 40.3085 30.3793 40.6629 30.9615C40.9763 31.4767 41.4413 31.7957 42.0328 31.9296C42.5182 32.0393 42.9516 31.9222 43.292 31.5734C43.558 31.3009 43.7747 30.981 44.0109 30.6797C44.0648 30.6109 44.1095 30.5337 44.1727 30.4388Z" fill="black"/>
<path d="M66.4419 26.8965C66.3786 26.771 66.3805 26.6622 66.4372 26.545C67.0891 25.19 67.7383 23.8341 68.3883 22.4781C68.3995 22.4549 68.4228 22.4381 68.4562 22.4019C68.5957 22.4753 68.7362 22.5488 68.8868 22.6278C68.8543 22.6995 68.8347 22.7487 68.8096 22.7962C68.1317 24.0768 67.4537 25.3574 66.7757 26.638C66.7032 26.7747 66.6232 26.9021 66.4419 26.8965Z" fill="black"/>
<path d="M31.4855 88.8813H32.2378C32.2713 88.8813 32.2788 88.8953 32.2918 88.9223C32.5224 89.6207 33.3427 92.0545 33.485 92.6451H33.4915C33.6477 92.0824 34.5489 89.6142 34.7795 88.9223C34.786 88.8953 34.7935 88.8813 34.827 88.8813H35.5589C35.5923 88.8813 35.5923 88.8879 35.5998 88.9148L35.8304 93.3221C35.8369 93.3491 35.8165 93.363 35.7895 93.363H35.2873C35.2538 93.363 35.2399 93.3565 35.2399 93.3295C35.1785 91.7699 35.1106 89.6886 35.1106 89.2812H35.1041C34.9414 89.8913 34.0327 92.4544 33.7482 93.323C33.7417 93.3565 33.7212 93.3639 33.6942 93.3639H33.2199C33.179 93.3639 33.166 93.3574 33.1585 93.323C32.7996 92.1977 32.0872 89.9601 31.904 89.2747H31.89C31.8835 89.8644 31.7608 91.8992 31.6864 93.323C31.6864 93.3565 31.6724 93.3639 31.6389 93.3639H31.1776C31.1442 93.3639 31.1367 93.3574 31.1367 93.323L31.4353 88.9223C31.4446 88.8813 31.4585 88.8813 31.4855 88.8813Z" fill="black"/>
<path d="M39.6823 93.3231C39.6758 93.3566 39.6618 93.364 39.6349 93.364H37.0578C37.0104 93.364 37.0039 93.35 37.0039 93.3101V88.9298C37.0039 88.8963 37.0179 88.8823 37.0513 88.8823H39.5261C39.5595 88.8823 39.567 88.8888 39.5735 88.9232L39.6274 89.3501C39.6339 89.3771 39.6274 89.3975 39.594 89.3975H37.5666V90.8149H39.3977C39.4247 90.8149 39.4386 90.8288 39.4386 90.8558V91.2901C39.4386 91.3236 39.4182 91.331 39.3977 91.331H37.5666V92.8497H39.7232C39.7567 92.8497 39.7641 92.8637 39.7567 92.8906L39.6823 93.3231Z" fill="black"/>
<path d="M40.8882 93.364L40.8472 94.4288C40.8472 94.4558 40.8333 94.4623 40.8138 94.4623H40.3795C40.3525 94.4623 40.346 94.4484 40.3385 94.4214L40.332 92.8962C40.332 92.8692 40.346 92.8627 40.373 92.8627L40.651 92.8488C41.3764 91.9402 41.8442 90.3471 41.9056 88.9093C41.9056 88.8888 41.9195 88.8823 41.9391 88.8823H43.9665C43.9869 88.8823 43.9934 88.8963 44 88.9158V92.8488L44.5831 92.8553C44.61 92.8618 44.6165 92.8692 44.6165 92.9027L44.5347 94.4288C44.5347 94.4558 44.5208 94.4623 44.4938 94.4623H44.0753C44.0483 94.4623 44.0344 94.4484 44.0344 94.4149L44.0279 93.364H40.8882ZM43.4308 92.8488V89.3975H42.3799C42.2376 90.9906 41.7828 92.1029 41.2751 92.8488H43.4308Z" fill="black"/>
<path d="M45.8725 88.8813C45.893 88.8813 45.906 88.8952 45.906 88.9147V90.8203C45.906 91.5457 45.906 92.2711 45.8791 92.6915H45.8856C46.0344 92.3864 46.4278 91.7559 46.7533 91.2407L48.231 88.9147C48.245 88.8813 48.258 88.8813 48.285 88.8813H48.8067C48.8337 88.8813 48.8402 88.8878 48.8402 88.9147V93.322C48.8402 93.3425 48.8337 93.3629 48.8067 93.3629H48.3324C48.2989 93.3629 48.2915 93.349 48.2915 93.3155V91.5048C48.2915 90.705 48.2915 90.1219 48.3389 89.5862H48.325C48.1827 89.9256 47.7828 90.5831 47.4573 91.1049L46.0269 93.3285C46.013 93.3555 46 93.362 45.9655 93.362H45.4029C45.3694 93.362 45.3555 93.3415 45.3555 93.3146V88.9203C45.3555 88.8933 45.3759 88.8794 45.3964 88.8794H45.8725V88.8813Z" fill="black"/>
<path d="M50.1659 93.3639C50.1324 93.3639 50.125 93.35 50.125 93.3165V88.9223C50.125 88.8953 50.1315 88.8813 50.1585 88.8813H50.6607C50.6746 88.8813 50.6876 88.8879 50.6876 88.9223V92.8487H52.9392V88.9223C52.9392 88.8953 52.9531 88.8813 52.9801 88.8813H53.4749C53.4953 88.8813 53.5083 88.8879 53.5083 88.9148V92.8478L54.098 92.8543C54.1184 92.8608 54.1249 92.8682 54.1249 92.8952L54.044 94.4279C54.044 94.4548 54.0301 94.4613 54.0031 94.4613H53.5827C53.5558 94.4613 53.5493 94.4474 53.5493 94.4139L53.5353 93.363H50.1659V93.3639Z" fill="black"/>
<path d="M55.3794 88.8813C55.3999 88.8813 55.4129 88.8952 55.4129 88.9147V90.8203C55.4129 91.5457 55.4129 92.2711 55.3859 92.6915H55.3925C55.5413 92.3864 55.9346 91.7559 56.2601 91.2407L57.7388 88.9147C57.7528 88.8813 57.7658 88.8813 57.7928 88.8813H58.3145C58.3415 88.8813 58.348 88.8878 58.348 88.9147V93.322C58.348 93.3425 58.3415 93.3629 58.3145 93.3629H57.8402C57.8067 93.3629 57.7993 93.349 57.7993 93.3155V91.5048C57.7993 90.705 57.7993 90.1219 57.8467 89.5862H57.8328C57.6905 89.9256 57.2906 90.5831 56.9651 91.1049L55.5347 93.3285C55.5208 93.3555 55.5078 93.362 55.4734 93.362H54.9107C54.8772 93.362 54.8633 93.3415 54.8633 93.3146V88.9203C54.8633 88.8933 54.8837 88.8794 54.9042 88.8794H55.3794V88.8813Z" fill="black"/>
<path d="M62.4896 93.364C62.4561 93.364 62.4422 93.3575 62.4422 93.3231V91.2752H60.1981V93.3166C60.1981 93.3435 60.1841 93.364 60.1506 93.364H59.6763C59.6429 93.364 59.6289 93.35 59.6289 93.3166V88.9298C59.6289 88.8963 59.6429 88.8823 59.6763 88.8823H60.1506C60.1841 88.8823 60.1981 88.8963 60.1981 88.9232V90.7609H62.4422V88.9232C62.4422 88.8963 62.4561 88.8823 62.4831 88.8823H62.9778C62.9983 88.8823 63.0113 88.8963 63.0113 88.9232V93.324C63.0113 93.3575 62.9974 93.3649 62.9704 93.3649H62.4896V93.364Z" fill="black"/>
<path d="M67.2362 93.2347C67.2362 93.2682 67.2297 93.2961 67.2027 93.3026C66.9786 93.3974 66.6671 93.4318 66.2876 93.4318C65.1549 93.4318 63.9961 92.7743 63.9961 91.1124C63.9961 89.7565 64.9317 88.8135 66.376 88.8135C66.8307 88.8135 67.0949 88.8609 67.2437 88.9353C67.2641 88.9418 67.2771 88.9623 67.2771 88.9892V89.444C67.2771 89.4849 67.2502 89.4849 67.2297 89.4775C67.04 89.3761 66.7349 89.3213 66.362 89.3213C65.2972 89.3213 64.5718 90.0132 64.5718 91.0976C64.5718 92.5149 65.6366 92.9148 66.3481 92.9148C66.694 92.9148 66.9451 92.8878 67.1953 92.7929C67.2223 92.7864 67.2362 92.7864 67.2362 92.8199V93.2347Z" fill="black"/>
<path d="M68.2388 93.364C68.2053 93.364 68.1914 93.35 68.1914 93.3101V88.9232C68.1914 88.8963 68.1979 88.8823 68.2323 88.8823H68.7141C68.741 88.8823 68.755 88.8963 68.755 88.9298V90.8418H69.0061C69.1149 90.8418 69.1419 90.8418 69.2098 90.76C69.6571 90.2578 70.3351 89.431 70.7833 88.9158C70.8038 88.8953 70.8168 88.8823 70.8577 88.8823H71.3934C71.4343 88.8823 71.4408 88.9158 71.4204 88.9437C70.9256 89.5063 70.0774 90.4894 69.5892 91.039C69.5752 91.0594 69.5752 91.066 69.5892 91.0864L71.5831 93.3035C71.6036 93.3305 71.5971 93.3649 71.5627 93.3649H70.9656C70.9247 93.3649 70.9042 93.3584 70.8707 93.324L69.1688 91.4324C69.1009 91.358 69.074 91.3515 68.9717 91.3515H68.755V93.3175C68.755 93.351 68.741 93.3649 68.7141 93.3649H68.2388V93.364Z" fill="black"/>
<path d="M72.6733 88.8813C72.6938 88.8813 72.7068 88.8952 72.7068 88.9147V90.8203C72.7068 91.5457 72.7068 92.2711 72.6798 92.6915H72.6864C72.8352 92.3864 73.2285 91.7559 73.554 91.2407L75.0318 88.9147C75.0458 88.8813 75.0588 88.8813 75.0857 88.8813H75.6075C75.6345 88.8813 75.641 88.8878 75.641 88.9147V93.322C75.641 93.3425 75.6345 93.3629 75.6075 93.3629H75.1332C75.0997 93.3629 75.0923 93.349 75.0923 93.3155V91.5048C75.0923 90.705 75.0923 90.1219 75.1397 89.5862H75.1257C74.9835 89.9256 74.5836 90.5831 74.2581 91.1049L72.8277 93.3285C72.8138 93.3555 72.8007 93.362 72.7663 93.362H72.2037C72.1702 93.362 72.1562 93.3415 72.1562 93.3146V88.9203C72.1562 88.8933 72.1767 88.8794 72.1972 88.8794H72.6733V88.8813Z" fill="black"/>
<path d="M77.439 88.8813C77.4594 88.8813 77.4724 88.8952 77.4724 88.9148V90.8203C77.4724 91.5457 77.4724 92.2711 77.4455 92.6915H77.452C77.6008 92.3865 77.9942 91.7559 78.3197 91.2407L79.7974 88.9148C79.8114 88.8813 79.8244 88.8813 79.8514 88.8813H80.3731C80.4001 88.8813 80.4066 88.8878 80.4066 88.9148V93.322C80.4066 93.3425 80.4001 93.363 80.3731 93.363H79.8988C79.8653 93.363 79.8579 93.349 79.8579 93.3155V91.5048C79.8579 90.705 79.8579 90.1219 79.9053 89.5862H79.8914C79.7491 89.9257 79.3492 90.5832 79.0237 91.1049L77.5933 93.3285C77.5794 93.3555 77.5664 93.362 77.532 93.362H76.9693C76.9358 93.362 76.9219 93.3416 76.9219 93.3146V88.9203C76.9219 88.8934 76.9423 88.8794 76.9628 88.8794H77.439V88.8813ZM77.9951 87.6611C78.0221 87.6611 78.0286 87.6676 78.0425 87.6946C78.1513 87.9187 78.3346 88.0815 78.6731 88.0815C78.9986 88.0815 79.2022 87.9522 79.3241 87.702C79.338 87.6751 79.338 87.6611 79.365 87.6611H79.7444C79.7854 87.6611 79.7919 87.6881 79.7853 87.7086C79.6561 88.2033 79.2497 88.5223 78.6731 88.5223C78.0965 88.5223 77.6901 88.2507 77.5673 87.702C77.5608 87.6751 77.5812 87.6611 77.6082 87.6611H77.9951Z" fill="black"/>
<path d="M83.4394 93.3639C83.4059 93.3639 83.3984 93.35 83.3984 93.3165V88.9223C83.3984 88.8953 83.4049 88.8813 83.4319 88.8813H83.9341C83.9481 88.8813 83.9611 88.8879 83.9611 88.9223V92.8487H86.2126V88.9223C86.2126 88.8953 86.2266 88.8813 86.2535 88.8813H86.7483C86.7688 88.8813 86.7818 88.8879 86.7818 88.9148V92.8478L87.3714 92.8543C87.3919 92.8608 87.3984 92.8682 87.3984 92.8952L87.3165 94.4279C87.3165 94.4548 87.3026 94.4613 87.2756 94.4613H86.8553C86.8283 94.4613 86.8218 94.4474 86.8218 94.4139L86.8078 93.363H83.4394V93.3639Z" fill="black"/>
<path d="M90.819 93.3231C90.8125 93.3566 90.7986 93.364 90.7716 93.364H88.1946C88.1471 93.364 88.1406 93.35 88.1406 93.3101V88.9298C88.1406 88.8963 88.1546 88.8823 88.1881 88.8823H90.6628C90.6963 88.8823 90.7037 88.8888 90.7102 88.9232L90.7642 89.3501C90.7707 89.3771 90.7642 89.3975 90.7307 89.3975H88.7033V90.8149H90.5344C90.5614 90.8149 90.5754 90.8288 90.5754 90.8558V91.2901C90.5754 91.3236 90.5549 91.331 90.5344 91.331H88.7033V92.8497H90.8599C90.8934 92.8497 90.9009 92.8637 90.8934 92.8906L90.819 93.3231Z" fill="black"/>
<path d="M94.6224 93.364C94.5889 93.364 94.575 93.3575 94.575 93.3231V91.2752H92.3309V93.3166C92.3309 93.3435 92.3169 93.364 92.2834 93.364H91.8091C91.7757 93.364 91.7617 93.35 91.7617 93.3166V88.9298C91.7617 88.8963 91.7757 88.8823 91.8091 88.8823H92.2834C92.3169 88.8823 92.3309 88.8963 92.3309 88.9232V90.7609H94.575V88.9232C94.575 88.8963 94.5889 88.8823 94.6159 88.8823H95.1106C95.1311 88.8823 95.1441 88.8963 95.1441 88.9232V93.324C95.1441 93.3575 95.1302 93.3649 95.1032 93.3649H94.6224V93.364Z" fill="black"/>
<path d="M97.373 89.3975H95.9222C95.8952 89.3975 95.8813 89.3836 95.8887 89.3501L95.9566 88.9232C95.9631 88.8963 95.9771 88.8823 96.0105 88.8823H99.326C99.3595 88.8823 99.3734 88.8963 99.3799 88.9298L99.4274 89.3501C99.4339 89.3836 99.4208 89.3975 99.3939 89.3975H97.9431V93.3101C97.9431 93.351 97.9291 93.364 97.8956 93.364H97.4279C97.3944 93.364 97.3739 93.35 97.3739 93.3166V89.3975H97.373Z" fill="black"/>
<path d="M100.174 88.9361C100.174 88.9091 100.18 88.8886 100.207 88.8886C100.424 88.8821 100.872 88.8682 101.326 88.8682C102.527 88.8682 103.055 89.5461 103.055 90.3059C103.055 91.3364 102.241 91.8181 101.258 91.8181C100.974 91.8181 100.885 91.8116 100.735 91.8116V93.3173C100.735 93.3508 100.729 93.3647 100.695 93.3647H100.213C100.186 93.3647 100.172 93.3508 100.172 93.3238V88.9361H100.174ZM100.736 91.302C100.852 91.3085 100.967 91.3085 101.252 91.3085C101.917 91.3085 102.492 91.0574 102.492 90.318C102.492 89.7014 102.018 89.3685 101.333 89.3685C101.054 89.3685 100.844 89.375 100.735 89.3825V91.302H100.736Z" fill="black"/>
<path d="M40.6004 100.017H42.984C43.0909 100.017 43.1123 100.06 43.156 100.145C43.8861 102.357 46.4836 110.065 46.9346 111.932H46.956C47.4498 110.15 50.3049 102.336 51.035 100.145C51.0564 100.06 51.0778 100.017 51.1856 100.017H53.5041C53.6111 100.017 53.6111 100.038 53.6334 100.124L54.3634 114.08C54.3848 114.165 54.3207 114.209 54.2342 114.209H52.6457C52.5388 114.209 52.4951 114.187 52.4951 114.102C52.3016 109.164 52.0868 102.573 52.0868 101.285H52.0654C51.5502 103.217 48.6728 111.332 47.7716 114.081C47.7502 114.187 47.686 114.21 47.5996 114.21H46.0967C45.9683 114.21 45.9246 114.188 45.9032 114.081C44.7649 110.517 42.5106 103.432 41.9312 101.263H41.8884C41.867 103.131 41.4802 109.572 41.2439 114.081C41.2439 114.187 41.2012 114.21 41.0933 114.21H39.6332C39.5262 114.21 39.5039 114.188 39.5039 114.081L40.4488 100.146C40.472 100.017 40.5148 100.017 40.6004 100.017Z" fill="#DF2E28"/>
<path d="M59.578 109.742L58.0323 114.079C58.0109 114.164 57.9682 114.208 57.8603 114.208H56.4002C56.2932 114.208 56.2495 114.144 56.2709 114.036L60.9516 101.004C61.0158 100.832 61.0799 100.682 61.1023 100.124C61.1023 100.06 61.145 100.017 61.2092 100.017H63.3129C63.3984 100.017 63.4198 100.038 63.4421 100.124L68.4874 114.058C68.5302 114.144 68.5088 114.209 68.4018 114.209H66.7697C66.6841 114.209 66.6404 114.166 66.5976 114.102L65.0306 109.744H59.578V109.742ZM64.5377 108.089C64.0652 106.694 62.713 102.937 62.3047 101.477H62.2834C61.9188 102.851 60.8874 105.728 60.0718 108.089H64.5377Z" fill="#DF2E28"/>
<path d="M70.7678 114.208C70.6609 114.208 70.6172 114.165 70.6172 114.036V100.145C70.6172 100.06 70.6386 100.017 70.7465 100.017H72.2707C72.3563 100.017 72.3991 100.06 72.3991 100.168V106.222H73.1933C73.5365 106.222 73.6229 106.222 73.8378 105.964C75.2551 104.376 77.4015 101.756 78.8189 100.125C78.883 100.061 78.9258 100.018 79.0551 100.018H80.7514C80.8797 100.018 80.9021 100.125 80.837 100.211C79.2699 101.993 76.5859 105.107 75.0403 106.845C74.9975 106.909 74.9975 106.931 75.0403 106.996L81.3522 114.016C81.4163 114.102 81.395 114.21 81.288 114.21H79.3982C79.269 114.21 79.2048 114.188 79.0979 114.081L73.7085 108.09C73.4937 107.854 73.4081 107.833 73.0863 107.833H72.3991V114.058C72.3991 114.165 72.3563 114.209 72.2707 114.209H70.7678V114.208Z" fill="#DF2E28"/>
<path d="M94.683 107.038C94.7043 111.653 91.9776 114.423 88.2632 114.423C84.1628 114.423 81.7578 111.31 81.7578 107.08C81.7578 102.765 84.4846 99.8022 88.2204 99.8022C92.2566 99.8022 94.6616 102.979 94.683 107.038ZM88.3059 112.813C91.161 112.813 92.8574 110.494 92.836 107.08C92.836 103.753 91.0113 101.412 88.199 101.412C85.6229 101.412 83.5834 103.409 83.5834 107.08C83.5834 110.193 85.2146 112.813 88.3059 112.813Z" fill="#DF2E28"/>
</svg>
