<svg width="125" height="45" viewBox="0 0 125 45" fill="none" xmlns="http://www.w3.org/2000/svg">
<g id="Frame 30">
<g id="Group 13">
<g id="Group">
<path id="Vector" d="M28.2724 13.7236C28.387 13.5096 28.4967 13.3378 28.5754 13.1535C29.0944 11.9311 29.7812 10.8179 30.6971 9.8502C31.8179 8.66651 33.1611 7.82033 34.6747 7.23435C35.5871 6.88097 36.5251 6.61525 37.4934 6.47169C38.3086 6.3509 39.1285 6.33295 39.9485 6.41026C42.5236 6.6539 44.7591 7.66365 46.6413 9.43056C48.3972 11.0794 49.458 13.1059 49.8266 15.4898C50.0288 16.7977 50.0412 18.1105 49.9163 19.4253C49.6761 21.9576 48.8361 24.2967 47.6235 26.515C46.4149 28.725 44.9137 30.7211 43.1813 32.5425C42.4663 33.2941 41.7078 34.0036 40.9672 34.7304C40.8913 34.8049 40.8029 34.8678 40.696 34.9561C40.6635 34.8222 40.6663 34.7159 40.6663 34.6117C40.6656 33.6689 40.6663 32.7254 40.667 31.7826C40.667 31.5113 40.6697 31.2401 40.6677 30.9681C40.6656 30.6969 40.5966 30.6251 40.3336 30.6265C38.3727 30.6396 36.4126 30.6541 34.4524 30.67C34.3675 30.6707 34.2833 30.6907 34.1881 30.7031C34.1881 32.0952 34.1881 33.4639 34.1881 34.8615C33.9017 34.8802 33.6263 34.8684 33.3516 34.8705C33.0734 34.8726 32.7953 34.8712 32.5171 34.8712C32.239 34.8712 31.9608 34.8712 31.6827 34.8712C31.4045 34.8712 31.1264 34.8712 30.8482 34.8712C30.5708 34.8712 30.2926 34.8712 30.02 34.8712C29.9662 35.0272 29.9544 41.1354 30.0076 41.3763C30.9842 41.3763 31.9656 41.3763 32.9416 41.3763C32.9878 41.495 32.905 41.5247 32.847 41.564C32.5944 41.7359 32.3411 41.905 32.0871 42.0748C31.0332 42.7802 29.971 43.4731 28.9281 44.1951C28.4733 44.5098 28.0647 44.4939 27.6126 44.2061C26.1356 43.2661 24.691 42.2805 23.2864 41.2348C20.5878 39.227 18.0506 37.0322 15.6577 34.6683C14.4457 33.4708 13.2668 32.2436 12.2046 30.9081C10.5178 28.7871 9.13671 26.4888 8.16284 23.953C7.69212 22.7279 7.32977 21.4731 7.13652 20.1735C6.66787 17.0275 7.17379 14.0507 8.74605 11.2789C10.0712 8.94259 12.0611 7.41173 14.6031 6.58142C15.8385 6.17766 17.105 5.95956 18.4047 6.01961C20.9556 6.13694 23.216 6.97553 25.0561 8.79765C25.983 9.71492 26.7616 10.7461 27.3475 11.916C27.6181 12.4557 27.8893 12.994 28.1613 13.5324C28.1861 13.5807 28.2151 13.6256 28.2724 13.7236Z" fill="#DF2E28"/>
<path id="Vector_2" d="M39.6397 44.583C38.1406 44.583 36.6781 44.583 35.1963 44.583C35.1707 44.1158 35.188 43.6568 35.1845 43.1978C35.1811 42.7368 35.1838 42.2757 35.1838 41.814C35.1838 41.3536 35.1838 40.8932 35.1838 40.4115C34.7083 40.3811 34.25 40.4004 33.7924 40.397C33.3314 40.3935 32.8696 40.3963 32.4086 40.3963C31.9482 40.3963 31.4885 40.3963 31.0337 40.3963C30.984 40.23 30.9764 36.2165 31.0247 35.9963C31.4775 35.9721 31.9358 35.9894 32.3941 35.9859C32.8551 35.9825 33.3169 35.9853 33.7779 35.9853C34.2376 35.9853 34.6966 35.9853 35.1749 35.9853C35.1797 35.8838 35.1866 35.8044 35.1866 35.725C35.1873 34.511 35.1873 33.2969 35.1873 32.0829C35.1873 32.0284 35.19 31.9745 35.1873 31.92C35.1825 31.8199 35.2246 31.7661 35.3288 31.7682C35.3833 31.7688 35.4371 31.7668 35.4917 31.7668C36.7602 31.7668 38.0288 31.7661 39.2967 31.7675C39.3892 31.7675 39.4824 31.7771 39.6004 31.784C39.6004 33.1817 39.6004 34.5621 39.6004 35.957C39.8516 36.0018 40.0815 35.9749 40.3086 35.9797C40.5391 35.9846 40.7696 35.9811 41.0001 35.9811C41.2306 35.9811 41.4612 35.9811 41.6917 35.9811C41.9222 35.9811 42.1528 35.9811 42.3833 35.9811C42.6138 35.9811 42.8443 35.9811 43.0749 35.9811C43.3047 35.9811 43.5338 35.9811 43.7837 35.9811C43.792 36.0681 43.8044 36.1399 43.8051 36.211C43.8065 37.5265 43.8065 38.8427 43.8058 40.1582C43.8058 40.2244 43.7982 40.2914 43.7934 40.3846C43.5525 40.3866 43.324 40.3894 43.0962 40.3908C42.8657 40.3915 42.6352 40.3908 42.4047 40.3908C42.1742 40.3908 41.9436 40.3908 41.7131 40.3908C41.4895 40.3908 41.2652 40.3908 41.0415 40.3908C40.811 40.3908 40.5805 40.3908 40.35 40.3908C40.1215 40.3908 39.8924 40.3908 39.6404 40.3908C39.6397 41.7967 39.6397 43.1764 39.6397 44.583Z" fill="#1D8745"/>
</g>
<path id="Vector_3" d="M24.4648 4.79567C24.4911 4.7653 24.5166 4.71423 24.558 4.69283C24.616 4.66246 24.685 4.64659 24.7506 4.639C24.8376 4.62864 24.8824 4.6811 24.8514 4.76047C24.8148 4.85434 24.7713 4.94752 24.7161 5.03103C24.6616 5.11386 24.5504 5.09039 24.5159 4.99445C24.4952 4.93716 24.4849 4.87712 24.4648 4.79567Z" fill="black"/>
<path id="Vector_4" d="M5.14844 32.1887C5.92077 31.6531 6.67723 31.1285 7.4461 30.5957C7.41574 30.4977 7.38606 30.4031 7.35017 30.2886C7.67456 30.0725 7.99895 29.8565 8.32748 29.6377C8.4179 29.726 8.38408 29.7999 8.33093 29.862C8.2205 29.9904 8.10593 30.116 7.98722 30.2368C7.91613 30.3093 7.83399 30.3707 7.74496 30.448C8.18392 31.085 8.60563 31.6966 9.03563 32.3212C9.30549 32.1479 9.56018 31.9844 9.81417 31.8215C9.96118 31.9699 9.97222 32.0665 9.81693 32.1673C9.57881 32.3219 9.32689 32.4551 9.07497 32.5862C9.02113 32.6145 8.94176 32.6049 8.87619 32.5966C8.60563 32.5614 8.35509 32.6083 8.11007 32.7339C7.61589 32.9872 7.11343 33.2246 6.61787 33.4752C6.48535 33.5421 6.36525 33.6319 6.2141 33.7264C5.86486 33.2233 5.51562 32.7187 5.14844 32.1887ZM6.21962 33.2405C7.00714 32.8582 7.77947 32.4944 8.55387 32.1079C8.25708 31.6786 7.97825 31.2742 7.69112 30.858C6.97746 31.3528 6.2845 31.8332 5.58326 32.3198C5.79929 32.6332 6.0029 32.9272 6.21962 33.2405Z" fill="black"/>
<path id="Vector_5" d="M5.04503 25.9908C5.37426 25.9128 5.66966 25.8431 5.96438 25.774C6.05686 25.752 6.14935 25.7333 6.24115 25.7085C6.33501 25.6829 6.38125 25.734 6.41231 25.8092C6.44682 25.8928 6.44544 25.9756 6.35779 26.0211C6.28049 26.0612 6.1949 26.0888 6.1107 26.1102C5.13338 26.3586 4.15468 26.605 3.17667 26.8514C2.94131 26.9108 2.70527 26.9702 2.47681 27.0281C2.31461 26.8197 2.33463 26.7417 2.55411 26.663C2.62175 26.6389 2.6887 26.6113 2.79016 26.5719C2.70458 26.516 2.6535 26.478 2.59829 26.447C1.79697 25.9901 1.6748 24.7746 2.53341 24.2032C3.00619 23.8884 3.52453 23.7628 4.08152 23.8691C4.8856 24.023 5.30041 24.6518 5.15064 25.4552C5.11958 25.6201 5.08506 25.7858 5.04503 25.9908ZM4.91942 25.224C4.91735 24.7415 4.64748 24.3723 4.18367 24.2466C3.57147 24.0817 3.0269 24.2384 2.55964 24.6497C2.31116 24.8678 2.20211 25.1598 2.25388 25.4931C2.3436 26.0715 2.90473 26.4836 3.48726 26.3876C3.73987 26.3455 3.9911 26.28 4.23474 26.1992C4.67578 26.0536 4.92149 25.6905 4.91942 25.224Z" fill="black"/>
<path id="Vector_6" d="M16.9954 3.43387C16.8746 3.43387 16.7745 3.43387 16.6523 3.43387C16.7738 2.41721 16.8932 1.41159 17.0126 0.412189C17.306 0.286573 17.4668 0.366638 17.571 0.682058C17.7925 1.35086 18.0127 2.02035 18.2343 2.68915C18.266 2.7844 18.3012 2.87826 18.3461 3.00388C18.3854 2.93624 18.4151 2.89483 18.4351 2.84996C18.7278 2.17909 19.019 1.50753 19.3103 0.836661C19.3241 0.805602 19.3358 0.773854 19.3496 0.742796C19.4787 0.457744 19.6009 0.40529 19.9322 0.501918C19.9322 1.5172 19.9322 2.53731 19.9322 3.55604C19.741 3.57329 19.6871 3.53878 19.6713 3.36554C19.6588 3.22405 19.6637 3.08118 19.6623 2.93831C19.6582 2.40272 19.6568 1.86712 19.6506 1.33084C19.6492 1.20315 19.6361 1.07547 19.5891 0.934668C19.5595 0.996096 19.5277 1.05615 19.5001 1.11826C19.1999 1.78568 18.8996 2.4531 18.6015 3.12121C18.5373 3.26546 18.4489 3.38901 18.3192 3.49461C18.1742 3.37797 18.0852 3.2351 18.0272 3.06324C17.8057 2.40893 17.5772 1.75669 17.3508 1.10377C17.3336 1.05338 17.3108 1.00507 17.2715 0.955373C17.1962 1.36259 17.1659 1.77395 17.1251 2.18393C17.0844 2.59459 17.0402 3.00457 16.9954 3.43387Z" fill="black"/>
<path id="Vector_7" d="M0.853955 19.2309C0.853955 19.1046 0.847744 18.9907 0.855336 18.8775C0.878113 18.5186 0.904339 18.1604 0.931947 17.8022C0.938159 17.7214 0.951271 17.64 0.969216 17.5613C1.03271 17.2846 1.19767 17.0996 1.48135 17.0471C1.77882 16.9926 2.03419 17.0692 2.20605 17.337C2.25644 17.4157 2.30199 17.4978 2.3717 17.6152C2.41863 17.5109 2.45176 17.435 2.48696 17.3605C2.67263 16.9588 2.99218 16.8394 3.41113 16.936C3.66582 16.9947 3.82594 17.1617 3.85631 17.4295C3.89979 17.8132 3.93845 18.1977 3.97572 18.5821C3.98814 18.7105 3.98883 18.8396 3.99366 18.9686C3.99987 19.1439 3.92395 19.2302 3.7445 19.2371C3.5685 19.2433 3.39181 19.2399 3.21512 19.2406C2.47592 19.2413 1.73603 19.242 0.996826 19.2413C0.950583 19.2406 0.905029 19.2344 0.853955 19.2309ZM2.46557 18.8893C2.91557 18.8893 3.33935 18.8893 3.78867 18.8893C3.76935 18.4938 3.7583 18.1107 3.66444 17.7353C3.60784 17.5109 3.36213 17.3101 3.153 17.3066C2.94663 17.3032 2.69333 17.4985 2.62914 17.7215C2.52078 18.0942 2.5056 18.48 2.46557 18.8893ZM1.09483 18.8561C1.13693 18.8748 1.14936 18.8851 1.16109 18.8851C1.43855 18.8844 1.71601 18.89 1.99347 18.8782C2.16533 18.8713 2.2447 18.7995 2.23228 18.6677C2.20329 18.3654 2.18052 18.0596 2.11633 17.7636C2.03903 17.4046 1.64423 17.3011 1.37229 17.5468C1.27567 17.6345 1.23149 17.7449 1.21562 17.8678C1.17352 18.1963 1.13486 18.5255 1.09483 18.8561Z" fill="black"/>
<path id="Vector_8" d="M21.8853 0.779297C22.0061 0.898701 22.0027 1.0257 21.9633 1.16512C21.7707 1.8422 21.5816 2.52066 21.3918 3.19913C21.3815 3.23709 21.3739 3.27574 21.3566 3.35166C21.427 3.2999 21.4691 3.27298 21.5064 3.23985C22.1821 2.64214 22.8564 2.04443 23.5314 1.44672C23.7309 1.27003 23.8745 1.26589 24.1036 1.44051C24.076 1.54335 24.0477 1.65309 24.0166 1.76283C23.7882 2.57795 23.5577 3.39238 23.332 4.20819C23.3009 4.31931 23.2657 4.40145 23.1215 4.36901C23.0373 4.22614 23.0138 4.07637 23.0621 3.90865C23.2519 3.25158 23.4355 2.59244 23.6219 1.93469C23.6398 1.87119 23.6577 1.80838 23.6502 1.72763C23.6012 1.76904 23.5508 1.80907 23.5031 1.85187C22.9158 2.37503 22.3264 2.89544 21.7431 3.42275C21.5257 3.61876 21.2862 3.75888 20.9839 3.79546C20.8721 3.73058 20.9135 3.6305 20.9404 3.53318C21.1047 2.94652 21.269 2.35916 21.4339 1.77249C21.5036 1.52471 21.583 1.27969 21.6438 1.02984C21.6755 0.89387 21.7473 0.815187 21.8853 0.779297Z" fill="black"/>
<path id="Vector_9" d="M10.8142 35.0239C10.703 34.9763 10.6237 34.8962 10.5609 34.8003C10.4677 34.6588 10.3856 34.5097 10.2875 34.3716C10.1895 34.2343 10.0908 34.0928 9.97074 33.9762C9.67396 33.6897 9.28331 33.6607 8.92372 33.8802C8.55032 34.108 8.38536 34.4745 8.49441 34.8644C8.53237 34.9997 8.59518 35.1302 8.66144 35.2551C8.7346 35.3924 8.82847 35.5187 8.90646 35.6533C8.93683 35.7051 8.94787 35.7679 8.97479 35.8459C8.79948 35.85 8.6787 35.7928 8.56067 35.7279C8.39433 35.6361 8.23421 35.5326 8.06304 35.4518C7.58818 35.2275 7.14922 35.4125 6.96217 35.9059C6.86624 36.1599 6.91869 36.3925 7.094 36.5879C7.21548 36.7231 7.36042 36.8377 7.50191 36.9537C7.64271 37.0689 7.7911 37.1752 7.9457 37.2919C7.80076 37.385 7.67377 37.3913 7.53021 37.325C7.12299 37.1386 6.83104 36.8467 6.65711 36.4312C6.34859 35.6968 6.95735 35.0536 7.56058 35.0342C7.81043 35.0259 8.04441 35.0825 8.29426 35.1888C8.28321 35.1295 8.27769 35.0874 8.26665 35.0467C8.25422 35.0011 8.23628 34.9569 8.22178 34.9114C8.07408 34.4662 8.1362 34.0673 8.49165 33.7387C8.86574 33.3936 9.29711 33.2894 9.76852 33.4937C10.3938 33.765 10.7272 34.266 10.8259 34.9314C10.828 34.9445 10.828 34.9583 10.8266 34.9721C10.8259 34.9873 10.8211 34.9997 10.8142 35.0239Z" fill="black"/>
<path id="Vector_10" d="M3.52233 12.2468C4.0876 12.6347 4.69635 12.4952 5.02005 12.0666C5.18363 11.8506 5.27059 11.6049 5.33616 11.3461C5.36998 11.2122 5.38241 11.0576 5.54599 10.9948C5.64054 11.0431 5.66815 11.128 5.67022 11.2287C5.68264 11.8216 5.11944 12.5967 4.55348 12.7679C4.24358 12.8617 3.93783 12.8486 3.63483 12.7416C3.31044 12.6271 3.02262 12.4497 2.77415 12.2136C2.35313 11.812 2.22338 11.2425 2.42561 10.7228C2.65061 10.1458 3.19103 9.85455 3.79909 9.98155C4.02686 10.0292 4.23806 10.112 4.44443 10.2625C4.13591 10.9264 3.82878 11.5876 3.52233 12.2468ZM3.25384 12.1577C3.52716 11.5745 3.78806 11.0189 4.06206 10.4343C3.91298 10.3881 3.78253 10.3356 3.64725 10.3066C3.02815 10.1748 2.49739 10.7104 2.62438 11.335C2.69754 11.7001 2.93704 11.9376 3.25384 12.1577Z" fill="black"/>
<path id="Vector_11" d="M1.07812 21.7538C1.08296 21.1719 1.319 20.7571 1.79041 20.4962C2.30875 20.2091 2.8609 20.1532 3.41582 20.3761C3.97419 20.6005 4.29168 21.0311 4.34069 21.6302C4.39038 22.239 4.11361 22.6945 3.59251 22.9913C3.02793 23.3122 2.43781 23.3185 1.85874 23.0369C1.31555 22.7718 1.08503 22.3039 1.07812 21.7538ZM2.80362 20.6094C2.47232 20.615 2.15897 20.6902 1.8753 20.8662C1.63097 21.0173 1.44876 21.2216 1.37491 21.5067C1.23756 22.0388 1.53297 22.5799 2.07201 22.7697C2.50614 22.9223 2.9382 22.8981 3.35992 22.7138C3.64566 22.5889 3.84995 22.377 3.97695 22.094C4.13156 21.7483 4.09774 21.4183 3.86169 21.1195C3.5932 20.7799 3.2412 20.6032 2.80362 20.6094Z" fill="black"/>
<path id="Vector_12" d="M5.50984 27.6143C5.97365 27.6336 6.4133 27.8993 6.68248 28.417C6.94613 28.925 6.91025 29.4322 6.57343 29.8933C6.15655 30.4648 5.58921 30.7623 4.8721 30.6787C3.91962 30.5676 3.217 29.4329 3.82438 28.4936C4.16602 27.9642 4.78582 27.6115 5.50984 27.6143ZM5.02187 30.3571C5.6603 30.3316 6.15034 30.0113 6.44712 29.4178C6.72596 28.8594 6.41054 28.1968 5.80869 28.027C5.13989 27.8386 4.44486 28.1347 4.07492 28.7676C3.87131 29.1161 3.8437 29.475 4.04455 29.8305C4.24954 30.1928 4.57669 30.3544 5.02187 30.3571Z" fill="black"/>
<path id="Vector_13" d="M14.8983 1.8862C14.8948 1.69088 14.8403 1.52592 14.7374 1.3789C14.5511 1.11387 14.2771 1.07591 13.992 1.13803C13.7891 1.1822 13.5965 1.27399 13.4005 1.34784C13.3322 1.37338 13.2687 1.41065 13.1935 1.44723C13.1741 1.34025 13.2024 1.25605 13.2687 1.196C13.5896 0.905432 13.9541 0.735641 14.3999 0.822606C14.6801 0.877131 14.9031 1.02759 15.0598 1.26157C15.1488 1.39547 15.2337 1.54179 15.2758 1.69502C15.4532 2.33414 15.6133 2.97809 15.7783 3.61307C15.5898 3.79873 15.5574 3.78562 15.3959 3.4633C15.3096 3.53232 15.2282 3.60134 15.1426 3.66484C14.9907 3.77872 14.8458 3.90503 14.6829 3.99958C14.2467 4.25289 13.7753 4.15212 13.5158 3.76491C13.23 3.33906 13.2984 2.81313 13.698 2.51083C14.0286 2.26098 14.3916 2.0622 14.7871 1.93037C14.8196 1.92071 14.8506 1.90553 14.8983 1.8862ZM14.9956 2.12501C14.6953 2.26236 14.4048 2.39004 14.1183 2.52739C13.8933 2.63575 13.7774 2.83522 13.7242 3.06782C13.6352 3.45709 13.9202 3.81944 14.3095 3.82565C14.7878 3.83255 15.2137 3.40463 15.1964 2.9284C15.1874 2.65439 15.0998 2.39901 14.9956 2.12501Z" fill="black"/>
<path id="Vector_14" d="M9.30603 2.81242C9.35986 2.87385 9.4137 2.9194 9.44821 2.97669C9.60764 3.24449 9.76156 3.51504 9.91754 3.78491C9.95136 3.84288 9.98656 3.90017 10.0342 3.97954C10.536 3.69587 11.0322 3.41496 11.5436 3.12646C11.3324 2.74409 11.1302 2.37829 10.9273 2.01042C10.9687 1.96555 10.9963 1.9269 11.0322 1.8986C11.1288 1.82475 11.2013 1.83234 11.2779 1.92414C11.3083 1.96003 11.3311 2.00213 11.3545 2.04354C11.7838 2.80414 12.2131 3.56543 12.6424 4.32671C12.6687 4.37296 12.6894 4.42265 12.7177 4.47994C12.6735 4.51859 12.6362 4.55724 12.5934 4.58761C12.5154 4.64282 12.4368 4.63385 12.376 4.56138C12.3291 4.50478 12.2918 4.43922 12.2552 4.37434C12.0723 4.05064 11.8901 3.72624 11.6948 3.37769C11.1847 3.6662 10.6871 3.94711 10.1764 4.23561C10.4172 4.67112 10.6519 5.09559 10.8914 5.52973C10.7893 5.59461 10.7044 5.64844 10.6077 5.70987C10.5739 5.66224 10.5401 5.62291 10.5153 5.57873C10.097 4.8347 9.68495 4.08722 9.25909 3.34802C9.1528 3.1658 9.139 3.01189 9.30603 2.81242Z" fill="black"/>
<path id="Vector_15" d="M4.20757 16.0585C3.57397 15.9004 2.96315 15.7479 2.35232 15.596C2.05623 15.5229 1.76013 15.4511 1.46404 15.3793C1.43781 15.3731 1.4102 15.371 1.38397 15.3641C1.1707 15.3041 1.13481 15.2185 1.24248 14.9804C1.56964 15.0501 1.903 15.1219 2.25017 15.1964C2.30262 15.0273 2.34542 14.8713 2.39856 14.7188C2.47448 14.5014 2.54627 14.2819 2.64151 14.0728C2.74918 13.8374 2.92173 13.6594 3.17779 13.5765C3.86592 13.3536 4.50435 13.8333 4.44431 14.5552C4.40842 14.9928 4.31593 15.4256 4.2476 15.8611C4.23932 15.9191 4.22413 15.9777 4.20757 16.0585ZM4.0647 15.6651C4.11853 15.2268 4.17789 14.8051 4.14614 14.3779C4.13579 14.2433 4.06125 14.137 3.95634 14.0528C3.58708 13.756 3.08186 13.8643 2.88722 14.2943C2.76161 14.5711 2.66291 14.861 2.55386 15.1453C2.53798 15.1861 2.53177 15.2302 2.51797 15.2834C3.03699 15.4111 3.54153 15.536 4.0647 15.6651Z" fill="black"/>
<path id="Vector_16" d="M8.41203 6.90062C8.48933 7.01589 8.51625 7.11527 8.48174 7.23744C8.30574 7.85516 7.69146 8.36039 7.05165 8.39007C6.89912 8.39697 6.7383 8.37074 6.59198 8.32588C6.05777 8.16368 5.66919 7.82203 5.43107 7.31819C5.10047 6.61695 5.43797 5.73902 6.00601 5.35044C6.12679 5.26762 6.24274 5.26417 6.38423 5.33043C6.34834 5.37184 6.31521 5.4098 6.28277 5.44707C6.12817 5.62583 5.95355 5.79217 5.82241 5.9868C5.53598 6.41058 5.54426 6.85645 5.80723 7.28851C6.03983 7.67088 6.38492 7.90762 6.82389 8.00701C7.18417 8.08845 7.5058 8.00149 7.75841 7.74266C7.95581 7.54044 8.11663 7.30301 8.29194 7.07939C8.33197 7.02831 8.3651 6.97102 8.41203 6.90062Z" fill="black"/>
<path id="Vector_17" d="M24.9414 4.27224C24.8944 4.17907 24.8958 4.09831 24.9379 4.01135C25.4217 3.00573 25.9035 1.99943 26.3859 0.99312C26.3942 0.975865 26.4115 0.963441 26.4363 0.936523C26.5399 0.991049 26.6441 1.04557 26.7559 1.10424C26.7317 1.15739 26.7172 1.19397 26.6986 1.22917C26.1955 2.17957 25.6923 3.12997 25.1891 4.08037C25.1353 4.18183 25.076 4.27639 24.9414 4.27224Z" fill="black"/>
</g>
<g id="Group_2">
<path id="Vector_18" d="M60.2967 15.0381H60.9368C60.9653 15.0381 60.9716 15.0499 60.9827 15.0729C61.1789 15.6671 61.8767 17.7376 61.9978 18.24H62.0033C62.1362 17.7614 62.9029 15.6615 63.0991 15.0729C63.1046 15.0499 63.111 15.0381 63.1395 15.0381H63.7621C63.7906 15.0381 63.7906 15.0436 63.7969 15.0666L63.9932 18.816C63.9987 18.839 63.9813 18.8508 63.9583 18.8508H63.5311C63.5026 18.8508 63.4907 18.8453 63.4907 18.8224C63.4385 17.4955 63.3808 15.7248 63.3808 15.3783H63.3752C63.2368 15.8973 62.4638 18.0779 62.2217 18.8168C62.2161 18.8453 62.1987 18.8516 62.1758 18.8516H61.7723C61.7375 18.8516 61.7264 18.8461 61.7201 18.8168C61.4147 17.8595 60.8086 15.9559 60.6527 15.3728H60.6409C60.6353 15.8744 60.5309 17.6055 60.4676 18.8168C60.4676 18.8453 60.4557 18.8516 60.4272 18.8516H60.0348C60.0063 18.8516 60 18.8461 60 18.8168L60.254 15.0729C60.2619 15.0381 60.2738 15.0381 60.2967 15.0381Z" fill="black"/>
<path id="Vector_19" d="M67.2708 18.817C67.2653 18.8455 67.2534 18.8518 67.2305 18.8518H65.0381C64.9977 18.8518 64.9922 18.84 64.9922 18.8059V15.0794C64.9922 15.0509 65.0041 15.0391 65.0325 15.0391H67.1379C67.1664 15.0391 67.1727 15.0446 67.1783 15.0739L67.2241 15.437C67.2297 15.46 67.2241 15.4774 67.1957 15.4774H65.4709V16.6832H67.0287C67.0517 16.6832 67.0635 16.695 67.0635 16.718V17.0875C67.0635 17.1159 67.0461 17.1223 67.0287 17.1223H65.4709V18.4143H67.3056C67.3341 18.4143 67.3404 18.4262 67.3341 18.4491L67.2708 18.817Z" fill="black"/>
<path id="Vector_20" d="M68.2974 18.8518L68.2625 19.7577C68.2625 19.7807 68.2507 19.7862 68.2341 19.7862H67.8646C67.8416 19.7862 67.8361 19.7744 67.8298 19.7514L67.8242 18.4538C67.8242 18.4309 67.8361 18.4254 67.859 18.4254L68.0956 18.4135C68.7127 17.6405 69.1107 16.2852 69.1629 15.062C69.1629 15.0446 69.1748 15.0391 69.1914 15.0391H70.9162C70.9336 15.0391 70.9391 15.0509 70.9447 15.0675V18.4135L71.4408 18.419C71.4637 18.4246 71.4692 18.4309 71.4692 18.4594L71.3996 19.7577C71.3996 19.7807 71.3878 19.7862 71.3648 19.7862H71.0088C70.9858 19.7862 70.974 19.7744 70.974 19.7459L70.9684 18.8518H68.2974ZM70.4605 18.4135V15.4774H69.5664C69.4454 16.8327 69.0585 17.779 68.6265 18.4135H70.4605Z" fill="black"/>
<path id="Vector_21" d="M72.5376 15.0377C72.555 15.0377 72.566 15.0496 72.566 15.0662V16.6874C72.566 17.3045 72.566 17.9216 72.5431 18.2792H72.5486C72.6752 18.0197 73.0099 17.4833 73.2868 17.045L74.544 15.0662C74.5559 15.0377 74.567 15.0377 74.5899 15.0377H75.0338C75.0567 15.0377 75.0623 15.0433 75.0623 15.0662V18.8157C75.0623 18.8331 75.0567 18.8505 75.0338 18.8505H74.6303C74.6018 18.8505 74.5955 18.8386 74.5955 18.8101V17.2697C74.5955 16.5892 74.5955 16.0932 74.6358 15.6374H74.6239C74.5029 15.9262 74.1627 16.4856 73.8858 16.9295L72.6689 18.8212C72.657 18.8441 72.646 18.8497 72.6167 18.8497H72.138C72.1095 18.8497 72.0977 18.8323 72.0977 18.8093V15.0709C72.0977 15.048 72.1151 15.0361 72.1325 15.0361H72.5376V15.0377Z" fill="black"/>
<path id="Vector_22" d="M76.1872 18.8516C76.1587 18.8516 76.1523 18.8398 76.1523 18.8113V15.0729C76.1523 15.0499 76.1579 15.0381 76.1808 15.0381H76.6081C76.6199 15.0381 76.631 15.0436 76.631 15.0729V18.4133H78.5465V15.0729C78.5465 15.0499 78.5584 15.0381 78.5813 15.0381H79.0022C79.0196 15.0381 79.0307 15.0436 79.0307 15.0666V18.4125L79.5323 18.4181C79.5497 18.4236 79.5553 18.4299 79.5553 18.4529L79.4864 19.7568C79.4864 19.7797 79.4746 19.7852 79.4516 19.7852H79.094C79.0711 19.7852 79.0655 19.7734 79.0655 19.7449L79.0537 18.8508H76.1872V18.8516Z" fill="black"/>
<path id="Vector_23" d="M80.6227 15.0377C80.6401 15.0377 80.6512 15.0496 80.6512 15.0662V16.6874C80.6512 17.3045 80.6512 17.9216 80.6282 18.2792H80.6338C80.7604 18.0197 81.0951 17.4833 81.372 17.045L82.63 15.0662C82.6418 15.0377 82.6529 15.0377 82.6759 15.0377H83.1197C83.1427 15.0377 83.1482 15.0433 83.1482 15.0662V18.8157C83.1482 18.8331 83.1427 18.8505 83.1197 18.8505H82.7162C82.6877 18.8505 82.6814 18.8386 82.6814 18.8101V17.2697C82.6814 16.5892 82.6814 16.0932 82.7217 15.6374H82.7099C82.5888 15.9262 82.2486 16.4856 81.9717 16.9295L80.7548 18.8212C80.743 18.8441 80.7319 18.8497 80.7026 18.8497H80.2239C80.1955 18.8497 80.1836 18.8323 80.1836 18.8093V15.0709C80.1836 15.048 80.201 15.0361 80.2184 15.0361H80.6227V15.0377Z" fill="black"/>
<path id="Vector_24" d="M86.6759 18.8518C86.6474 18.8518 86.6355 18.8463 86.6355 18.817V17.0748H84.7264V18.8115C84.7264 18.8344 84.7145 18.8518 84.686 18.8518H84.2825C84.2541 18.8518 84.2422 18.84 84.2422 18.8115V15.0794C84.2422 15.0509 84.2541 15.0391 84.2825 15.0391H84.686C84.7145 15.0391 84.7264 15.0509 84.7264 15.0739V16.6373H86.6355V15.0739C86.6355 15.0509 86.6474 15.0391 86.6704 15.0391H87.0913C87.1087 15.0391 87.1198 15.0509 87.1198 15.0739V18.8178C87.1198 18.8463 87.1079 18.8526 87.0849 18.8526H86.6759V18.8518Z" fill="black"/>
<path id="Vector_25" d="M90.7136 18.7418C90.7136 18.7703 90.708 18.794 90.6851 18.7996C90.4944 18.8803 90.2293 18.9095 89.9065 18.9095C88.9429 18.9095 87.957 18.3502 87.957 16.9363C87.957 15.7827 88.753 14.9805 89.9817 14.9805C90.3686 14.9805 90.5933 15.0208 90.7199 15.0841C90.7373 15.0896 90.7484 15.1071 90.7484 15.13V15.5169C90.7484 15.5517 90.7254 15.5517 90.708 15.5454C90.5466 15.4591 90.2871 15.4125 89.9698 15.4125C89.0639 15.4125 88.4468 16.0011 88.4468 16.9236C88.4468 18.1294 89.3527 18.4696 89.958 18.4696C90.2523 18.4696 90.4659 18.4467 90.6787 18.366C90.7017 18.3604 90.7136 18.3604 90.7136 18.3889V18.7418Z" fill="black"/>
<path id="Vector_26" d="M91.5638 18.8518C91.5353 18.8518 91.5234 18.84 91.5234 18.8059V15.0739C91.5234 15.0509 91.529 15.0391 91.5582 15.0391H91.9681C91.991 15.0391 92.0029 15.0509 92.0029 15.0794V16.7061H92.2165C92.3091 16.7061 92.332 16.7061 92.3898 16.6365C92.7704 16.2092 93.3471 15.5059 93.7285 15.0675C93.7459 15.0501 93.757 15.0391 93.7918 15.0391H94.2475C94.2823 15.0391 94.2879 15.0675 94.2705 15.0913C93.8495 15.5699 93.128 16.4062 92.7126 16.8738C92.7007 16.8912 92.7007 16.8968 92.7126 16.9142L94.4089 18.8004C94.4263 18.8233 94.4208 18.8526 94.3915 18.8526H93.8836C93.8488 18.8526 93.8313 18.8471 93.8029 18.8178L92.355 17.2085C92.2972 17.1452 92.2743 17.1397 92.1872 17.1397H92.0029V18.8123C92.0029 18.8407 91.991 18.8526 91.9681 18.8526H91.5638V18.8518Z" fill="black"/>
<path id="Vector_27" d="M95.3383 15.0377C95.3558 15.0377 95.3668 15.0496 95.3668 15.0662V16.6874C95.3668 17.3045 95.3668 17.9216 95.3439 18.2792H95.3494C95.476 18.0197 95.8107 17.4833 96.0876 17.045L97.3448 15.0662C97.3567 15.0377 97.3678 15.0377 97.3907 15.0377H97.8346C97.8575 15.0377 97.863 15.0433 97.863 15.0662V18.8157C97.863 18.8331 97.8575 18.8505 97.8346 18.8505H97.4311C97.4026 18.8505 97.3962 18.8386 97.3962 18.8101V17.2697C97.3962 16.5892 97.3962 16.0932 97.4366 15.6374H97.4247C97.3037 15.9262 96.9635 16.4856 96.6865 16.9295L95.4697 18.8212C95.4578 18.8441 95.4467 18.8497 95.4175 18.8497H94.9388C94.9103 18.8497 94.8984 18.8323 94.8984 18.8093V15.0709C94.8984 15.048 94.9158 15.0361 94.9333 15.0361H95.3383V15.0377Z" fill="black"/>
<path id="Vector_28" d="M99.393 15.038C99.4104 15.038 99.4215 15.0499 99.4215 15.0665V16.6877C99.4215 17.3048 99.4215 17.9219 99.3986 18.2796H99.4041C99.5307 18.0201 99.8654 17.4836 100.142 17.0453L101.4 15.0665C101.411 15.038 101.422 15.038 101.445 15.038H101.889C101.912 15.038 101.918 15.0436 101.918 15.0665V18.816C101.918 18.8334 101.912 18.8508 101.889 18.8508H101.486C101.457 18.8508 101.451 18.8389 101.451 18.8105V17.27C101.451 16.5896 101.451 16.0935 101.491 15.6378H101.479C101.358 15.9266 101.018 16.4859 100.741 16.9298L99.5244 18.8215C99.5125 18.8445 99.5014 18.85 99.4722 18.85H98.9935C98.965 18.85 98.9531 18.8326 98.9531 18.8097V15.0713C98.9531 15.0483 98.9705 15.0365 98.9879 15.0365H99.393V15.038ZM99.8662 14C99.8891 14 99.8946 14.0055 99.9065 14.0285C99.9991 14.2192 100.155 14.3576 100.443 14.3576C100.72 14.3576 100.893 14.2476 100.997 14.0348C101.009 14.0119 101.009 14 101.032 14H101.354C101.389 14 101.395 14.0229 101.389 14.0404C101.279 14.4613 100.933 14.7326 100.443 14.7326C99.9524 14.7326 99.6067 14.5016 99.5022 14.0348C99.4967 14.0119 99.5141 14 99.537 14H99.8662Z" fill="black"/>
<path id="Vector_29" d="M104.496 18.8516C104.467 18.8516 104.461 18.8398 104.461 18.8113V15.0729C104.461 15.0499 104.466 15.0381 104.489 15.0381H104.917C104.929 15.0381 104.94 15.0436 104.94 15.0729V18.4133H106.855V15.0729C106.855 15.0499 106.867 15.0381 106.89 15.0381H107.311C107.328 15.0381 107.339 15.0436 107.339 15.0666V18.4125L107.841 18.4181C107.858 18.4236 107.864 18.4299 107.864 18.4529L107.794 19.7568C107.794 19.7797 107.782 19.7852 107.759 19.7852H107.402C107.379 19.7852 107.373 19.7734 107.373 19.7449L107.361 18.8508H104.496V18.8516Z" fill="black"/>
<path id="Vector_30" d="M110.775 18.817C110.769 18.8455 110.757 18.8518 110.734 18.8518H108.542C108.502 18.8518 108.496 18.84 108.496 18.8059V15.0794C108.496 15.0509 108.508 15.0391 108.536 15.0391H110.642C110.67 15.0391 110.677 15.0446 110.682 15.0739L110.728 15.437C110.734 15.46 110.728 15.4774 110.7 15.4774H108.975V16.6832H110.533C110.556 16.6832 110.567 16.695 110.567 16.718V17.0875C110.567 17.1159 110.55 17.1223 110.533 17.1223H108.975V18.4143H110.81C110.838 18.4143 110.844 18.4262 110.838 18.4491L110.775 18.817Z" fill="black"/>
<path id="Vector_31" d="M114.008 18.8518C113.979 18.8518 113.968 18.8463 113.968 18.817V17.0748H112.058V18.8115C112.058 18.8344 112.047 18.8518 112.018 18.8518H111.615C111.586 18.8518 111.574 18.84 111.574 18.8115V15.0794C111.574 15.0509 111.586 15.0391 111.615 15.0391H112.018C112.047 15.0391 112.058 15.0509 112.058 15.0739V16.6373H113.968V15.0739C113.968 15.0509 113.979 15.0391 114.002 15.0391H114.423C114.441 15.0391 114.452 15.0509 114.452 15.0739V18.8178C114.452 18.8463 114.44 18.8526 114.417 18.8526H114.008V18.8518Z" fill="black"/>
<path id="Vector_32" d="M116.35 15.4774H115.116C115.093 15.4774 115.081 15.4655 115.088 15.437L115.145 15.0739C115.151 15.0509 115.163 15.0391 115.191 15.0391H118.012C118.04 15.0391 118.052 15.0509 118.058 15.0794L118.098 15.437C118.104 15.4655 118.093 15.4774 118.07 15.4774H116.835V18.8059C116.835 18.8407 116.824 18.8518 116.795 18.8518H116.397C116.369 18.8518 116.351 18.84 116.351 18.8115V15.4774H116.35Z" fill="black"/>
<path id="Vector_33" d="M118.732 15.0851C118.732 15.0622 118.738 15.0447 118.761 15.0447C118.945 15.0392 119.326 15.0273 119.712 15.0273C120.734 15.0273 121.183 15.6041 121.183 16.2505C121.183 17.1272 120.491 17.537 119.655 17.537C119.412 17.537 119.337 17.5315 119.21 17.5315V18.8124C119.21 18.8409 119.204 18.8528 119.175 18.8528H118.765C118.742 18.8528 118.73 18.8409 118.73 18.818V15.0851H118.732ZM119.211 17.0979C119.309 17.1034 119.407 17.1034 119.649 17.1034C120.215 17.1034 120.704 16.8898 120.704 16.2608C120.704 15.7363 120.301 15.453 119.718 15.453C119.481 15.453 119.302 15.4585 119.21 15.4649V17.0979H119.211Z" fill="black"/>
</g>
<g id="Group_3">
<path id="Vector_34" d="M68.05 24.5117H70.0778C70.1688 24.5117 70.187 24.5481 70.2242 24.6209C70.8453 26.5024 73.0551 33.0598 73.4388 34.6485H73.457C73.8771 33.1326 76.3061 26.4842 76.9272 24.6209C76.9454 24.5481 76.9636 24.5117 77.0554 24.5117H79.0278C79.1188 24.5117 79.1188 24.5299 79.1378 24.6027L79.7589 36.4754C79.7771 36.5482 79.7225 36.5853 79.6489 36.5853H78.2975C78.2066 36.5853 78.1694 36.5671 78.1694 36.4943C78.0048 32.2931 77.822 26.6859 77.822 25.5901H77.8038C77.3655 27.2342 74.9176 34.1382 74.1509 36.4762C74.1327 36.5671 74.0781 36.5861 74.0045 36.5861H72.726C72.6168 36.5861 72.5796 36.5679 72.5614 36.4762C71.593 33.4443 69.6751 27.417 69.1822 25.5719H69.1458C69.1276 27.1606 68.7985 32.6404 68.5975 36.4762C68.5975 36.5671 68.5611 36.5861 68.4693 36.5861H67.2272C67.1362 36.5861 67.1172 36.5679 67.1172 36.4762L67.921 24.6217C67.9408 24.5117 67.9772 24.5117 68.05 24.5117Z" fill="#DF2E28"/>
<path id="Vector_35" d="M84.1969 32.7852L82.8819 36.4746C82.8637 36.5474 82.8273 36.5845 82.7356 36.5845H81.4934C81.4024 36.5845 81.3652 36.53 81.3834 36.4382L85.3655 25.3512C85.4201 25.2048 85.4747 25.0774 85.4937 24.6027C85.4937 24.5481 85.53 24.5117 85.5846 24.5117H87.3743C87.4471 24.5117 87.4653 24.5299 87.4843 24.6027L91.7765 36.4572C91.8129 36.53 91.7947 36.5853 91.7037 36.5853H90.3152C90.2424 36.5853 90.2052 36.5489 90.1688 36.4943L88.8357 32.7868H84.1969V32.7852ZM88.4163 31.3793C88.0144 30.1925 86.864 26.9961 86.5167 25.7539H86.4985C86.1883 26.9225 85.3109 29.3704 84.617 31.3793H88.4163Z" fill="#DF2E28"/>
<path id="Vector_36" d="M93.7141 36.5845C93.6231 36.5845 93.5859 36.5482 93.5859 36.4382V24.6209C93.5859 24.5481 93.6041 24.5117 93.6959 24.5117H94.9927C95.0655 24.5117 95.1019 24.5481 95.1019 24.6399V29.7906H95.7775C96.0695 29.7906 96.1431 29.7906 96.3258 29.5714C97.5316 28.22 99.3577 25.9913 100.563 24.6035C100.618 24.5489 100.654 24.5125 100.764 24.5125H102.208C102.317 24.5125 102.336 24.6035 102.28 24.6771C100.947 26.193 98.6638 28.8419 97.3489 30.3207C97.3125 30.3753 97.3125 30.3935 97.3489 30.4488L102.719 36.4216C102.773 36.4944 102.755 36.5861 102.664 36.5861H101.056C100.946 36.5861 100.892 36.5679 100.801 36.4762L96.2159 31.3801C96.0331 31.1791 95.9603 31.1609 95.6866 31.1609H95.1019V36.4572C95.1019 36.5482 95.0655 36.5853 94.9927 36.5853H93.7141V36.5845Z" fill="#DF2E28"/>
<path id="Vector_37" d="M114.062 30.4846C114.081 34.4113 111.761 36.7675 108.601 36.7675C105.112 36.7675 103.066 34.1193 103.066 30.521C103.066 26.8498 105.386 24.3291 108.564 24.3291C111.998 24.3291 114.044 27.0318 114.062 30.4846ZM108.637 35.3979C111.066 35.3979 112.509 33.4255 112.491 30.521C112.491 27.6901 110.939 25.6987 108.546 25.6987C106.355 25.6987 104.62 27.3974 104.62 30.521C104.62 33.1691 106.007 35.3979 108.637 35.3979Z" fill="#DF2E28"/>
</g>
</g>
</svg>
